M48
; DRILL file {KiCad (5.1.6)-1} date 08/31/20 12:11:18
; FORMAT={-:-/ absolute / inch / decimal}
; #@! TF.CreationDate,2020-08-31T12:11:18-04:00
; #@! TF.GenerationSoftware,Kicad,Pcbnew,(5.1.6)-1
; #@! TF.FileFunction,Plated,1,2,PTH
FMAT,2
INCH
T1C0.0157
T2C0.0350
T3C0.0394
T4C0.0900
%
G90
G05
T1
X4.75Y-4.525
X4.8Y-3.675
X4.8Y-4.175
X4.825Y-4.7
X4.885Y-3.92
X4.933Y-4.555
X4.95Y-4.8
X5.0Y-3.15
X5.0Y-3.375
X5.0Y-3.575
X5.0Y-4.475
X5.0Y-4.625
X5.025Y-4.05
X5.025Y-4.375
X5.1281Y-4.1699
X5.15Y-3.725
X5.15Y-4.95
X5.169Y-4.75
X5.169Y-4.275
X5.169Y-3.35
X5.169Y-3.425
X5.169Y-3.5
X5.169Y-3.975
X5.169Y-4.05
X5.169Y-4.125
X5.169Y-4.525
X5.169Y-4.6
X5.169Y-4.675
X5.225Y-3.1
X5.231Y-3.425
X5.231Y-4.05
X5.231Y-4.525
X5.3Y-3.65
X5.3Y-4.275
X5.3Y-4.85
X5.355Y-4.6
X5.4Y-3.2
X5.425Y-3.825
X5.425Y-4.9
X5.435Y-4.59
X5.45Y-4.05
X5.45Y-4.45
X5.451Y-4.807
X5.475Y-4.3
X5.5487Y-4.5487
X5.607Y-3.65
X5.669Y-4.675
X5.669Y-3.425
X5.669Y-4.05
X5.669Y-4.6
X5.725Y-3.65
X5.731Y-3.35
X5.731Y-3.425
X5.731Y-3.5
X5.731Y-3.975
X5.731Y-4.05
X5.731Y-4.125
X5.731Y-4.525
X5.731Y-4.6
X5.731Y-4.675
X5.731Y-3.2
X5.731Y-3.825
X5.731Y-4.275
X5.731Y-4.45
X5.7959Y-4.6375
X5.8Y-3.775
X5.85Y-3.15
X5.875Y-4.3
X5.875Y-4.59
X5.9Y-3.9
X5.9Y-4.0
X5.9Y-4.175
X5.9Y-4.48
X5.905Y-4.705
X5.95Y-3.325
X5.975Y-4.175
X6.0Y-3.525
X6.05Y-3.15
X6.055Y-4.725
X6.075Y-4.25
X6.1Y-4.48
X6.1144Y-3.4
X6.125Y-4.0
X6.143Y-4.666
X6.143Y-4.784
X6.175Y-3.775
X6.175Y-3.9
X6.2Y-4.125
X6.205Y-4.666
X6.225Y-3.525
X6.225Y-4.35
X6.25Y-3.425
X6.25Y-3.625
X6.299Y-4.571
X6.299Y-4.45
X6.3Y-4.025
X6.3Y-4.7841
X6.304Y-4.725
X6.37Y-4.725
X6.375Y-3.7
X6.384Y-4.109
X6.405Y-4.86
X6.44Y-4.725
X6.444Y-3.925
X6.444Y-4.225
X6.444Y-4.3
X6.444Y-4.375
X6.506Y-3.925
X6.506Y-4.075
X6.506Y-4.3
X6.525Y-4.625
X6.5591Y-4.223
X6.573Y-4.725
X6.575Y-4.075
X6.625Y-3.476
X6.625Y-4.65
X6.6652Y-3.8994
X6.675Y-4.075
X6.713Y-3.78
X6.7139Y-3.977
X6.725Y-4.6
X6.7425Y-3.8485
X6.785Y-4.065
X6.7904Y-3.7685
X6.794Y-4.6
X6.794Y-4.675
X6.794Y-4.75
X6.856Y-4.6
X6.856Y-4.675
X6.856Y-4.75
X6.875Y-4.51
X6.891Y-3.822
X6.9Y-3.3
X6.925Y-4.05
X6.944Y-4.3
X6.985Y-4.57
X7.006Y-4.225
X7.006Y-4.3
X7.006Y-4.375
X7.025Y-3.475
X7.05Y-4.825
X7.06Y-4.57
X7.125Y-4.575
X7.15Y-4.1
T2
X4.835Y-3.993
X4.835Y-4.257
X4.933Y-3.993
X4.933Y-4.257
T3
X6.225Y-3.175
X6.325Y-3.175
X6.425Y-3.175
X6.525Y-3.175
X6.625Y-3.175
X6.725Y-3.175
X6.825Y-3.175
X6.925Y-3.175
X5.2402Y-3.0
X5.3402Y-3.0
X5.4402Y-3.0
X5.5402Y-3.0
X5.6Y-4.9
X5.6402Y-3.0
X5.7Y-4.9
X5.7402Y-3.0
X5.8Y-4.9
X5.8402Y-3.0
X5.9Y-4.9
X5.9402Y-3.0
X6.0Y-4.9
X6.0402Y-3.0
X6.1Y-4.9
X6.1402Y-3.0
X6.2Y-4.9
X6.3Y-3.0
X6.3Y-4.9
X6.4Y-3.0
X6.5Y-3.0
X6.5Y-4.9
X6.6Y-3.0
X6.6Y-4.9
X6.7Y-3.0
X6.7Y-4.9
X6.8Y-3.0
X6.8Y-4.9
X6.9Y-3.0
X6.9Y-4.9
X7.0Y-3.0
X7.0Y-4.9
X7.0055Y-3.802
X7.0055Y-3.902
X7.0055Y-4.002
X7.1055Y-3.802
X7.1055Y-3.902
X7.1055Y-4.002
T4
X4.685Y-4.125
X4.717Y-3.859
X4.717Y-4.391
T0
M30
