%TF.GenerationSoftware,KiCad,Pcbnew,(5.1.6)-1*%
%TF.CreationDate,2020-08-17T15:42:06-04:00*%
%TF.ProjectId,FETtester,46455474-6573-4746-9572-2e6b69636164,rev?*%
%TF.SameCoordinates,Original*%
%TF.FileFunction,Legend,Top*%
%TF.FilePolarity,Positive*%
%FSLAX46Y46*%
G04 Gerber Fmt 4.6, Leading zero omitted, Abs format (unit mm)*
G04 Created by KiCad (PCBNEW (5.1.6)-1) date 2020-08-17 15:42:06*
%MOMM*%
%LPD*%
G01*
G04 APERTURE LIST*
%ADD10C,0.120000*%
%ADD11C,0.150000*%
%ADD12C,0.152400*%
G04 APERTURE END LIST*
D10*
%TO.C,J1*%
X156785000Y-79315000D02*
X156785000Y-81975000D01*
X174625000Y-79315000D02*
X156785000Y-79315000D01*
X174625000Y-81975000D02*
X156785000Y-81975000D01*
X174625000Y-79315000D02*
X174625000Y-81975000D01*
X175895000Y-79315000D02*
X177225000Y-79315000D01*
X177225000Y-79315000D02*
X177225000Y-80645000D01*
%TO.C,R60*%
X177327779Y-104900000D02*
X177002221Y-104900000D01*
X177327779Y-105920000D02*
X177002221Y-105920000D01*
%TO.C,R59*%
X177002221Y-107825000D02*
X177327779Y-107825000D01*
X177002221Y-106805000D02*
X177327779Y-106805000D01*
%TO.C,R58*%
X126248779Y-94740000D02*
X125923221Y-94740000D01*
X126248779Y-95760000D02*
X125923221Y-95760000D01*
%TO.C,R57*%
X123319000Y-115097779D02*
X123319000Y-114772221D01*
X122299000Y-115097779D02*
X122299000Y-114772221D01*
%TO.C,R56*%
X125808000Y-115072779D02*
X125808000Y-114747221D01*
X124788000Y-115072779D02*
X124788000Y-114747221D01*
%TO.C,R55*%
X177002221Y-113540000D02*
X177327779Y-113540000D01*
X177002221Y-112520000D02*
X177327779Y-112520000D01*
%TO.C,R54*%
X177002221Y-111635000D02*
X177327779Y-111635000D01*
X177002221Y-110615000D02*
X177327779Y-110615000D01*
D11*
%TO.C,J3*%
X127127000Y-111772700D02*
X114300000Y-111772700D01*
X127127000Y-97777300D02*
X127127000Y-111772700D01*
X114300000Y-97777300D02*
X127127000Y-97777300D01*
X114300000Y-111772700D02*
X114300000Y-97777300D01*
D10*
%TO.C,R38*%
X132242779Y-115445000D02*
X131917221Y-115445000D01*
X132242779Y-114425000D02*
X131917221Y-114425000D01*
%TO.C,C6*%
X144942779Y-117350000D02*
X144617221Y-117350000D01*
X144942779Y-116330000D02*
X144617221Y-116330000D01*
%TO.C,Q2*%
X155065000Y-87940000D02*
X153605000Y-87940000D01*
X155065000Y-84780000D02*
X152905000Y-84780000D01*
X155065000Y-84780000D02*
X155065000Y-85710000D01*
X155065000Y-87940000D02*
X155065000Y-87010000D01*
%TO.C,C20*%
X156656221Y-119025000D02*
X156981779Y-119025000D01*
X156656221Y-118005000D02*
X156981779Y-118005000D01*
%TO.C,C19*%
X156981779Y-121005000D02*
X156656221Y-121005000D01*
X156981779Y-122025000D02*
X156656221Y-122025000D01*
%TO.C,C16*%
X173192221Y-117350000D02*
X173517779Y-117350000D01*
X173192221Y-116330000D02*
X173517779Y-116330000D01*
%TO.C,C11*%
X173192221Y-119255000D02*
X173517779Y-119255000D01*
X173192221Y-118235000D02*
X173517779Y-118235000D01*
%TO.C,C10*%
X177327779Y-109730000D02*
X177002221Y-109730000D01*
X177327779Y-108710000D02*
X177002221Y-108710000D01*
%TO.C,U3*%
X138430000Y-121275000D02*
X140380000Y-121275000D01*
X138430000Y-121275000D02*
X136480000Y-121275000D01*
X138430000Y-112405000D02*
X140380000Y-112405000D01*
X138430000Y-112405000D02*
X134980000Y-112405000D01*
%TO.C,U2*%
X138430000Y-107305000D02*
X140380000Y-107305000D01*
X138430000Y-107305000D02*
X136480000Y-107305000D01*
X138430000Y-98435000D02*
X140380000Y-98435000D01*
X138430000Y-98435000D02*
X134980000Y-98435000D01*
%TO.C,U1*%
X138430000Y-91430000D02*
X140380000Y-91430000D01*
X138430000Y-91430000D02*
X136480000Y-91430000D01*
X138430000Y-82560000D02*
X140380000Y-82560000D01*
X138430000Y-82560000D02*
X134980000Y-82560000D01*
%TO.C,R49*%
X144617221Y-120140000D02*
X144942779Y-120140000D01*
X144617221Y-121160000D02*
X144942779Y-121160000D01*
%TO.C,R48*%
X144617221Y-118235000D02*
X144942779Y-118235000D01*
X144617221Y-119255000D02*
X144942779Y-119255000D01*
%TO.C,R47*%
X144942779Y-109095000D02*
X144617221Y-109095000D01*
X144942779Y-108075000D02*
X144617221Y-108075000D01*
%TO.C,R46*%
X143367779Y-93220000D02*
X143042221Y-93220000D01*
X143367779Y-92200000D02*
X143042221Y-92200000D01*
%TO.C,R45*%
X144617221Y-106170000D02*
X144942779Y-106170000D01*
X144617221Y-107190000D02*
X144942779Y-107190000D01*
%TO.C,R44*%
X144942779Y-91315000D02*
X144617221Y-91315000D01*
X144942779Y-90295000D02*
X144617221Y-90295000D01*
%TO.C,R43*%
X144942779Y-105285000D02*
X144617221Y-105285000D01*
X144942779Y-104265000D02*
X144617221Y-104265000D01*
%TO.C,R42*%
X160145000Y-91475779D02*
X160145000Y-91150221D01*
X161165000Y-91475779D02*
X161165000Y-91150221D01*
%TO.C,R41*%
X144942779Y-89410000D02*
X144617221Y-89410000D01*
X144942779Y-88390000D02*
X144617221Y-88390000D01*
%TO.C,R40*%
X162685000Y-91475779D02*
X162685000Y-91150221D01*
X163705000Y-91475779D02*
X163705000Y-91150221D01*
%TO.C,R39*%
X132242779Y-113540000D02*
X131917221Y-113540000D01*
X132242779Y-112520000D02*
X131917221Y-112520000D01*
%TO.C,R37*%
X131917221Y-96645000D02*
X132242779Y-96645000D01*
X131917221Y-97665000D02*
X132242779Y-97665000D01*
%TO.C,R36*%
X132242779Y-81790000D02*
X131917221Y-81790000D01*
X132242779Y-80770000D02*
X131917221Y-80770000D01*
%TO.C,R35*%
X132242779Y-99570000D02*
X131917221Y-99570000D01*
X132242779Y-98550000D02*
X131917221Y-98550000D01*
%TO.C,R34*%
X131917221Y-82675000D02*
X132242779Y-82675000D01*
X131917221Y-83695000D02*
X132242779Y-83695000D01*
%TO.C,R33*%
X131917221Y-100455000D02*
X132242779Y-100455000D01*
X131917221Y-101475000D02*
X132242779Y-101475000D01*
%TO.C,R32*%
X172845000Y-87665779D02*
X172845000Y-87340221D01*
X173865000Y-87665779D02*
X173865000Y-87340221D01*
%TO.C,R31*%
X131917221Y-84580000D02*
X132242779Y-84580000D01*
X131917221Y-85600000D02*
X132242779Y-85600000D01*
%TO.C,R30*%
X175385000Y-91475779D02*
X175385000Y-91150221D01*
X176405000Y-91475779D02*
X176405000Y-91150221D01*
%TO.C,R29*%
X132242779Y-121160000D02*
X131917221Y-121160000D01*
X132242779Y-120140000D02*
X131917221Y-120140000D01*
%TO.C,R28*%
X132242779Y-119255000D02*
X131917221Y-119255000D01*
X132242779Y-118235000D02*
X131917221Y-118235000D01*
%TO.C,R27*%
X131917221Y-108075000D02*
X132242779Y-108075000D01*
X131917221Y-109095000D02*
X132242779Y-109095000D01*
%TO.C,R26*%
X132242779Y-93220000D02*
X131917221Y-93220000D01*
X132242779Y-92200000D02*
X131917221Y-92200000D01*
%TO.C,R25*%
X132242779Y-107190000D02*
X131917221Y-107190000D01*
X132242779Y-106170000D02*
X131917221Y-106170000D01*
%TO.C,R24*%
X131917221Y-90295000D02*
X132242779Y-90295000D01*
X131917221Y-91315000D02*
X132242779Y-91315000D01*
%TO.C,R23*%
X131917221Y-104265000D02*
X132242779Y-104265000D01*
X131917221Y-105285000D02*
X132242779Y-105285000D01*
%TO.C,R22*%
X165225000Y-87665779D02*
X165225000Y-87340221D01*
X166245000Y-87665779D02*
X166245000Y-87340221D01*
%TO.C,R21*%
X131917221Y-88390000D02*
X132242779Y-88390000D01*
X131917221Y-89410000D02*
X132242779Y-89410000D01*
%TO.C,R20*%
X170305000Y-87665779D02*
X170305000Y-87340221D01*
X171325000Y-87665779D02*
X171325000Y-87340221D01*
%TO.C,R19*%
X144617221Y-112520000D02*
X144942779Y-112520000D01*
X144617221Y-113540000D02*
X144942779Y-113540000D01*
%TO.C,R18*%
X144617221Y-114425000D02*
X144942779Y-114425000D01*
X144617221Y-115445000D02*
X144942779Y-115445000D01*
%TO.C,R17*%
X144942779Y-97665000D02*
X144617221Y-97665000D01*
X144942779Y-96645000D02*
X144617221Y-96645000D01*
%TO.C,R16*%
X144617221Y-80770000D02*
X144942779Y-80770000D01*
X144617221Y-81790000D02*
X144942779Y-81790000D01*
%TO.C,R15*%
X144617221Y-98550000D02*
X144942779Y-98550000D01*
X144617221Y-99570000D02*
X144942779Y-99570000D01*
%TO.C,R14*%
X144942779Y-83695000D02*
X144617221Y-83695000D01*
X144942779Y-82675000D02*
X144617221Y-82675000D01*
%TO.C,R13*%
X144942779Y-101475000D02*
X144617221Y-101475000D01*
X144942779Y-100455000D02*
X144617221Y-100455000D01*
%TO.C,R12*%
X165225000Y-91475779D02*
X165225000Y-91150221D01*
X166245000Y-91475779D02*
X166245000Y-91150221D01*
%TO.C,R11*%
X144942779Y-85600000D02*
X144617221Y-85600000D01*
X144942779Y-84580000D02*
X144617221Y-84580000D01*
%TO.C,R10*%
X160145000Y-87665779D02*
X160145000Y-87340221D01*
X161165000Y-87665779D02*
X161165000Y-87340221D01*
%TO.C,R9*%
X164302221Y-104900000D02*
X164627779Y-104900000D01*
X164302221Y-105920000D02*
X164627779Y-105920000D01*
%TO.C,R8*%
X164627779Y-104015000D02*
X164302221Y-104015000D01*
X164627779Y-102995000D02*
X164302221Y-102995000D01*
%TO.C,R7*%
X164627779Y-107825000D02*
X164302221Y-107825000D01*
X164627779Y-106805000D02*
X164302221Y-106805000D01*
%TO.C,R6*%
X164302221Y-97280000D02*
X164627779Y-97280000D01*
X164302221Y-98300000D02*
X164627779Y-98300000D01*
%TO.C,R5*%
X168785000Y-87340221D02*
X168785000Y-87665779D01*
X167765000Y-87340221D02*
X167765000Y-87665779D01*
%TO.C,R4*%
X162685000Y-87665779D02*
X162685000Y-87340221D01*
X163705000Y-87665779D02*
X163705000Y-87340221D01*
%TO.C,R3*%
X170622779Y-94998000D02*
X170297221Y-94998000D01*
X170622779Y-93978000D02*
X170297221Y-93978000D01*
%TO.C,R2*%
X176405000Y-87340221D02*
X176405000Y-87665779D01*
X175385000Y-87340221D02*
X175385000Y-87665779D01*
%TO.C,R1*%
X172845000Y-91475779D02*
X172845000Y-91150221D01*
X173865000Y-91475779D02*
X173865000Y-91150221D01*
%TO.C,Q1*%
X168092000Y-92200000D02*
X169022000Y-92200000D01*
X171252000Y-92200000D02*
X170322000Y-92200000D01*
X171252000Y-92200000D02*
X171252000Y-90040000D01*
X168092000Y-92200000D02*
X168092000Y-90740000D01*
%TO.C,C9*%
X164302221Y-99185000D02*
X164627779Y-99185000D01*
X164302221Y-100205000D02*
X164627779Y-100205000D01*
%TO.C,C8*%
X173192221Y-120140000D02*
X173517779Y-120140000D01*
X173192221Y-121160000D02*
X173517779Y-121160000D01*
%TO.C,C7*%
X164302221Y-108710000D02*
X164627779Y-108710000D01*
X164302221Y-109730000D02*
X164627779Y-109730000D01*
%TO.C,C5*%
X131917221Y-116330000D02*
X132242779Y-116330000D01*
X131917221Y-117350000D02*
X132242779Y-117350000D01*
%TO.C,C4*%
X144942779Y-103380000D02*
X144617221Y-103380000D01*
X144942779Y-102360000D02*
X144617221Y-102360000D01*
%TO.C,C3*%
X131917221Y-102360000D02*
X132242779Y-102360000D01*
X131917221Y-103380000D02*
X132242779Y-103380000D01*
%TO.C,C2*%
X144942779Y-87505000D02*
X144617221Y-87505000D01*
X144942779Y-86485000D02*
X144617221Y-86485000D01*
%TO.C,C1*%
X131917221Y-86485000D02*
X132242779Y-86485000D01*
X131917221Y-87505000D02*
X132242779Y-87505000D01*
%TO.C,R50*%
X164302221Y-101090000D02*
X164627779Y-101090000D01*
X164302221Y-102110000D02*
X164627779Y-102110000D01*
%TO.C,R51*%
X160619221Y-113540000D02*
X160944779Y-113540000D01*
X160619221Y-112520000D02*
X160944779Y-112520000D01*
%TO.C,R52*%
X164627779Y-110615000D02*
X164302221Y-110615000D01*
X164627779Y-111635000D02*
X164302221Y-111635000D01*
%TO.C,R53*%
X164302221Y-112520000D02*
X164627779Y-112520000D01*
X164302221Y-113540000D02*
X164627779Y-113540000D01*
%TO.C,U4*%
X170815000Y-104785000D02*
X167365000Y-104785000D01*
X170815000Y-104785000D02*
X172765000Y-104785000D01*
X170815000Y-113655000D02*
X168865000Y-113655000D01*
X170815000Y-113655000D02*
X172765000Y-113655000D01*
%TO.C,U5*%
X170815000Y-96635000D02*
X167215000Y-96635000D01*
X170815000Y-96635000D02*
X173015000Y-96635000D01*
X170815000Y-102105000D02*
X168615000Y-102105000D01*
X170815000Y-102105000D02*
X173015000Y-102105000D01*
%TO.C,U6*%
X167395000Y-121525000D02*
X169825000Y-121525000D01*
X169155000Y-118455000D02*
X167395000Y-118455000D01*
%TO.C,U7*%
X160610000Y-122375000D02*
X160610000Y-122145000D01*
X160610000Y-117655000D02*
X160610000Y-117885000D01*
X160610000Y-117655000D02*
X163330000Y-117655000D01*
X163330000Y-117655000D02*
X163330000Y-118965000D01*
X159470000Y-117885000D02*
X160610000Y-117885000D01*
X163330000Y-122375000D02*
X160610000Y-122375000D01*
X163330000Y-121065000D02*
X163330000Y-122375000D01*
%TO.C,C13*%
X168437779Y-116330000D02*
X168112221Y-116330000D01*
X168437779Y-117350000D02*
X168112221Y-117350000D01*
%TO.C,J1*%
D11*
X178744571Y-81335476D02*
X178744571Y-81668809D01*
X179268380Y-81668809D02*
X178268380Y-81668809D01*
X178268380Y-81192619D01*
X178744571Y-80811666D02*
X178744571Y-80478333D01*
X179268380Y-80335476D02*
X179268380Y-80811666D01*
X178268380Y-80811666D01*
X178268380Y-80335476D01*
X178268380Y-80049761D02*
X178268380Y-79478333D01*
X179268380Y-79764047D02*
X178268380Y-79764047D01*
%TO.C,R60*%
X179697142Y-105862380D02*
X179363809Y-105386190D01*
X179125714Y-105862380D02*
X179125714Y-104862380D01*
X179506666Y-104862380D01*
X179601904Y-104910000D01*
X179649523Y-104957619D01*
X179697142Y-105052857D01*
X179697142Y-105195714D01*
X179649523Y-105290952D01*
X179601904Y-105338571D01*
X179506666Y-105386190D01*
X179125714Y-105386190D01*
X180554285Y-104862380D02*
X180363809Y-104862380D01*
X180268571Y-104910000D01*
X180220952Y-104957619D01*
X180125714Y-105100476D01*
X180078095Y-105290952D01*
X180078095Y-105671904D01*
X180125714Y-105767142D01*
X180173333Y-105814761D01*
X180268571Y-105862380D01*
X180459047Y-105862380D01*
X180554285Y-105814761D01*
X180601904Y-105767142D01*
X180649523Y-105671904D01*
X180649523Y-105433809D01*
X180601904Y-105338571D01*
X180554285Y-105290952D01*
X180459047Y-105243333D01*
X180268571Y-105243333D01*
X180173333Y-105290952D01*
X180125714Y-105338571D01*
X180078095Y-105433809D01*
X181268571Y-104862380D02*
X181363809Y-104862380D01*
X181459047Y-104910000D01*
X181506666Y-104957619D01*
X181554285Y-105052857D01*
X181601904Y-105243333D01*
X181601904Y-105481428D01*
X181554285Y-105671904D01*
X181506666Y-105767142D01*
X181459047Y-105814761D01*
X181363809Y-105862380D01*
X181268571Y-105862380D01*
X181173333Y-105814761D01*
X181125714Y-105767142D01*
X181078095Y-105671904D01*
X181030476Y-105481428D01*
X181030476Y-105243333D01*
X181078095Y-105052857D01*
X181125714Y-104957619D01*
X181173333Y-104910000D01*
X181268571Y-104862380D01*
%TO.C,R59*%
X179697142Y-107767380D02*
X179363809Y-107291190D01*
X179125714Y-107767380D02*
X179125714Y-106767380D01*
X179506666Y-106767380D01*
X179601904Y-106815000D01*
X179649523Y-106862619D01*
X179697142Y-106957857D01*
X179697142Y-107100714D01*
X179649523Y-107195952D01*
X179601904Y-107243571D01*
X179506666Y-107291190D01*
X179125714Y-107291190D01*
X180601904Y-106767380D02*
X180125714Y-106767380D01*
X180078095Y-107243571D01*
X180125714Y-107195952D01*
X180220952Y-107148333D01*
X180459047Y-107148333D01*
X180554285Y-107195952D01*
X180601904Y-107243571D01*
X180649523Y-107338809D01*
X180649523Y-107576904D01*
X180601904Y-107672142D01*
X180554285Y-107719761D01*
X180459047Y-107767380D01*
X180220952Y-107767380D01*
X180125714Y-107719761D01*
X180078095Y-107672142D01*
X181125714Y-107767380D02*
X181316190Y-107767380D01*
X181411428Y-107719761D01*
X181459047Y-107672142D01*
X181554285Y-107529285D01*
X181601904Y-107338809D01*
X181601904Y-106957857D01*
X181554285Y-106862619D01*
X181506666Y-106815000D01*
X181411428Y-106767380D01*
X181220952Y-106767380D01*
X181125714Y-106815000D01*
X181078095Y-106862619D01*
X181030476Y-106957857D01*
X181030476Y-107195952D01*
X181078095Y-107291190D01*
X181125714Y-107338809D01*
X181220952Y-107386428D01*
X181411428Y-107386428D01*
X181506666Y-107338809D01*
X181554285Y-107291190D01*
X181601904Y-107195952D01*
%TO.C,R58*%
X125341542Y-94305380D02*
X125008209Y-93829190D01*
X124770114Y-94305380D02*
X124770114Y-93305380D01*
X125151066Y-93305380D01*
X125246304Y-93353000D01*
X125293923Y-93400619D01*
X125341542Y-93495857D01*
X125341542Y-93638714D01*
X125293923Y-93733952D01*
X125246304Y-93781571D01*
X125151066Y-93829190D01*
X124770114Y-93829190D01*
X126246304Y-93305380D02*
X125770114Y-93305380D01*
X125722495Y-93781571D01*
X125770114Y-93733952D01*
X125865352Y-93686333D01*
X126103447Y-93686333D01*
X126198685Y-93733952D01*
X126246304Y-93781571D01*
X126293923Y-93876809D01*
X126293923Y-94114904D01*
X126246304Y-94210142D01*
X126198685Y-94257761D01*
X126103447Y-94305380D01*
X125865352Y-94305380D01*
X125770114Y-94257761D01*
X125722495Y-94210142D01*
X126865352Y-93733952D02*
X126770114Y-93686333D01*
X126722495Y-93638714D01*
X126674876Y-93543476D01*
X126674876Y-93495857D01*
X126722495Y-93400619D01*
X126770114Y-93353000D01*
X126865352Y-93305380D01*
X127055828Y-93305380D01*
X127151066Y-93353000D01*
X127198685Y-93400619D01*
X127246304Y-93495857D01*
X127246304Y-93543476D01*
X127198685Y-93638714D01*
X127151066Y-93686333D01*
X127055828Y-93733952D01*
X126865352Y-93733952D01*
X126770114Y-93781571D01*
X126722495Y-93829190D01*
X126674876Y-93924428D01*
X126674876Y-94114904D01*
X126722495Y-94210142D01*
X126770114Y-94257761D01*
X126865352Y-94305380D01*
X127055828Y-94305380D01*
X127151066Y-94257761D01*
X127198685Y-94210142D01*
X127246304Y-94114904D01*
X127246304Y-93924428D01*
X127198685Y-93829190D01*
X127151066Y-93781571D01*
X127055828Y-93733952D01*
%TO.C,R57*%
X123261380Y-118625857D02*
X122785190Y-118959190D01*
X123261380Y-119197285D02*
X122261380Y-119197285D01*
X122261380Y-118816333D01*
X122309000Y-118721095D01*
X122356619Y-118673476D01*
X122451857Y-118625857D01*
X122594714Y-118625857D01*
X122689952Y-118673476D01*
X122737571Y-118721095D01*
X122785190Y-118816333D01*
X122785190Y-119197285D01*
X122261380Y-117721095D02*
X122261380Y-118197285D01*
X122737571Y-118244904D01*
X122689952Y-118197285D01*
X122642333Y-118102047D01*
X122642333Y-117863952D01*
X122689952Y-117768714D01*
X122737571Y-117721095D01*
X122832809Y-117673476D01*
X123070904Y-117673476D01*
X123166142Y-117721095D01*
X123213761Y-117768714D01*
X123261380Y-117863952D01*
X123261380Y-118102047D01*
X123213761Y-118197285D01*
X123166142Y-118244904D01*
X122261380Y-117340142D02*
X122261380Y-116673476D01*
X123261380Y-117102047D01*
%TO.C,R56*%
X125750380Y-118600857D02*
X125274190Y-118934190D01*
X125750380Y-119172285D02*
X124750380Y-119172285D01*
X124750380Y-118791333D01*
X124798000Y-118696095D01*
X124845619Y-118648476D01*
X124940857Y-118600857D01*
X125083714Y-118600857D01*
X125178952Y-118648476D01*
X125226571Y-118696095D01*
X125274190Y-118791333D01*
X125274190Y-119172285D01*
X124750380Y-117696095D02*
X124750380Y-118172285D01*
X125226571Y-118219904D01*
X125178952Y-118172285D01*
X125131333Y-118077047D01*
X125131333Y-117838952D01*
X125178952Y-117743714D01*
X125226571Y-117696095D01*
X125321809Y-117648476D01*
X125559904Y-117648476D01*
X125655142Y-117696095D01*
X125702761Y-117743714D01*
X125750380Y-117838952D01*
X125750380Y-118077047D01*
X125702761Y-118172285D01*
X125655142Y-118219904D01*
X124750380Y-116791333D02*
X124750380Y-116981809D01*
X124798000Y-117077047D01*
X124845619Y-117124666D01*
X124988476Y-117219904D01*
X125178952Y-117267523D01*
X125559904Y-117267523D01*
X125655142Y-117219904D01*
X125702761Y-117172285D01*
X125750380Y-117077047D01*
X125750380Y-116886571D01*
X125702761Y-116791333D01*
X125655142Y-116743714D01*
X125559904Y-116696095D01*
X125321809Y-116696095D01*
X125226571Y-116743714D01*
X125178952Y-116791333D01*
X125131333Y-116886571D01*
X125131333Y-117077047D01*
X125178952Y-117172285D01*
X125226571Y-117219904D01*
X125321809Y-117267523D01*
%TO.C,R55*%
X179697142Y-113482380D02*
X179363809Y-113006190D01*
X179125714Y-113482380D02*
X179125714Y-112482380D01*
X179506666Y-112482380D01*
X179601904Y-112530000D01*
X179649523Y-112577619D01*
X179697142Y-112672857D01*
X179697142Y-112815714D01*
X179649523Y-112910952D01*
X179601904Y-112958571D01*
X179506666Y-113006190D01*
X179125714Y-113006190D01*
X180601904Y-112482380D02*
X180125714Y-112482380D01*
X180078095Y-112958571D01*
X180125714Y-112910952D01*
X180220952Y-112863333D01*
X180459047Y-112863333D01*
X180554285Y-112910952D01*
X180601904Y-112958571D01*
X180649523Y-113053809D01*
X180649523Y-113291904D01*
X180601904Y-113387142D01*
X180554285Y-113434761D01*
X180459047Y-113482380D01*
X180220952Y-113482380D01*
X180125714Y-113434761D01*
X180078095Y-113387142D01*
X181554285Y-112482380D02*
X181078095Y-112482380D01*
X181030476Y-112958571D01*
X181078095Y-112910952D01*
X181173333Y-112863333D01*
X181411428Y-112863333D01*
X181506666Y-112910952D01*
X181554285Y-112958571D01*
X181601904Y-113053809D01*
X181601904Y-113291904D01*
X181554285Y-113387142D01*
X181506666Y-113434761D01*
X181411428Y-113482380D01*
X181173333Y-113482380D01*
X181078095Y-113434761D01*
X181030476Y-113387142D01*
%TO.C,R54*%
X179697142Y-111577380D02*
X179363809Y-111101190D01*
X179125714Y-111577380D02*
X179125714Y-110577380D01*
X179506666Y-110577380D01*
X179601904Y-110625000D01*
X179649523Y-110672619D01*
X179697142Y-110767857D01*
X179697142Y-110910714D01*
X179649523Y-111005952D01*
X179601904Y-111053571D01*
X179506666Y-111101190D01*
X179125714Y-111101190D01*
X180601904Y-110577380D02*
X180125714Y-110577380D01*
X180078095Y-111053571D01*
X180125714Y-111005952D01*
X180220952Y-110958333D01*
X180459047Y-110958333D01*
X180554285Y-111005952D01*
X180601904Y-111053571D01*
X180649523Y-111148809D01*
X180649523Y-111386904D01*
X180601904Y-111482142D01*
X180554285Y-111529761D01*
X180459047Y-111577380D01*
X180220952Y-111577380D01*
X180125714Y-111529761D01*
X180078095Y-111482142D01*
X181506666Y-110910714D02*
X181506666Y-111577380D01*
X181268571Y-110529761D02*
X181030476Y-111244047D01*
X181649523Y-111244047D01*
%TO.C,J3*%
D12*
X122494523Y-105029000D02*
X123401666Y-105029000D01*
X123583095Y-105065285D01*
X123704047Y-105137857D01*
X123764523Y-105246714D01*
X123764523Y-105319285D01*
X122494523Y-104738714D02*
X122494523Y-104267000D01*
X122978333Y-104521000D01*
X122978333Y-104412142D01*
X123038809Y-104339571D01*
X123099285Y-104303285D01*
X123220238Y-104267000D01*
X123522619Y-104267000D01*
X123643571Y-104303285D01*
X123704047Y-104339571D01*
X123764523Y-104412142D01*
X123764523Y-104629857D01*
X123704047Y-104702428D01*
X123643571Y-104738714D01*
X115896571Y-97475523D02*
X115642571Y-96870761D01*
X115461142Y-97475523D02*
X115461142Y-96205523D01*
X115751428Y-96205523D01*
X115824000Y-96266000D01*
X115860285Y-96326476D01*
X115896571Y-96447428D01*
X115896571Y-96628857D01*
X115860285Y-96749809D01*
X115824000Y-96810285D01*
X115751428Y-96870761D01*
X115461142Y-96870761D01*
X116114285Y-96205523D02*
X116549714Y-96205523D01*
X116332000Y-97475523D02*
X116332000Y-96205523D01*
X116803714Y-97475523D02*
X116803714Y-96205523D01*
X116985142Y-96205523D01*
X117094000Y-96266000D01*
X117166571Y-96386952D01*
X117202857Y-96507904D01*
X117239142Y-96749809D01*
X117239142Y-96931238D01*
X117202857Y-97173142D01*
X117166571Y-97294095D01*
X117094000Y-97415047D01*
X116985142Y-97475523D01*
X116803714Y-97475523D01*
%TO.C,R38*%
D11*
X128389142Y-115387380D02*
X128055809Y-114911190D01*
X127817714Y-115387380D02*
X127817714Y-114387380D01*
X128198666Y-114387380D01*
X128293904Y-114435000D01*
X128341523Y-114482619D01*
X128389142Y-114577857D01*
X128389142Y-114720714D01*
X128341523Y-114815952D01*
X128293904Y-114863571D01*
X128198666Y-114911190D01*
X127817714Y-114911190D01*
X128722476Y-114387380D02*
X129341523Y-114387380D01*
X129008190Y-114768333D01*
X129151047Y-114768333D01*
X129246285Y-114815952D01*
X129293904Y-114863571D01*
X129341523Y-114958809D01*
X129341523Y-115196904D01*
X129293904Y-115292142D01*
X129246285Y-115339761D01*
X129151047Y-115387380D01*
X128865333Y-115387380D01*
X128770095Y-115339761D01*
X128722476Y-115292142D01*
X129912952Y-114815952D02*
X129817714Y-114768333D01*
X129770095Y-114720714D01*
X129722476Y-114625476D01*
X129722476Y-114577857D01*
X129770095Y-114482619D01*
X129817714Y-114435000D01*
X129912952Y-114387380D01*
X130103428Y-114387380D01*
X130198666Y-114435000D01*
X130246285Y-114482619D01*
X130293904Y-114577857D01*
X130293904Y-114625476D01*
X130246285Y-114720714D01*
X130198666Y-114768333D01*
X130103428Y-114815952D01*
X129912952Y-114815952D01*
X129817714Y-114863571D01*
X129770095Y-114911190D01*
X129722476Y-115006428D01*
X129722476Y-115196904D01*
X129770095Y-115292142D01*
X129817714Y-115339761D01*
X129912952Y-115387380D01*
X130103428Y-115387380D01*
X130198666Y-115339761D01*
X130246285Y-115292142D01*
X130293904Y-115196904D01*
X130293904Y-115006428D01*
X130246285Y-114911190D01*
X130198666Y-114863571D01*
X130103428Y-114815952D01*
%TO.C,C6*%
X147153333Y-117197142D02*
X147105714Y-117244761D01*
X146962857Y-117292380D01*
X146867619Y-117292380D01*
X146724761Y-117244761D01*
X146629523Y-117149523D01*
X146581904Y-117054285D01*
X146534285Y-116863809D01*
X146534285Y-116720952D01*
X146581904Y-116530476D01*
X146629523Y-116435238D01*
X146724761Y-116340000D01*
X146867619Y-116292380D01*
X146962857Y-116292380D01*
X147105714Y-116340000D01*
X147153333Y-116387619D01*
X148010476Y-116292380D02*
X147820000Y-116292380D01*
X147724761Y-116340000D01*
X147677142Y-116387619D01*
X147581904Y-116530476D01*
X147534285Y-116720952D01*
X147534285Y-117101904D01*
X147581904Y-117197142D01*
X147629523Y-117244761D01*
X147724761Y-117292380D01*
X147915238Y-117292380D01*
X148010476Y-117244761D01*
X148058095Y-117197142D01*
X148105714Y-117101904D01*
X148105714Y-116863809D01*
X148058095Y-116768571D01*
X148010476Y-116720952D01*
X147915238Y-116673333D01*
X147724761Y-116673333D01*
X147629523Y-116720952D01*
X147581904Y-116768571D01*
X147534285Y-116863809D01*
%TO.C,Q2*%
X156368761Y-88812619D02*
X156273523Y-88765000D01*
X156178285Y-88669761D01*
X156035428Y-88526904D01*
X155940190Y-88479285D01*
X155844952Y-88479285D01*
X155892571Y-88717380D02*
X155797333Y-88669761D01*
X155702095Y-88574523D01*
X155654476Y-88384047D01*
X155654476Y-88050714D01*
X155702095Y-87860238D01*
X155797333Y-87765000D01*
X155892571Y-87717380D01*
X156083047Y-87717380D01*
X156178285Y-87765000D01*
X156273523Y-87860238D01*
X156321142Y-88050714D01*
X156321142Y-88384047D01*
X156273523Y-88574523D01*
X156178285Y-88669761D01*
X156083047Y-88717380D01*
X155892571Y-88717380D01*
X156702095Y-87812619D02*
X156749714Y-87765000D01*
X156844952Y-87717380D01*
X157083047Y-87717380D01*
X157178285Y-87765000D01*
X157225904Y-87812619D01*
X157273523Y-87907857D01*
X157273523Y-88003095D01*
X157225904Y-88145952D01*
X156654476Y-88717380D01*
X157273523Y-88717380D01*
%TO.C,C20*%
X153027142Y-118848142D02*
X152979523Y-118895761D01*
X152836666Y-118943380D01*
X152741428Y-118943380D01*
X152598571Y-118895761D01*
X152503333Y-118800523D01*
X152455714Y-118705285D01*
X152408095Y-118514809D01*
X152408095Y-118371952D01*
X152455714Y-118181476D01*
X152503333Y-118086238D01*
X152598571Y-117991000D01*
X152741428Y-117943380D01*
X152836666Y-117943380D01*
X152979523Y-117991000D01*
X153027142Y-118038619D01*
X153408095Y-118038619D02*
X153455714Y-117991000D01*
X153550952Y-117943380D01*
X153789047Y-117943380D01*
X153884285Y-117991000D01*
X153931904Y-118038619D01*
X153979523Y-118133857D01*
X153979523Y-118229095D01*
X153931904Y-118371952D01*
X153360476Y-118943380D01*
X153979523Y-118943380D01*
X154598571Y-117943380D02*
X154693809Y-117943380D01*
X154789047Y-117991000D01*
X154836666Y-118038619D01*
X154884285Y-118133857D01*
X154931904Y-118324333D01*
X154931904Y-118562428D01*
X154884285Y-118752904D01*
X154836666Y-118848142D01*
X154789047Y-118895761D01*
X154693809Y-118943380D01*
X154598571Y-118943380D01*
X154503333Y-118895761D01*
X154455714Y-118848142D01*
X154408095Y-118752904D01*
X154360476Y-118562428D01*
X154360476Y-118324333D01*
X154408095Y-118133857D01*
X154455714Y-118038619D01*
X154503333Y-117991000D01*
X154598571Y-117943380D01*
%TO.C,C19*%
X153027142Y-122023142D02*
X152979523Y-122070761D01*
X152836666Y-122118380D01*
X152741428Y-122118380D01*
X152598571Y-122070761D01*
X152503333Y-121975523D01*
X152455714Y-121880285D01*
X152408095Y-121689809D01*
X152408095Y-121546952D01*
X152455714Y-121356476D01*
X152503333Y-121261238D01*
X152598571Y-121166000D01*
X152741428Y-121118380D01*
X152836666Y-121118380D01*
X152979523Y-121166000D01*
X153027142Y-121213619D01*
X153979523Y-122118380D02*
X153408095Y-122118380D01*
X153693809Y-122118380D02*
X153693809Y-121118380D01*
X153598571Y-121261238D01*
X153503333Y-121356476D01*
X153408095Y-121404095D01*
X154455714Y-122118380D02*
X154646190Y-122118380D01*
X154741428Y-122070761D01*
X154789047Y-122023142D01*
X154884285Y-121880285D01*
X154931904Y-121689809D01*
X154931904Y-121308857D01*
X154884285Y-121213619D01*
X154836666Y-121166000D01*
X154741428Y-121118380D01*
X154550952Y-121118380D01*
X154455714Y-121166000D01*
X154408095Y-121213619D01*
X154360476Y-121308857D01*
X154360476Y-121546952D01*
X154408095Y-121642190D01*
X154455714Y-121689809D01*
X154550952Y-121737428D01*
X154741428Y-121737428D01*
X154836666Y-121689809D01*
X154884285Y-121642190D01*
X154931904Y-121546952D01*
%TO.C,C16*%
X175887142Y-117197142D02*
X175839523Y-117244761D01*
X175696666Y-117292380D01*
X175601428Y-117292380D01*
X175458571Y-117244761D01*
X175363333Y-117149523D01*
X175315714Y-117054285D01*
X175268095Y-116863809D01*
X175268095Y-116720952D01*
X175315714Y-116530476D01*
X175363333Y-116435238D01*
X175458571Y-116340000D01*
X175601428Y-116292380D01*
X175696666Y-116292380D01*
X175839523Y-116340000D01*
X175887142Y-116387619D01*
X176839523Y-117292380D02*
X176268095Y-117292380D01*
X176553809Y-117292380D02*
X176553809Y-116292380D01*
X176458571Y-116435238D01*
X176363333Y-116530476D01*
X176268095Y-116578095D01*
X177696666Y-116292380D02*
X177506190Y-116292380D01*
X177410952Y-116340000D01*
X177363333Y-116387619D01*
X177268095Y-116530476D01*
X177220476Y-116720952D01*
X177220476Y-117101904D01*
X177268095Y-117197142D01*
X177315714Y-117244761D01*
X177410952Y-117292380D01*
X177601428Y-117292380D01*
X177696666Y-117244761D01*
X177744285Y-117197142D01*
X177791904Y-117101904D01*
X177791904Y-116863809D01*
X177744285Y-116768571D01*
X177696666Y-116720952D01*
X177601428Y-116673333D01*
X177410952Y-116673333D01*
X177315714Y-116720952D01*
X177268095Y-116768571D01*
X177220476Y-116863809D01*
%TO.C,C11*%
X175887142Y-119102142D02*
X175839523Y-119149761D01*
X175696666Y-119197380D01*
X175601428Y-119197380D01*
X175458571Y-119149761D01*
X175363333Y-119054523D01*
X175315714Y-118959285D01*
X175268095Y-118768809D01*
X175268095Y-118625952D01*
X175315714Y-118435476D01*
X175363333Y-118340238D01*
X175458571Y-118245000D01*
X175601428Y-118197380D01*
X175696666Y-118197380D01*
X175839523Y-118245000D01*
X175887142Y-118292619D01*
X176839523Y-119197380D02*
X176268095Y-119197380D01*
X176553809Y-119197380D02*
X176553809Y-118197380D01*
X176458571Y-118340238D01*
X176363333Y-118435476D01*
X176268095Y-118483095D01*
X177791904Y-119197380D02*
X177220476Y-119197380D01*
X177506190Y-119197380D02*
X177506190Y-118197380D01*
X177410952Y-118340238D01*
X177315714Y-118435476D01*
X177220476Y-118483095D01*
%TO.C,C10*%
X179697142Y-109577142D02*
X179649523Y-109624761D01*
X179506666Y-109672380D01*
X179411428Y-109672380D01*
X179268571Y-109624761D01*
X179173333Y-109529523D01*
X179125714Y-109434285D01*
X179078095Y-109243809D01*
X179078095Y-109100952D01*
X179125714Y-108910476D01*
X179173333Y-108815238D01*
X179268571Y-108720000D01*
X179411428Y-108672380D01*
X179506666Y-108672380D01*
X179649523Y-108720000D01*
X179697142Y-108767619D01*
X180649523Y-109672380D02*
X180078095Y-109672380D01*
X180363809Y-109672380D02*
X180363809Y-108672380D01*
X180268571Y-108815238D01*
X180173333Y-108910476D01*
X180078095Y-108958095D01*
X181268571Y-108672380D02*
X181363809Y-108672380D01*
X181459047Y-108720000D01*
X181506666Y-108767619D01*
X181554285Y-108862857D01*
X181601904Y-109053333D01*
X181601904Y-109291428D01*
X181554285Y-109481904D01*
X181506666Y-109577142D01*
X181459047Y-109624761D01*
X181363809Y-109672380D01*
X181268571Y-109672380D01*
X181173333Y-109624761D01*
X181125714Y-109577142D01*
X181078095Y-109481904D01*
X181030476Y-109291428D01*
X181030476Y-109053333D01*
X181078095Y-108862857D01*
X181125714Y-108767619D01*
X181173333Y-108720000D01*
X181268571Y-108672380D01*
%TO.C,U3*%
X137668095Y-111012380D02*
X137668095Y-111821904D01*
X137715714Y-111917142D01*
X137763333Y-111964761D01*
X137858571Y-112012380D01*
X138049047Y-112012380D01*
X138144285Y-111964761D01*
X138191904Y-111917142D01*
X138239523Y-111821904D01*
X138239523Y-111012380D01*
X138620476Y-111012380D02*
X139239523Y-111012380D01*
X138906190Y-111393333D01*
X139049047Y-111393333D01*
X139144285Y-111440952D01*
X139191904Y-111488571D01*
X139239523Y-111583809D01*
X139239523Y-111821904D01*
X139191904Y-111917142D01*
X139144285Y-111964761D01*
X139049047Y-112012380D01*
X138763333Y-112012380D01*
X138668095Y-111964761D01*
X138620476Y-111917142D01*
%TO.C,U2*%
X138811095Y-97115380D02*
X138811095Y-97924904D01*
X138858714Y-98020142D01*
X138906333Y-98067761D01*
X139001571Y-98115380D01*
X139192047Y-98115380D01*
X139287285Y-98067761D01*
X139334904Y-98020142D01*
X139382523Y-97924904D01*
X139382523Y-97115380D01*
X139811095Y-97210619D02*
X139858714Y-97163000D01*
X139953952Y-97115380D01*
X140192047Y-97115380D01*
X140287285Y-97163000D01*
X140334904Y-97210619D01*
X140382523Y-97305857D01*
X140382523Y-97401095D01*
X140334904Y-97543952D01*
X139763476Y-98115380D01*
X140382523Y-98115380D01*
%TO.C,U1*%
X139446095Y-81240380D02*
X139446095Y-82049904D01*
X139493714Y-82145142D01*
X139541333Y-82192761D01*
X139636571Y-82240380D01*
X139827047Y-82240380D01*
X139922285Y-82192761D01*
X139969904Y-82145142D01*
X140017523Y-82049904D01*
X140017523Y-81240380D01*
X141017523Y-82240380D02*
X140446095Y-82240380D01*
X140731809Y-82240380D02*
X140731809Y-81240380D01*
X140636571Y-81383238D01*
X140541333Y-81478476D01*
X140446095Y-81526095D01*
%TO.C,R49*%
X147058142Y-121102380D02*
X146724809Y-120626190D01*
X146486714Y-121102380D02*
X146486714Y-120102380D01*
X146867666Y-120102380D01*
X146962904Y-120150000D01*
X147010523Y-120197619D01*
X147058142Y-120292857D01*
X147058142Y-120435714D01*
X147010523Y-120530952D01*
X146962904Y-120578571D01*
X146867666Y-120626190D01*
X146486714Y-120626190D01*
X147915285Y-120435714D02*
X147915285Y-121102380D01*
X147677190Y-120054761D02*
X147439095Y-120769047D01*
X148058142Y-120769047D01*
X148486714Y-121102380D02*
X148677190Y-121102380D01*
X148772428Y-121054761D01*
X148820047Y-121007142D01*
X148915285Y-120864285D01*
X148962904Y-120673809D01*
X148962904Y-120292857D01*
X148915285Y-120197619D01*
X148867666Y-120150000D01*
X148772428Y-120102380D01*
X148581952Y-120102380D01*
X148486714Y-120150000D01*
X148439095Y-120197619D01*
X148391476Y-120292857D01*
X148391476Y-120530952D01*
X148439095Y-120626190D01*
X148486714Y-120673809D01*
X148581952Y-120721428D01*
X148772428Y-120721428D01*
X148867666Y-120673809D01*
X148915285Y-120626190D01*
X148962904Y-120530952D01*
%TO.C,R48*%
X147058142Y-119197380D02*
X146724809Y-118721190D01*
X146486714Y-119197380D02*
X146486714Y-118197380D01*
X146867666Y-118197380D01*
X146962904Y-118245000D01*
X147010523Y-118292619D01*
X147058142Y-118387857D01*
X147058142Y-118530714D01*
X147010523Y-118625952D01*
X146962904Y-118673571D01*
X146867666Y-118721190D01*
X146486714Y-118721190D01*
X147915285Y-118530714D02*
X147915285Y-119197380D01*
X147677190Y-118149761D02*
X147439095Y-118864047D01*
X148058142Y-118864047D01*
X148581952Y-118625952D02*
X148486714Y-118578333D01*
X148439095Y-118530714D01*
X148391476Y-118435476D01*
X148391476Y-118387857D01*
X148439095Y-118292619D01*
X148486714Y-118245000D01*
X148581952Y-118197380D01*
X148772428Y-118197380D01*
X148867666Y-118245000D01*
X148915285Y-118292619D01*
X148962904Y-118387857D01*
X148962904Y-118435476D01*
X148915285Y-118530714D01*
X148867666Y-118578333D01*
X148772428Y-118625952D01*
X148581952Y-118625952D01*
X148486714Y-118673571D01*
X148439095Y-118721190D01*
X148391476Y-118816428D01*
X148391476Y-119006904D01*
X148439095Y-119102142D01*
X148486714Y-119149761D01*
X148581952Y-119197380D01*
X148772428Y-119197380D01*
X148867666Y-119149761D01*
X148915285Y-119102142D01*
X148962904Y-119006904D01*
X148962904Y-118816428D01*
X148915285Y-118721190D01*
X148867666Y-118673571D01*
X148772428Y-118625952D01*
%TO.C,R47*%
X147185142Y-109037380D02*
X146851809Y-108561190D01*
X146613714Y-109037380D02*
X146613714Y-108037380D01*
X146994666Y-108037380D01*
X147089904Y-108085000D01*
X147137523Y-108132619D01*
X147185142Y-108227857D01*
X147185142Y-108370714D01*
X147137523Y-108465952D01*
X147089904Y-108513571D01*
X146994666Y-108561190D01*
X146613714Y-108561190D01*
X148042285Y-108370714D02*
X148042285Y-109037380D01*
X147804190Y-107989761D02*
X147566095Y-108704047D01*
X148185142Y-108704047D01*
X148470857Y-108037380D02*
X149137523Y-108037380D01*
X148708952Y-109037380D01*
%TO.C,R46*%
X139387142Y-93162380D02*
X139053809Y-92686190D01*
X138815714Y-93162380D02*
X138815714Y-92162380D01*
X139196666Y-92162380D01*
X139291904Y-92210000D01*
X139339523Y-92257619D01*
X139387142Y-92352857D01*
X139387142Y-92495714D01*
X139339523Y-92590952D01*
X139291904Y-92638571D01*
X139196666Y-92686190D01*
X138815714Y-92686190D01*
X140244285Y-92495714D02*
X140244285Y-93162380D01*
X140006190Y-92114761D02*
X139768095Y-92829047D01*
X140387142Y-92829047D01*
X141196666Y-92162380D02*
X141006190Y-92162380D01*
X140910952Y-92210000D01*
X140863333Y-92257619D01*
X140768095Y-92400476D01*
X140720476Y-92590952D01*
X140720476Y-92971904D01*
X140768095Y-93067142D01*
X140815714Y-93114761D01*
X140910952Y-93162380D01*
X141101428Y-93162380D01*
X141196666Y-93114761D01*
X141244285Y-93067142D01*
X141291904Y-92971904D01*
X141291904Y-92733809D01*
X141244285Y-92638571D01*
X141196666Y-92590952D01*
X141101428Y-92543333D01*
X140910952Y-92543333D01*
X140815714Y-92590952D01*
X140768095Y-92638571D01*
X140720476Y-92733809D01*
%TO.C,R45*%
X147185142Y-107132380D02*
X146851809Y-106656190D01*
X146613714Y-107132380D02*
X146613714Y-106132380D01*
X146994666Y-106132380D01*
X147089904Y-106180000D01*
X147137523Y-106227619D01*
X147185142Y-106322857D01*
X147185142Y-106465714D01*
X147137523Y-106560952D01*
X147089904Y-106608571D01*
X146994666Y-106656190D01*
X146613714Y-106656190D01*
X148042285Y-106465714D02*
X148042285Y-107132380D01*
X147804190Y-106084761D02*
X147566095Y-106799047D01*
X148185142Y-106799047D01*
X149042285Y-106132380D02*
X148566095Y-106132380D01*
X148518476Y-106608571D01*
X148566095Y-106560952D01*
X148661333Y-106513333D01*
X148899428Y-106513333D01*
X148994666Y-106560952D01*
X149042285Y-106608571D01*
X149089904Y-106703809D01*
X149089904Y-106941904D01*
X149042285Y-107037142D01*
X148994666Y-107084761D01*
X148899428Y-107132380D01*
X148661333Y-107132380D01*
X148566095Y-107084761D01*
X148518476Y-107037142D01*
%TO.C,R44*%
X147312142Y-91257380D02*
X146978809Y-90781190D01*
X146740714Y-91257380D02*
X146740714Y-90257380D01*
X147121666Y-90257380D01*
X147216904Y-90305000D01*
X147264523Y-90352619D01*
X147312142Y-90447857D01*
X147312142Y-90590714D01*
X147264523Y-90685952D01*
X147216904Y-90733571D01*
X147121666Y-90781190D01*
X146740714Y-90781190D01*
X148169285Y-90590714D02*
X148169285Y-91257380D01*
X147931190Y-90209761D02*
X147693095Y-90924047D01*
X148312142Y-90924047D01*
X149121666Y-90590714D02*
X149121666Y-91257380D01*
X148883571Y-90209761D02*
X148645476Y-90924047D01*
X149264523Y-90924047D01*
%TO.C,R43*%
X147185142Y-105227380D02*
X146851809Y-104751190D01*
X146613714Y-105227380D02*
X146613714Y-104227380D01*
X146994666Y-104227380D01*
X147089904Y-104275000D01*
X147137523Y-104322619D01*
X147185142Y-104417857D01*
X147185142Y-104560714D01*
X147137523Y-104655952D01*
X147089904Y-104703571D01*
X146994666Y-104751190D01*
X146613714Y-104751190D01*
X148042285Y-104560714D02*
X148042285Y-105227380D01*
X147804190Y-104179761D02*
X147566095Y-104894047D01*
X148185142Y-104894047D01*
X148470857Y-104227380D02*
X149089904Y-104227380D01*
X148756571Y-104608333D01*
X148899428Y-104608333D01*
X148994666Y-104655952D01*
X149042285Y-104703571D01*
X149089904Y-104798809D01*
X149089904Y-105036904D01*
X149042285Y-105132142D01*
X148994666Y-105179761D01*
X148899428Y-105227380D01*
X148613714Y-105227380D01*
X148518476Y-105179761D01*
X148470857Y-105132142D01*
%TO.C,R42*%
X161107380Y-95003857D02*
X160631190Y-95337190D01*
X161107380Y-95575285D02*
X160107380Y-95575285D01*
X160107380Y-95194333D01*
X160155000Y-95099095D01*
X160202619Y-95051476D01*
X160297857Y-95003857D01*
X160440714Y-95003857D01*
X160535952Y-95051476D01*
X160583571Y-95099095D01*
X160631190Y-95194333D01*
X160631190Y-95575285D01*
X160440714Y-94146714D02*
X161107380Y-94146714D01*
X160059761Y-94384809D02*
X160774047Y-94622904D01*
X160774047Y-94003857D01*
X160202619Y-93670523D02*
X160155000Y-93622904D01*
X160107380Y-93527666D01*
X160107380Y-93289571D01*
X160155000Y-93194333D01*
X160202619Y-93146714D01*
X160297857Y-93099095D01*
X160393095Y-93099095D01*
X160535952Y-93146714D01*
X161107380Y-93718142D01*
X161107380Y-93099095D01*
%TO.C,R41*%
X147312142Y-89352380D02*
X146978809Y-88876190D01*
X146740714Y-89352380D02*
X146740714Y-88352380D01*
X147121666Y-88352380D01*
X147216904Y-88400000D01*
X147264523Y-88447619D01*
X147312142Y-88542857D01*
X147312142Y-88685714D01*
X147264523Y-88780952D01*
X147216904Y-88828571D01*
X147121666Y-88876190D01*
X146740714Y-88876190D01*
X148169285Y-88685714D02*
X148169285Y-89352380D01*
X147931190Y-88304761D02*
X147693095Y-89019047D01*
X148312142Y-89019047D01*
X149216904Y-89352380D02*
X148645476Y-89352380D01*
X148931190Y-89352380D02*
X148931190Y-88352380D01*
X148835952Y-88495238D01*
X148740714Y-88590476D01*
X148645476Y-88638095D01*
%TO.C,R40*%
X163647380Y-95003857D02*
X163171190Y-95337190D01*
X163647380Y-95575285D02*
X162647380Y-95575285D01*
X162647380Y-95194333D01*
X162695000Y-95099095D01*
X162742619Y-95051476D01*
X162837857Y-95003857D01*
X162980714Y-95003857D01*
X163075952Y-95051476D01*
X163123571Y-95099095D01*
X163171190Y-95194333D01*
X163171190Y-95575285D01*
X162980714Y-94146714D02*
X163647380Y-94146714D01*
X162599761Y-94384809D02*
X163314047Y-94622904D01*
X163314047Y-94003857D01*
X162647380Y-93432428D02*
X162647380Y-93337190D01*
X162695000Y-93241952D01*
X162742619Y-93194333D01*
X162837857Y-93146714D01*
X163028333Y-93099095D01*
X163266428Y-93099095D01*
X163456904Y-93146714D01*
X163552142Y-93194333D01*
X163599761Y-93241952D01*
X163647380Y-93337190D01*
X163647380Y-93432428D01*
X163599761Y-93527666D01*
X163552142Y-93575285D01*
X163456904Y-93622904D01*
X163266428Y-93670523D01*
X163028333Y-93670523D01*
X162837857Y-93622904D01*
X162742619Y-93575285D01*
X162695000Y-93527666D01*
X162647380Y-93432428D01*
%TO.C,R39*%
X128389142Y-113558580D02*
X128055809Y-113082390D01*
X127817714Y-113558580D02*
X127817714Y-112558580D01*
X128198666Y-112558580D01*
X128293904Y-112606200D01*
X128341523Y-112653819D01*
X128389142Y-112749057D01*
X128389142Y-112891914D01*
X128341523Y-112987152D01*
X128293904Y-113034771D01*
X128198666Y-113082390D01*
X127817714Y-113082390D01*
X128722476Y-112558580D02*
X129341523Y-112558580D01*
X129008190Y-112939533D01*
X129151047Y-112939533D01*
X129246285Y-112987152D01*
X129293904Y-113034771D01*
X129341523Y-113130009D01*
X129341523Y-113368104D01*
X129293904Y-113463342D01*
X129246285Y-113510961D01*
X129151047Y-113558580D01*
X128865333Y-113558580D01*
X128770095Y-113510961D01*
X128722476Y-113463342D01*
X129817714Y-113558580D02*
X130008190Y-113558580D01*
X130103428Y-113510961D01*
X130151047Y-113463342D01*
X130246285Y-113320485D01*
X130293904Y-113130009D01*
X130293904Y-112749057D01*
X130246285Y-112653819D01*
X130198666Y-112606200D01*
X130103428Y-112558580D01*
X129912952Y-112558580D01*
X129817714Y-112606200D01*
X129770095Y-112653819D01*
X129722476Y-112749057D01*
X129722476Y-112987152D01*
X129770095Y-113082390D01*
X129817714Y-113130009D01*
X129912952Y-113177628D01*
X130103428Y-113177628D01*
X130198666Y-113130009D01*
X130246285Y-113082390D01*
X130293904Y-112987152D01*
%TO.C,R37*%
X128389142Y-97734380D02*
X128055809Y-97258190D01*
X127817714Y-97734380D02*
X127817714Y-96734380D01*
X128198666Y-96734380D01*
X128293904Y-96782000D01*
X128341523Y-96829619D01*
X128389142Y-96924857D01*
X128389142Y-97067714D01*
X128341523Y-97162952D01*
X128293904Y-97210571D01*
X128198666Y-97258190D01*
X127817714Y-97258190D01*
X128722476Y-96734380D02*
X129341523Y-96734380D01*
X129008190Y-97115333D01*
X129151047Y-97115333D01*
X129246285Y-97162952D01*
X129293904Y-97210571D01*
X129341523Y-97305809D01*
X129341523Y-97543904D01*
X129293904Y-97639142D01*
X129246285Y-97686761D01*
X129151047Y-97734380D01*
X128865333Y-97734380D01*
X128770095Y-97686761D01*
X128722476Y-97639142D01*
X129674857Y-96734380D02*
X130341523Y-96734380D01*
X129912952Y-97734380D01*
%TO.C,R36*%
X128389142Y-81732380D02*
X128055809Y-81256190D01*
X127817714Y-81732380D02*
X127817714Y-80732380D01*
X128198666Y-80732380D01*
X128293904Y-80780000D01*
X128341523Y-80827619D01*
X128389142Y-80922857D01*
X128389142Y-81065714D01*
X128341523Y-81160952D01*
X128293904Y-81208571D01*
X128198666Y-81256190D01*
X127817714Y-81256190D01*
X128722476Y-80732380D02*
X129341523Y-80732380D01*
X129008190Y-81113333D01*
X129151047Y-81113333D01*
X129246285Y-81160952D01*
X129293904Y-81208571D01*
X129341523Y-81303809D01*
X129341523Y-81541904D01*
X129293904Y-81637142D01*
X129246285Y-81684761D01*
X129151047Y-81732380D01*
X128865333Y-81732380D01*
X128770095Y-81684761D01*
X128722476Y-81637142D01*
X130198666Y-80732380D02*
X130008190Y-80732380D01*
X129912952Y-80780000D01*
X129865333Y-80827619D01*
X129770095Y-80970476D01*
X129722476Y-81160952D01*
X129722476Y-81541904D01*
X129770095Y-81637142D01*
X129817714Y-81684761D01*
X129912952Y-81732380D01*
X130103428Y-81732380D01*
X130198666Y-81684761D01*
X130246285Y-81637142D01*
X130293904Y-81541904D01*
X130293904Y-81303809D01*
X130246285Y-81208571D01*
X130198666Y-81160952D01*
X130103428Y-81113333D01*
X129912952Y-81113333D01*
X129817714Y-81160952D01*
X129770095Y-81208571D01*
X129722476Y-81303809D01*
%TO.C,R35*%
X128389142Y-99575880D02*
X128055809Y-99099690D01*
X127817714Y-99575880D02*
X127817714Y-98575880D01*
X128198666Y-98575880D01*
X128293904Y-98623500D01*
X128341523Y-98671119D01*
X128389142Y-98766357D01*
X128389142Y-98909214D01*
X128341523Y-99004452D01*
X128293904Y-99052071D01*
X128198666Y-99099690D01*
X127817714Y-99099690D01*
X128722476Y-98575880D02*
X129341523Y-98575880D01*
X129008190Y-98956833D01*
X129151047Y-98956833D01*
X129246285Y-99004452D01*
X129293904Y-99052071D01*
X129341523Y-99147309D01*
X129341523Y-99385404D01*
X129293904Y-99480642D01*
X129246285Y-99528261D01*
X129151047Y-99575880D01*
X128865333Y-99575880D01*
X128770095Y-99528261D01*
X128722476Y-99480642D01*
X130246285Y-98575880D02*
X129770095Y-98575880D01*
X129722476Y-99052071D01*
X129770095Y-99004452D01*
X129865333Y-98956833D01*
X130103428Y-98956833D01*
X130198666Y-99004452D01*
X130246285Y-99052071D01*
X130293904Y-99147309D01*
X130293904Y-99385404D01*
X130246285Y-99480642D01*
X130198666Y-99528261D01*
X130103428Y-99575880D01*
X129865333Y-99575880D01*
X129770095Y-99528261D01*
X129722476Y-99480642D01*
%TO.C,R34*%
X128389142Y-83637380D02*
X128055809Y-83161190D01*
X127817714Y-83637380D02*
X127817714Y-82637380D01*
X128198666Y-82637380D01*
X128293904Y-82685000D01*
X128341523Y-82732619D01*
X128389142Y-82827857D01*
X128389142Y-82970714D01*
X128341523Y-83065952D01*
X128293904Y-83113571D01*
X128198666Y-83161190D01*
X127817714Y-83161190D01*
X128722476Y-82637380D02*
X129341523Y-82637380D01*
X129008190Y-83018333D01*
X129151047Y-83018333D01*
X129246285Y-83065952D01*
X129293904Y-83113571D01*
X129341523Y-83208809D01*
X129341523Y-83446904D01*
X129293904Y-83542142D01*
X129246285Y-83589761D01*
X129151047Y-83637380D01*
X128865333Y-83637380D01*
X128770095Y-83589761D01*
X128722476Y-83542142D01*
X130198666Y-82970714D02*
X130198666Y-83637380D01*
X129960571Y-82589761D02*
X129722476Y-83304047D01*
X130341523Y-83304047D01*
%TO.C,R33*%
X128389142Y-101417380D02*
X128055809Y-100941190D01*
X127817714Y-101417380D02*
X127817714Y-100417380D01*
X128198666Y-100417380D01*
X128293904Y-100465000D01*
X128341523Y-100512619D01*
X128389142Y-100607857D01*
X128389142Y-100750714D01*
X128341523Y-100845952D01*
X128293904Y-100893571D01*
X128198666Y-100941190D01*
X127817714Y-100941190D01*
X128722476Y-100417380D02*
X129341523Y-100417380D01*
X129008190Y-100798333D01*
X129151047Y-100798333D01*
X129246285Y-100845952D01*
X129293904Y-100893571D01*
X129341523Y-100988809D01*
X129341523Y-101226904D01*
X129293904Y-101322142D01*
X129246285Y-101369761D01*
X129151047Y-101417380D01*
X128865333Y-101417380D01*
X128770095Y-101369761D01*
X128722476Y-101322142D01*
X129674857Y-100417380D02*
X130293904Y-100417380D01*
X129960571Y-100798333D01*
X130103428Y-100798333D01*
X130198666Y-100845952D01*
X130246285Y-100893571D01*
X130293904Y-100988809D01*
X130293904Y-101226904D01*
X130246285Y-101322142D01*
X130198666Y-101369761D01*
X130103428Y-101417380D01*
X129817714Y-101417380D01*
X129722476Y-101369761D01*
X129674857Y-101322142D01*
%TO.C,R32*%
X173807380Y-85351857D02*
X173331190Y-85685190D01*
X173807380Y-85923285D02*
X172807380Y-85923285D01*
X172807380Y-85542333D01*
X172855000Y-85447095D01*
X172902619Y-85399476D01*
X172997857Y-85351857D01*
X173140714Y-85351857D01*
X173235952Y-85399476D01*
X173283571Y-85447095D01*
X173331190Y-85542333D01*
X173331190Y-85923285D01*
X172807380Y-85018523D02*
X172807380Y-84399476D01*
X173188333Y-84732809D01*
X173188333Y-84589952D01*
X173235952Y-84494714D01*
X173283571Y-84447095D01*
X173378809Y-84399476D01*
X173616904Y-84399476D01*
X173712142Y-84447095D01*
X173759761Y-84494714D01*
X173807380Y-84589952D01*
X173807380Y-84875666D01*
X173759761Y-84970904D01*
X173712142Y-85018523D01*
X172902619Y-84018523D02*
X172855000Y-83970904D01*
X172807380Y-83875666D01*
X172807380Y-83637571D01*
X172855000Y-83542333D01*
X172902619Y-83494714D01*
X172997857Y-83447095D01*
X173093095Y-83447095D01*
X173235952Y-83494714D01*
X173807380Y-84066142D01*
X173807380Y-83447095D01*
%TO.C,R31*%
X128389142Y-85542380D02*
X128055809Y-85066190D01*
X127817714Y-85542380D02*
X127817714Y-84542380D01*
X128198666Y-84542380D01*
X128293904Y-84590000D01*
X128341523Y-84637619D01*
X128389142Y-84732857D01*
X128389142Y-84875714D01*
X128341523Y-84970952D01*
X128293904Y-85018571D01*
X128198666Y-85066190D01*
X127817714Y-85066190D01*
X128722476Y-84542380D02*
X129341523Y-84542380D01*
X129008190Y-84923333D01*
X129151047Y-84923333D01*
X129246285Y-84970952D01*
X129293904Y-85018571D01*
X129341523Y-85113809D01*
X129341523Y-85351904D01*
X129293904Y-85447142D01*
X129246285Y-85494761D01*
X129151047Y-85542380D01*
X128865333Y-85542380D01*
X128770095Y-85494761D01*
X128722476Y-85447142D01*
X130293904Y-85542380D02*
X129722476Y-85542380D01*
X130008190Y-85542380D02*
X130008190Y-84542380D01*
X129912952Y-84685238D01*
X129817714Y-84780476D01*
X129722476Y-84828095D01*
%TO.C,R30*%
X177998380Y-91955857D02*
X177522190Y-92289190D01*
X177998380Y-92527285D02*
X176998380Y-92527285D01*
X176998380Y-92146333D01*
X177046000Y-92051095D01*
X177093619Y-92003476D01*
X177188857Y-91955857D01*
X177331714Y-91955857D01*
X177426952Y-92003476D01*
X177474571Y-92051095D01*
X177522190Y-92146333D01*
X177522190Y-92527285D01*
X176998380Y-91622523D02*
X176998380Y-91003476D01*
X177379333Y-91336809D01*
X177379333Y-91193952D01*
X177426952Y-91098714D01*
X177474571Y-91051095D01*
X177569809Y-91003476D01*
X177807904Y-91003476D01*
X177903142Y-91051095D01*
X177950761Y-91098714D01*
X177998380Y-91193952D01*
X177998380Y-91479666D01*
X177950761Y-91574904D01*
X177903142Y-91622523D01*
X176998380Y-90384428D02*
X176998380Y-90289190D01*
X177046000Y-90193952D01*
X177093619Y-90146333D01*
X177188857Y-90098714D01*
X177379333Y-90051095D01*
X177617428Y-90051095D01*
X177807904Y-90098714D01*
X177903142Y-90146333D01*
X177950761Y-90193952D01*
X177998380Y-90289190D01*
X177998380Y-90384428D01*
X177950761Y-90479666D01*
X177903142Y-90527285D01*
X177807904Y-90574904D01*
X177617428Y-90622523D01*
X177379333Y-90622523D01*
X177188857Y-90574904D01*
X177093619Y-90527285D01*
X177046000Y-90479666D01*
X176998380Y-90384428D01*
%TO.C,R29*%
X128389142Y-121102380D02*
X128055809Y-120626190D01*
X127817714Y-121102380D02*
X127817714Y-120102380D01*
X128198666Y-120102380D01*
X128293904Y-120150000D01*
X128341523Y-120197619D01*
X128389142Y-120292857D01*
X128389142Y-120435714D01*
X128341523Y-120530952D01*
X128293904Y-120578571D01*
X128198666Y-120626190D01*
X127817714Y-120626190D01*
X128770095Y-120197619D02*
X128817714Y-120150000D01*
X128912952Y-120102380D01*
X129151047Y-120102380D01*
X129246285Y-120150000D01*
X129293904Y-120197619D01*
X129341523Y-120292857D01*
X129341523Y-120388095D01*
X129293904Y-120530952D01*
X128722476Y-121102380D01*
X129341523Y-121102380D01*
X129817714Y-121102380D02*
X130008190Y-121102380D01*
X130103428Y-121054761D01*
X130151047Y-121007142D01*
X130246285Y-120864285D01*
X130293904Y-120673809D01*
X130293904Y-120292857D01*
X130246285Y-120197619D01*
X130198666Y-120150000D01*
X130103428Y-120102380D01*
X129912952Y-120102380D01*
X129817714Y-120150000D01*
X129770095Y-120197619D01*
X129722476Y-120292857D01*
X129722476Y-120530952D01*
X129770095Y-120626190D01*
X129817714Y-120673809D01*
X129912952Y-120721428D01*
X130103428Y-120721428D01*
X130198666Y-120673809D01*
X130246285Y-120626190D01*
X130293904Y-120530952D01*
%TO.C,R28*%
X128389142Y-119197380D02*
X128055809Y-118721190D01*
X127817714Y-119197380D02*
X127817714Y-118197380D01*
X128198666Y-118197380D01*
X128293904Y-118245000D01*
X128341523Y-118292619D01*
X128389142Y-118387857D01*
X128389142Y-118530714D01*
X128341523Y-118625952D01*
X128293904Y-118673571D01*
X128198666Y-118721190D01*
X127817714Y-118721190D01*
X128770095Y-118292619D02*
X128817714Y-118245000D01*
X128912952Y-118197380D01*
X129151047Y-118197380D01*
X129246285Y-118245000D01*
X129293904Y-118292619D01*
X129341523Y-118387857D01*
X129341523Y-118483095D01*
X129293904Y-118625952D01*
X128722476Y-119197380D01*
X129341523Y-119197380D01*
X129912952Y-118625952D02*
X129817714Y-118578333D01*
X129770095Y-118530714D01*
X129722476Y-118435476D01*
X129722476Y-118387857D01*
X129770095Y-118292619D01*
X129817714Y-118245000D01*
X129912952Y-118197380D01*
X130103428Y-118197380D01*
X130198666Y-118245000D01*
X130246285Y-118292619D01*
X130293904Y-118387857D01*
X130293904Y-118435476D01*
X130246285Y-118530714D01*
X130198666Y-118578333D01*
X130103428Y-118625952D01*
X129912952Y-118625952D01*
X129817714Y-118673571D01*
X129770095Y-118721190D01*
X129722476Y-118816428D01*
X129722476Y-119006904D01*
X129770095Y-119102142D01*
X129817714Y-119149761D01*
X129912952Y-119197380D01*
X130103428Y-119197380D01*
X130198666Y-119149761D01*
X130246285Y-119102142D01*
X130293904Y-119006904D01*
X130293904Y-118816428D01*
X130246285Y-118721190D01*
X130198666Y-118673571D01*
X130103428Y-118625952D01*
%TO.C,R27*%
X128389142Y-109037380D02*
X128055809Y-108561190D01*
X127817714Y-109037380D02*
X127817714Y-108037380D01*
X128198666Y-108037380D01*
X128293904Y-108085000D01*
X128341523Y-108132619D01*
X128389142Y-108227857D01*
X128389142Y-108370714D01*
X128341523Y-108465952D01*
X128293904Y-108513571D01*
X128198666Y-108561190D01*
X127817714Y-108561190D01*
X128770095Y-108132619D02*
X128817714Y-108085000D01*
X128912952Y-108037380D01*
X129151047Y-108037380D01*
X129246285Y-108085000D01*
X129293904Y-108132619D01*
X129341523Y-108227857D01*
X129341523Y-108323095D01*
X129293904Y-108465952D01*
X128722476Y-109037380D01*
X129341523Y-109037380D01*
X129674857Y-108037380D02*
X130341523Y-108037380D01*
X129912952Y-109037380D01*
%TO.C,R26*%
X128389142Y-93162380D02*
X128055809Y-92686190D01*
X127817714Y-93162380D02*
X127817714Y-92162380D01*
X128198666Y-92162380D01*
X128293904Y-92210000D01*
X128341523Y-92257619D01*
X128389142Y-92352857D01*
X128389142Y-92495714D01*
X128341523Y-92590952D01*
X128293904Y-92638571D01*
X128198666Y-92686190D01*
X127817714Y-92686190D01*
X128770095Y-92257619D02*
X128817714Y-92210000D01*
X128912952Y-92162380D01*
X129151047Y-92162380D01*
X129246285Y-92210000D01*
X129293904Y-92257619D01*
X129341523Y-92352857D01*
X129341523Y-92448095D01*
X129293904Y-92590952D01*
X128722476Y-93162380D01*
X129341523Y-93162380D01*
X130198666Y-92162380D02*
X130008190Y-92162380D01*
X129912952Y-92210000D01*
X129865333Y-92257619D01*
X129770095Y-92400476D01*
X129722476Y-92590952D01*
X129722476Y-92971904D01*
X129770095Y-93067142D01*
X129817714Y-93114761D01*
X129912952Y-93162380D01*
X130103428Y-93162380D01*
X130198666Y-93114761D01*
X130246285Y-93067142D01*
X130293904Y-92971904D01*
X130293904Y-92733809D01*
X130246285Y-92638571D01*
X130198666Y-92590952D01*
X130103428Y-92543333D01*
X129912952Y-92543333D01*
X129817714Y-92590952D01*
X129770095Y-92638571D01*
X129722476Y-92733809D01*
%TO.C,R25*%
X128262142Y-107132380D02*
X127928809Y-106656190D01*
X127690714Y-107132380D02*
X127690714Y-106132380D01*
X128071666Y-106132380D01*
X128166904Y-106180000D01*
X128214523Y-106227619D01*
X128262142Y-106322857D01*
X128262142Y-106465714D01*
X128214523Y-106560952D01*
X128166904Y-106608571D01*
X128071666Y-106656190D01*
X127690714Y-106656190D01*
X128643095Y-106227619D02*
X128690714Y-106180000D01*
X128785952Y-106132380D01*
X129024047Y-106132380D01*
X129119285Y-106180000D01*
X129166904Y-106227619D01*
X129214523Y-106322857D01*
X129214523Y-106418095D01*
X129166904Y-106560952D01*
X128595476Y-107132380D01*
X129214523Y-107132380D01*
X130119285Y-106132380D02*
X129643095Y-106132380D01*
X129595476Y-106608571D01*
X129643095Y-106560952D01*
X129738333Y-106513333D01*
X129976428Y-106513333D01*
X130071666Y-106560952D01*
X130119285Y-106608571D01*
X130166904Y-106703809D01*
X130166904Y-106941904D01*
X130119285Y-107037142D01*
X130071666Y-107084761D01*
X129976428Y-107132380D01*
X129738333Y-107132380D01*
X129643095Y-107084761D01*
X129595476Y-107037142D01*
%TO.C,R24*%
X128389142Y-91257380D02*
X128055809Y-90781190D01*
X127817714Y-91257380D02*
X127817714Y-90257380D01*
X128198666Y-90257380D01*
X128293904Y-90305000D01*
X128341523Y-90352619D01*
X128389142Y-90447857D01*
X128389142Y-90590714D01*
X128341523Y-90685952D01*
X128293904Y-90733571D01*
X128198666Y-90781190D01*
X127817714Y-90781190D01*
X128770095Y-90352619D02*
X128817714Y-90305000D01*
X128912952Y-90257380D01*
X129151047Y-90257380D01*
X129246285Y-90305000D01*
X129293904Y-90352619D01*
X129341523Y-90447857D01*
X129341523Y-90543095D01*
X129293904Y-90685952D01*
X128722476Y-91257380D01*
X129341523Y-91257380D01*
X130198666Y-90590714D02*
X130198666Y-91257380D01*
X129960571Y-90209761D02*
X129722476Y-90924047D01*
X130341523Y-90924047D01*
%TO.C,R23*%
X128389142Y-105227380D02*
X128055809Y-104751190D01*
X127817714Y-105227380D02*
X127817714Y-104227380D01*
X128198666Y-104227380D01*
X128293904Y-104275000D01*
X128341523Y-104322619D01*
X128389142Y-104417857D01*
X128389142Y-104560714D01*
X128341523Y-104655952D01*
X128293904Y-104703571D01*
X128198666Y-104751190D01*
X127817714Y-104751190D01*
X128770095Y-104322619D02*
X128817714Y-104275000D01*
X128912952Y-104227380D01*
X129151047Y-104227380D01*
X129246285Y-104275000D01*
X129293904Y-104322619D01*
X129341523Y-104417857D01*
X129341523Y-104513095D01*
X129293904Y-104655952D01*
X128722476Y-105227380D01*
X129341523Y-105227380D01*
X129674857Y-104227380D02*
X130293904Y-104227380D01*
X129960571Y-104608333D01*
X130103428Y-104608333D01*
X130198666Y-104655952D01*
X130246285Y-104703571D01*
X130293904Y-104798809D01*
X130293904Y-105036904D01*
X130246285Y-105132142D01*
X130198666Y-105179761D01*
X130103428Y-105227380D01*
X129817714Y-105227380D01*
X129722476Y-105179761D01*
X129674857Y-105132142D01*
%TO.C,R22*%
X166187380Y-85351857D02*
X165711190Y-85685190D01*
X166187380Y-85923285D02*
X165187380Y-85923285D01*
X165187380Y-85542333D01*
X165235000Y-85447095D01*
X165282619Y-85399476D01*
X165377857Y-85351857D01*
X165520714Y-85351857D01*
X165615952Y-85399476D01*
X165663571Y-85447095D01*
X165711190Y-85542333D01*
X165711190Y-85923285D01*
X165282619Y-84970904D02*
X165235000Y-84923285D01*
X165187380Y-84828047D01*
X165187380Y-84589952D01*
X165235000Y-84494714D01*
X165282619Y-84447095D01*
X165377857Y-84399476D01*
X165473095Y-84399476D01*
X165615952Y-84447095D01*
X166187380Y-85018523D01*
X166187380Y-84399476D01*
X165282619Y-84018523D02*
X165235000Y-83970904D01*
X165187380Y-83875666D01*
X165187380Y-83637571D01*
X165235000Y-83542333D01*
X165282619Y-83494714D01*
X165377857Y-83447095D01*
X165473095Y-83447095D01*
X165615952Y-83494714D01*
X166187380Y-84066142D01*
X166187380Y-83447095D01*
%TO.C,R21*%
X128389142Y-89352380D02*
X128055809Y-88876190D01*
X127817714Y-89352380D02*
X127817714Y-88352380D01*
X128198666Y-88352380D01*
X128293904Y-88400000D01*
X128341523Y-88447619D01*
X128389142Y-88542857D01*
X128389142Y-88685714D01*
X128341523Y-88780952D01*
X128293904Y-88828571D01*
X128198666Y-88876190D01*
X127817714Y-88876190D01*
X128770095Y-88447619D02*
X128817714Y-88400000D01*
X128912952Y-88352380D01*
X129151047Y-88352380D01*
X129246285Y-88400000D01*
X129293904Y-88447619D01*
X129341523Y-88542857D01*
X129341523Y-88638095D01*
X129293904Y-88780952D01*
X128722476Y-89352380D01*
X129341523Y-89352380D01*
X130293904Y-89352380D02*
X129722476Y-89352380D01*
X130008190Y-89352380D02*
X130008190Y-88352380D01*
X129912952Y-88495238D01*
X129817714Y-88590476D01*
X129722476Y-88638095D01*
%TO.C,R20*%
X171267380Y-85351857D02*
X170791190Y-85685190D01*
X171267380Y-85923285D02*
X170267380Y-85923285D01*
X170267380Y-85542333D01*
X170315000Y-85447095D01*
X170362619Y-85399476D01*
X170457857Y-85351857D01*
X170600714Y-85351857D01*
X170695952Y-85399476D01*
X170743571Y-85447095D01*
X170791190Y-85542333D01*
X170791190Y-85923285D01*
X170362619Y-84970904D02*
X170315000Y-84923285D01*
X170267380Y-84828047D01*
X170267380Y-84589952D01*
X170315000Y-84494714D01*
X170362619Y-84447095D01*
X170457857Y-84399476D01*
X170553095Y-84399476D01*
X170695952Y-84447095D01*
X171267380Y-85018523D01*
X171267380Y-84399476D01*
X170267380Y-83780428D02*
X170267380Y-83685190D01*
X170315000Y-83589952D01*
X170362619Y-83542333D01*
X170457857Y-83494714D01*
X170648333Y-83447095D01*
X170886428Y-83447095D01*
X171076904Y-83494714D01*
X171172142Y-83542333D01*
X171219761Y-83589952D01*
X171267380Y-83685190D01*
X171267380Y-83780428D01*
X171219761Y-83875666D01*
X171172142Y-83923285D01*
X171076904Y-83970904D01*
X170886428Y-84018523D01*
X170648333Y-84018523D01*
X170457857Y-83970904D01*
X170362619Y-83923285D01*
X170315000Y-83875666D01*
X170267380Y-83780428D01*
%TO.C,R19*%
X147058142Y-113507780D02*
X146724809Y-113031590D01*
X146486714Y-113507780D02*
X146486714Y-112507780D01*
X146867666Y-112507780D01*
X146962904Y-112555400D01*
X147010523Y-112603019D01*
X147058142Y-112698257D01*
X147058142Y-112841114D01*
X147010523Y-112936352D01*
X146962904Y-112983971D01*
X146867666Y-113031590D01*
X146486714Y-113031590D01*
X148010523Y-113507780D02*
X147439095Y-113507780D01*
X147724809Y-113507780D02*
X147724809Y-112507780D01*
X147629571Y-112650638D01*
X147534333Y-112745876D01*
X147439095Y-112793495D01*
X148486714Y-113507780D02*
X148677190Y-113507780D01*
X148772428Y-113460161D01*
X148820047Y-113412542D01*
X148915285Y-113269685D01*
X148962904Y-113079209D01*
X148962904Y-112698257D01*
X148915285Y-112603019D01*
X148867666Y-112555400D01*
X148772428Y-112507780D01*
X148581952Y-112507780D01*
X148486714Y-112555400D01*
X148439095Y-112603019D01*
X148391476Y-112698257D01*
X148391476Y-112936352D01*
X148439095Y-113031590D01*
X148486714Y-113079209D01*
X148581952Y-113126828D01*
X148772428Y-113126828D01*
X148867666Y-113079209D01*
X148915285Y-113031590D01*
X148962904Y-112936352D01*
%TO.C,R18*%
X147058142Y-115387380D02*
X146724809Y-114911190D01*
X146486714Y-115387380D02*
X146486714Y-114387380D01*
X146867666Y-114387380D01*
X146962904Y-114435000D01*
X147010523Y-114482619D01*
X147058142Y-114577857D01*
X147058142Y-114720714D01*
X147010523Y-114815952D01*
X146962904Y-114863571D01*
X146867666Y-114911190D01*
X146486714Y-114911190D01*
X148010523Y-115387380D02*
X147439095Y-115387380D01*
X147724809Y-115387380D02*
X147724809Y-114387380D01*
X147629571Y-114530238D01*
X147534333Y-114625476D01*
X147439095Y-114673095D01*
X148581952Y-114815952D02*
X148486714Y-114768333D01*
X148439095Y-114720714D01*
X148391476Y-114625476D01*
X148391476Y-114577857D01*
X148439095Y-114482619D01*
X148486714Y-114435000D01*
X148581952Y-114387380D01*
X148772428Y-114387380D01*
X148867666Y-114435000D01*
X148915285Y-114482619D01*
X148962904Y-114577857D01*
X148962904Y-114625476D01*
X148915285Y-114720714D01*
X148867666Y-114768333D01*
X148772428Y-114815952D01*
X148581952Y-114815952D01*
X148486714Y-114863571D01*
X148439095Y-114911190D01*
X148391476Y-115006428D01*
X148391476Y-115196904D01*
X148439095Y-115292142D01*
X148486714Y-115339761D01*
X148581952Y-115387380D01*
X148772428Y-115387380D01*
X148867666Y-115339761D01*
X148915285Y-115292142D01*
X148962904Y-115196904D01*
X148962904Y-115006428D01*
X148915285Y-114911190D01*
X148867666Y-114863571D01*
X148772428Y-114815952D01*
%TO.C,R17*%
X147185142Y-97607380D02*
X146851809Y-97131190D01*
X146613714Y-97607380D02*
X146613714Y-96607380D01*
X146994666Y-96607380D01*
X147089904Y-96655000D01*
X147137523Y-96702619D01*
X147185142Y-96797857D01*
X147185142Y-96940714D01*
X147137523Y-97035952D01*
X147089904Y-97083571D01*
X146994666Y-97131190D01*
X146613714Y-97131190D01*
X148137523Y-97607380D02*
X147566095Y-97607380D01*
X147851809Y-97607380D02*
X147851809Y-96607380D01*
X147756571Y-96750238D01*
X147661333Y-96845476D01*
X147566095Y-96893095D01*
X148470857Y-96607380D02*
X149137523Y-96607380D01*
X148708952Y-97607380D01*
%TO.C,R16*%
X147312142Y-81732380D02*
X146978809Y-81256190D01*
X146740714Y-81732380D02*
X146740714Y-80732380D01*
X147121666Y-80732380D01*
X147216904Y-80780000D01*
X147264523Y-80827619D01*
X147312142Y-80922857D01*
X147312142Y-81065714D01*
X147264523Y-81160952D01*
X147216904Y-81208571D01*
X147121666Y-81256190D01*
X146740714Y-81256190D01*
X148264523Y-81732380D02*
X147693095Y-81732380D01*
X147978809Y-81732380D02*
X147978809Y-80732380D01*
X147883571Y-80875238D01*
X147788333Y-80970476D01*
X147693095Y-81018095D01*
X149121666Y-80732380D02*
X148931190Y-80732380D01*
X148835952Y-80780000D01*
X148788333Y-80827619D01*
X148693095Y-80970476D01*
X148645476Y-81160952D01*
X148645476Y-81541904D01*
X148693095Y-81637142D01*
X148740714Y-81684761D01*
X148835952Y-81732380D01*
X149026428Y-81732380D01*
X149121666Y-81684761D01*
X149169285Y-81637142D01*
X149216904Y-81541904D01*
X149216904Y-81303809D01*
X149169285Y-81208571D01*
X149121666Y-81160952D01*
X149026428Y-81113333D01*
X148835952Y-81113333D01*
X148740714Y-81160952D01*
X148693095Y-81208571D01*
X148645476Y-81303809D01*
%TO.C,R15*%
X147185142Y-99512380D02*
X146851809Y-99036190D01*
X146613714Y-99512380D02*
X146613714Y-98512380D01*
X146994666Y-98512380D01*
X147089904Y-98560000D01*
X147137523Y-98607619D01*
X147185142Y-98702857D01*
X147185142Y-98845714D01*
X147137523Y-98940952D01*
X147089904Y-98988571D01*
X146994666Y-99036190D01*
X146613714Y-99036190D01*
X148137523Y-99512380D02*
X147566095Y-99512380D01*
X147851809Y-99512380D02*
X147851809Y-98512380D01*
X147756571Y-98655238D01*
X147661333Y-98750476D01*
X147566095Y-98798095D01*
X149042285Y-98512380D02*
X148566095Y-98512380D01*
X148518476Y-98988571D01*
X148566095Y-98940952D01*
X148661333Y-98893333D01*
X148899428Y-98893333D01*
X148994666Y-98940952D01*
X149042285Y-98988571D01*
X149089904Y-99083809D01*
X149089904Y-99321904D01*
X149042285Y-99417142D01*
X148994666Y-99464761D01*
X148899428Y-99512380D01*
X148661333Y-99512380D01*
X148566095Y-99464761D01*
X148518476Y-99417142D01*
%TO.C,R14*%
X147312142Y-83637380D02*
X146978809Y-83161190D01*
X146740714Y-83637380D02*
X146740714Y-82637380D01*
X147121666Y-82637380D01*
X147216904Y-82685000D01*
X147264523Y-82732619D01*
X147312142Y-82827857D01*
X147312142Y-82970714D01*
X147264523Y-83065952D01*
X147216904Y-83113571D01*
X147121666Y-83161190D01*
X146740714Y-83161190D01*
X148264523Y-83637380D02*
X147693095Y-83637380D01*
X147978809Y-83637380D02*
X147978809Y-82637380D01*
X147883571Y-82780238D01*
X147788333Y-82875476D01*
X147693095Y-82923095D01*
X149121666Y-82970714D02*
X149121666Y-83637380D01*
X148883571Y-82589761D02*
X148645476Y-83304047D01*
X149264523Y-83304047D01*
%TO.C,R13*%
X147185142Y-101417380D02*
X146851809Y-100941190D01*
X146613714Y-101417380D02*
X146613714Y-100417380D01*
X146994666Y-100417380D01*
X147089904Y-100465000D01*
X147137523Y-100512619D01*
X147185142Y-100607857D01*
X147185142Y-100750714D01*
X147137523Y-100845952D01*
X147089904Y-100893571D01*
X146994666Y-100941190D01*
X146613714Y-100941190D01*
X148137523Y-101417380D02*
X147566095Y-101417380D01*
X147851809Y-101417380D02*
X147851809Y-100417380D01*
X147756571Y-100560238D01*
X147661333Y-100655476D01*
X147566095Y-100703095D01*
X148470857Y-100417380D02*
X149089904Y-100417380D01*
X148756571Y-100798333D01*
X148899428Y-100798333D01*
X148994666Y-100845952D01*
X149042285Y-100893571D01*
X149089904Y-100988809D01*
X149089904Y-101226904D01*
X149042285Y-101322142D01*
X148994666Y-101369761D01*
X148899428Y-101417380D01*
X148613714Y-101417380D01*
X148518476Y-101369761D01*
X148470857Y-101322142D01*
%TO.C,R12*%
X166187380Y-95003857D02*
X165711190Y-95337190D01*
X166187380Y-95575285D02*
X165187380Y-95575285D01*
X165187380Y-95194333D01*
X165235000Y-95099095D01*
X165282619Y-95051476D01*
X165377857Y-95003857D01*
X165520714Y-95003857D01*
X165615952Y-95051476D01*
X165663571Y-95099095D01*
X165711190Y-95194333D01*
X165711190Y-95575285D01*
X166187380Y-94051476D02*
X166187380Y-94622904D01*
X166187380Y-94337190D02*
X165187380Y-94337190D01*
X165330238Y-94432428D01*
X165425476Y-94527666D01*
X165473095Y-94622904D01*
X165282619Y-93670523D02*
X165235000Y-93622904D01*
X165187380Y-93527666D01*
X165187380Y-93289571D01*
X165235000Y-93194333D01*
X165282619Y-93146714D01*
X165377857Y-93099095D01*
X165473095Y-93099095D01*
X165615952Y-93146714D01*
X166187380Y-93718142D01*
X166187380Y-93099095D01*
%TO.C,R11*%
X147312142Y-85542380D02*
X146978809Y-85066190D01*
X146740714Y-85542380D02*
X146740714Y-84542380D01*
X147121666Y-84542380D01*
X147216904Y-84590000D01*
X147264523Y-84637619D01*
X147312142Y-84732857D01*
X147312142Y-84875714D01*
X147264523Y-84970952D01*
X147216904Y-85018571D01*
X147121666Y-85066190D01*
X146740714Y-85066190D01*
X148264523Y-85542380D02*
X147693095Y-85542380D01*
X147978809Y-85542380D02*
X147978809Y-84542380D01*
X147883571Y-84685238D01*
X147788333Y-84780476D01*
X147693095Y-84828095D01*
X149216904Y-85542380D02*
X148645476Y-85542380D01*
X148931190Y-85542380D02*
X148931190Y-84542380D01*
X148835952Y-84685238D01*
X148740714Y-84780476D01*
X148645476Y-84828095D01*
%TO.C,R10*%
X161107380Y-85351857D02*
X160631190Y-85685190D01*
X161107380Y-85923285D02*
X160107380Y-85923285D01*
X160107380Y-85542333D01*
X160155000Y-85447095D01*
X160202619Y-85399476D01*
X160297857Y-85351857D01*
X160440714Y-85351857D01*
X160535952Y-85399476D01*
X160583571Y-85447095D01*
X160631190Y-85542333D01*
X160631190Y-85923285D01*
X161107380Y-84399476D02*
X161107380Y-84970904D01*
X161107380Y-84685190D02*
X160107380Y-84685190D01*
X160250238Y-84780428D01*
X160345476Y-84875666D01*
X160393095Y-84970904D01*
X160107380Y-83780428D02*
X160107380Y-83685190D01*
X160155000Y-83589952D01*
X160202619Y-83542333D01*
X160297857Y-83494714D01*
X160488333Y-83447095D01*
X160726428Y-83447095D01*
X160916904Y-83494714D01*
X161012142Y-83542333D01*
X161059761Y-83589952D01*
X161107380Y-83685190D01*
X161107380Y-83780428D01*
X161059761Y-83875666D01*
X161012142Y-83923285D01*
X160916904Y-83970904D01*
X160726428Y-84018523D01*
X160488333Y-84018523D01*
X160297857Y-83970904D01*
X160202619Y-83923285D01*
X160155000Y-83875666D01*
X160107380Y-83780428D01*
%TO.C,R9*%
X161758333Y-105862380D02*
X161425000Y-105386190D01*
X161186904Y-105862380D02*
X161186904Y-104862380D01*
X161567857Y-104862380D01*
X161663095Y-104910000D01*
X161710714Y-104957619D01*
X161758333Y-105052857D01*
X161758333Y-105195714D01*
X161710714Y-105290952D01*
X161663095Y-105338571D01*
X161567857Y-105386190D01*
X161186904Y-105386190D01*
X162234523Y-105862380D02*
X162425000Y-105862380D01*
X162520238Y-105814761D01*
X162567857Y-105767142D01*
X162663095Y-105624285D01*
X162710714Y-105433809D01*
X162710714Y-105052857D01*
X162663095Y-104957619D01*
X162615476Y-104910000D01*
X162520238Y-104862380D01*
X162329761Y-104862380D01*
X162234523Y-104910000D01*
X162186904Y-104957619D01*
X162139285Y-105052857D01*
X162139285Y-105290952D01*
X162186904Y-105386190D01*
X162234523Y-105433809D01*
X162329761Y-105481428D01*
X162520238Y-105481428D01*
X162615476Y-105433809D01*
X162663095Y-105386190D01*
X162710714Y-105290952D01*
%TO.C,R8*%
X161758333Y-103957380D02*
X161425000Y-103481190D01*
X161186904Y-103957380D02*
X161186904Y-102957380D01*
X161567857Y-102957380D01*
X161663095Y-103005000D01*
X161710714Y-103052619D01*
X161758333Y-103147857D01*
X161758333Y-103290714D01*
X161710714Y-103385952D01*
X161663095Y-103433571D01*
X161567857Y-103481190D01*
X161186904Y-103481190D01*
X162329761Y-103385952D02*
X162234523Y-103338333D01*
X162186904Y-103290714D01*
X162139285Y-103195476D01*
X162139285Y-103147857D01*
X162186904Y-103052619D01*
X162234523Y-103005000D01*
X162329761Y-102957380D01*
X162520238Y-102957380D01*
X162615476Y-103005000D01*
X162663095Y-103052619D01*
X162710714Y-103147857D01*
X162710714Y-103195476D01*
X162663095Y-103290714D01*
X162615476Y-103338333D01*
X162520238Y-103385952D01*
X162329761Y-103385952D01*
X162234523Y-103433571D01*
X162186904Y-103481190D01*
X162139285Y-103576428D01*
X162139285Y-103766904D01*
X162186904Y-103862142D01*
X162234523Y-103909761D01*
X162329761Y-103957380D01*
X162520238Y-103957380D01*
X162615476Y-103909761D01*
X162663095Y-103862142D01*
X162710714Y-103766904D01*
X162710714Y-103576428D01*
X162663095Y-103481190D01*
X162615476Y-103433571D01*
X162520238Y-103385952D01*
%TO.C,R7*%
X161758333Y-107767380D02*
X161425000Y-107291190D01*
X161186904Y-107767380D02*
X161186904Y-106767380D01*
X161567857Y-106767380D01*
X161663095Y-106815000D01*
X161710714Y-106862619D01*
X161758333Y-106957857D01*
X161758333Y-107100714D01*
X161710714Y-107195952D01*
X161663095Y-107243571D01*
X161567857Y-107291190D01*
X161186904Y-107291190D01*
X162091666Y-106767380D02*
X162758333Y-106767380D01*
X162329761Y-107767380D01*
%TO.C,R6*%
X161758333Y-98242380D02*
X161425000Y-97766190D01*
X161186904Y-98242380D02*
X161186904Y-97242380D01*
X161567857Y-97242380D01*
X161663095Y-97290000D01*
X161710714Y-97337619D01*
X161758333Y-97432857D01*
X161758333Y-97575714D01*
X161710714Y-97670952D01*
X161663095Y-97718571D01*
X161567857Y-97766190D01*
X161186904Y-97766190D01*
X162615476Y-97242380D02*
X162425000Y-97242380D01*
X162329761Y-97290000D01*
X162282142Y-97337619D01*
X162186904Y-97480476D01*
X162139285Y-97670952D01*
X162139285Y-98051904D01*
X162186904Y-98147142D01*
X162234523Y-98194761D01*
X162329761Y-98242380D01*
X162520238Y-98242380D01*
X162615476Y-98194761D01*
X162663095Y-98147142D01*
X162710714Y-98051904D01*
X162710714Y-97813809D01*
X162663095Y-97718571D01*
X162615476Y-97670952D01*
X162520238Y-97623333D01*
X162329761Y-97623333D01*
X162234523Y-97670952D01*
X162186904Y-97718571D01*
X162139285Y-97813809D01*
%TO.C,R5*%
X168727380Y-85383666D02*
X168251190Y-85717000D01*
X168727380Y-85955095D02*
X167727380Y-85955095D01*
X167727380Y-85574142D01*
X167775000Y-85478904D01*
X167822619Y-85431285D01*
X167917857Y-85383666D01*
X168060714Y-85383666D01*
X168155952Y-85431285D01*
X168203571Y-85478904D01*
X168251190Y-85574142D01*
X168251190Y-85955095D01*
X167727380Y-84478904D02*
X167727380Y-84955095D01*
X168203571Y-85002714D01*
X168155952Y-84955095D01*
X168108333Y-84859857D01*
X168108333Y-84621761D01*
X168155952Y-84526523D01*
X168203571Y-84478904D01*
X168298809Y-84431285D01*
X168536904Y-84431285D01*
X168632142Y-84478904D01*
X168679761Y-84526523D01*
X168727380Y-84621761D01*
X168727380Y-84859857D01*
X168679761Y-84955095D01*
X168632142Y-85002714D01*
%TO.C,R4*%
X163647380Y-85383666D02*
X163171190Y-85717000D01*
X163647380Y-85955095D02*
X162647380Y-85955095D01*
X162647380Y-85574142D01*
X162695000Y-85478904D01*
X162742619Y-85431285D01*
X162837857Y-85383666D01*
X162980714Y-85383666D01*
X163075952Y-85431285D01*
X163123571Y-85478904D01*
X163171190Y-85574142D01*
X163171190Y-85955095D01*
X162980714Y-84526523D02*
X163647380Y-84526523D01*
X162599761Y-84764619D02*
X163314047Y-85002714D01*
X163314047Y-84383666D01*
%TO.C,R3*%
X168854880Y-95035666D02*
X168378690Y-95369000D01*
X168854880Y-95607095D02*
X167854880Y-95607095D01*
X167854880Y-95226142D01*
X167902500Y-95130904D01*
X167950119Y-95083285D01*
X168045357Y-95035666D01*
X168188214Y-95035666D01*
X168283452Y-95083285D01*
X168331071Y-95130904D01*
X168378690Y-95226142D01*
X168378690Y-95607095D01*
X167854880Y-94702333D02*
X167854880Y-94083285D01*
X168235833Y-94416619D01*
X168235833Y-94273761D01*
X168283452Y-94178523D01*
X168331071Y-94130904D01*
X168426309Y-94083285D01*
X168664404Y-94083285D01*
X168759642Y-94130904D01*
X168807261Y-94178523D01*
X168854880Y-94273761D01*
X168854880Y-94559476D01*
X168807261Y-94654714D01*
X168759642Y-94702333D01*
%TO.C,R2*%
X176347380Y-85383666D02*
X175871190Y-85717000D01*
X176347380Y-85955095D02*
X175347380Y-85955095D01*
X175347380Y-85574142D01*
X175395000Y-85478904D01*
X175442619Y-85431285D01*
X175537857Y-85383666D01*
X175680714Y-85383666D01*
X175775952Y-85431285D01*
X175823571Y-85478904D01*
X175871190Y-85574142D01*
X175871190Y-85955095D01*
X175442619Y-85002714D02*
X175395000Y-84955095D01*
X175347380Y-84859857D01*
X175347380Y-84621761D01*
X175395000Y-84526523D01*
X175442619Y-84478904D01*
X175537857Y-84431285D01*
X175633095Y-84431285D01*
X175775952Y-84478904D01*
X176347380Y-85050333D01*
X176347380Y-84431285D01*
%TO.C,R1*%
X173807380Y-93892666D02*
X173331190Y-94226000D01*
X173807380Y-94464095D02*
X172807380Y-94464095D01*
X172807380Y-94083142D01*
X172855000Y-93987904D01*
X172902619Y-93940285D01*
X172997857Y-93892666D01*
X173140714Y-93892666D01*
X173235952Y-93940285D01*
X173283571Y-93987904D01*
X173331190Y-94083142D01*
X173331190Y-94464095D01*
X173807380Y-92940285D02*
X173807380Y-93511714D01*
X173807380Y-93226000D02*
X172807380Y-93226000D01*
X172950238Y-93321238D01*
X173045476Y-93416476D01*
X173093095Y-93511714D01*
%TO.C,Q1*%
X168052761Y-93638619D02*
X167957523Y-93591000D01*
X167862285Y-93495761D01*
X167719428Y-93352904D01*
X167624190Y-93305285D01*
X167528952Y-93305285D01*
X167576571Y-93543380D02*
X167481333Y-93495761D01*
X167386095Y-93400523D01*
X167338476Y-93210047D01*
X167338476Y-92876714D01*
X167386095Y-92686238D01*
X167481333Y-92591000D01*
X167576571Y-92543380D01*
X167767047Y-92543380D01*
X167862285Y-92591000D01*
X167957523Y-92686238D01*
X168005142Y-92876714D01*
X168005142Y-93210047D01*
X167957523Y-93400523D01*
X167862285Y-93495761D01*
X167767047Y-93543380D01*
X167576571Y-93543380D01*
X168957523Y-93543380D02*
X168386095Y-93543380D01*
X168671809Y-93543380D02*
X168671809Y-92543380D01*
X168576571Y-92686238D01*
X168481333Y-92781476D01*
X168386095Y-92829095D01*
%TO.C,C9*%
X161758333Y-100052142D02*
X161710714Y-100099761D01*
X161567857Y-100147380D01*
X161472619Y-100147380D01*
X161329761Y-100099761D01*
X161234523Y-100004523D01*
X161186904Y-99909285D01*
X161139285Y-99718809D01*
X161139285Y-99575952D01*
X161186904Y-99385476D01*
X161234523Y-99290238D01*
X161329761Y-99195000D01*
X161472619Y-99147380D01*
X161567857Y-99147380D01*
X161710714Y-99195000D01*
X161758333Y-99242619D01*
X162234523Y-100147380D02*
X162425000Y-100147380D01*
X162520238Y-100099761D01*
X162567857Y-100052142D01*
X162663095Y-99909285D01*
X162710714Y-99718809D01*
X162710714Y-99337857D01*
X162663095Y-99242619D01*
X162615476Y-99195000D01*
X162520238Y-99147380D01*
X162329761Y-99147380D01*
X162234523Y-99195000D01*
X162186904Y-99242619D01*
X162139285Y-99337857D01*
X162139285Y-99575952D01*
X162186904Y-99671190D01*
X162234523Y-99718809D01*
X162329761Y-99766428D01*
X162520238Y-99766428D01*
X162615476Y-99718809D01*
X162663095Y-99671190D01*
X162710714Y-99575952D01*
%TO.C,C8*%
X175855333Y-121007142D02*
X175807714Y-121054761D01*
X175664857Y-121102380D01*
X175569619Y-121102380D01*
X175426761Y-121054761D01*
X175331523Y-120959523D01*
X175283904Y-120864285D01*
X175236285Y-120673809D01*
X175236285Y-120530952D01*
X175283904Y-120340476D01*
X175331523Y-120245238D01*
X175426761Y-120150000D01*
X175569619Y-120102380D01*
X175664857Y-120102380D01*
X175807714Y-120150000D01*
X175855333Y-120197619D01*
X176426761Y-120530952D02*
X176331523Y-120483333D01*
X176283904Y-120435714D01*
X176236285Y-120340476D01*
X176236285Y-120292857D01*
X176283904Y-120197619D01*
X176331523Y-120150000D01*
X176426761Y-120102380D01*
X176617238Y-120102380D01*
X176712476Y-120150000D01*
X176760095Y-120197619D01*
X176807714Y-120292857D01*
X176807714Y-120340476D01*
X176760095Y-120435714D01*
X176712476Y-120483333D01*
X176617238Y-120530952D01*
X176426761Y-120530952D01*
X176331523Y-120578571D01*
X176283904Y-120626190D01*
X176236285Y-120721428D01*
X176236285Y-120911904D01*
X176283904Y-121007142D01*
X176331523Y-121054761D01*
X176426761Y-121102380D01*
X176617238Y-121102380D01*
X176712476Y-121054761D01*
X176760095Y-121007142D01*
X176807714Y-120911904D01*
X176807714Y-120721428D01*
X176760095Y-120626190D01*
X176712476Y-120578571D01*
X176617238Y-120530952D01*
%TO.C,C7*%
X161758333Y-109577142D02*
X161710714Y-109624761D01*
X161567857Y-109672380D01*
X161472619Y-109672380D01*
X161329761Y-109624761D01*
X161234523Y-109529523D01*
X161186904Y-109434285D01*
X161139285Y-109243809D01*
X161139285Y-109100952D01*
X161186904Y-108910476D01*
X161234523Y-108815238D01*
X161329761Y-108720000D01*
X161472619Y-108672380D01*
X161567857Y-108672380D01*
X161710714Y-108720000D01*
X161758333Y-108767619D01*
X162091666Y-108672380D02*
X162758333Y-108672380D01*
X162329761Y-109672380D01*
%TO.C,C5*%
X129373333Y-117197142D02*
X129325714Y-117244761D01*
X129182857Y-117292380D01*
X129087619Y-117292380D01*
X128944761Y-117244761D01*
X128849523Y-117149523D01*
X128801904Y-117054285D01*
X128754285Y-116863809D01*
X128754285Y-116720952D01*
X128801904Y-116530476D01*
X128849523Y-116435238D01*
X128944761Y-116340000D01*
X129087619Y-116292380D01*
X129182857Y-116292380D01*
X129325714Y-116340000D01*
X129373333Y-116387619D01*
X130278095Y-116292380D02*
X129801904Y-116292380D01*
X129754285Y-116768571D01*
X129801904Y-116720952D01*
X129897142Y-116673333D01*
X130135238Y-116673333D01*
X130230476Y-116720952D01*
X130278095Y-116768571D01*
X130325714Y-116863809D01*
X130325714Y-117101904D01*
X130278095Y-117197142D01*
X130230476Y-117244761D01*
X130135238Y-117292380D01*
X129897142Y-117292380D01*
X129801904Y-117244761D01*
X129754285Y-117197142D01*
%TO.C,C4*%
X147153333Y-103227142D02*
X147105714Y-103274761D01*
X146962857Y-103322380D01*
X146867619Y-103322380D01*
X146724761Y-103274761D01*
X146629523Y-103179523D01*
X146581904Y-103084285D01*
X146534285Y-102893809D01*
X146534285Y-102750952D01*
X146581904Y-102560476D01*
X146629523Y-102465238D01*
X146724761Y-102370000D01*
X146867619Y-102322380D01*
X146962857Y-102322380D01*
X147105714Y-102370000D01*
X147153333Y-102417619D01*
X148010476Y-102655714D02*
X148010476Y-103322380D01*
X147772380Y-102274761D02*
X147534285Y-102989047D01*
X148153333Y-102989047D01*
%TO.C,C3*%
X129373333Y-103227142D02*
X129325714Y-103274761D01*
X129182857Y-103322380D01*
X129087619Y-103322380D01*
X128944761Y-103274761D01*
X128849523Y-103179523D01*
X128801904Y-103084285D01*
X128754285Y-102893809D01*
X128754285Y-102750952D01*
X128801904Y-102560476D01*
X128849523Y-102465238D01*
X128944761Y-102370000D01*
X129087619Y-102322380D01*
X129182857Y-102322380D01*
X129325714Y-102370000D01*
X129373333Y-102417619D01*
X129706666Y-102322380D02*
X130325714Y-102322380D01*
X129992380Y-102703333D01*
X130135238Y-102703333D01*
X130230476Y-102750952D01*
X130278095Y-102798571D01*
X130325714Y-102893809D01*
X130325714Y-103131904D01*
X130278095Y-103227142D01*
X130230476Y-103274761D01*
X130135238Y-103322380D01*
X129849523Y-103322380D01*
X129754285Y-103274761D01*
X129706666Y-103227142D01*
%TO.C,C2*%
X147280333Y-87352142D02*
X147232714Y-87399761D01*
X147089857Y-87447380D01*
X146994619Y-87447380D01*
X146851761Y-87399761D01*
X146756523Y-87304523D01*
X146708904Y-87209285D01*
X146661285Y-87018809D01*
X146661285Y-86875952D01*
X146708904Y-86685476D01*
X146756523Y-86590238D01*
X146851761Y-86495000D01*
X146994619Y-86447380D01*
X147089857Y-86447380D01*
X147232714Y-86495000D01*
X147280333Y-86542619D01*
X147661285Y-86542619D02*
X147708904Y-86495000D01*
X147804142Y-86447380D01*
X148042238Y-86447380D01*
X148137476Y-86495000D01*
X148185095Y-86542619D01*
X148232714Y-86637857D01*
X148232714Y-86733095D01*
X148185095Y-86875952D01*
X147613666Y-87447380D01*
X148232714Y-87447380D01*
%TO.C,C1*%
X129373333Y-87352142D02*
X129325714Y-87399761D01*
X129182857Y-87447380D01*
X129087619Y-87447380D01*
X128944761Y-87399761D01*
X128849523Y-87304523D01*
X128801904Y-87209285D01*
X128754285Y-87018809D01*
X128754285Y-86875952D01*
X128801904Y-86685476D01*
X128849523Y-86590238D01*
X128944761Y-86495000D01*
X129087619Y-86447380D01*
X129182857Y-86447380D01*
X129325714Y-86495000D01*
X129373333Y-86542619D01*
X130325714Y-87447380D02*
X129754285Y-87447380D01*
X130040000Y-87447380D02*
X130040000Y-86447380D01*
X129944761Y-86590238D01*
X129849523Y-86685476D01*
X129754285Y-86733095D01*
%TO.C,R50*%
X160901142Y-102052380D02*
X160567809Y-101576190D01*
X160329714Y-102052380D02*
X160329714Y-101052380D01*
X160710666Y-101052380D01*
X160805904Y-101100000D01*
X160853523Y-101147619D01*
X160901142Y-101242857D01*
X160901142Y-101385714D01*
X160853523Y-101480952D01*
X160805904Y-101528571D01*
X160710666Y-101576190D01*
X160329714Y-101576190D01*
X161805904Y-101052380D02*
X161329714Y-101052380D01*
X161282095Y-101528571D01*
X161329714Y-101480952D01*
X161424952Y-101433333D01*
X161663047Y-101433333D01*
X161758285Y-101480952D01*
X161805904Y-101528571D01*
X161853523Y-101623809D01*
X161853523Y-101861904D01*
X161805904Y-101957142D01*
X161758285Y-102004761D01*
X161663047Y-102052380D01*
X161424952Y-102052380D01*
X161329714Y-102004761D01*
X161282095Y-101957142D01*
X162472571Y-101052380D02*
X162567809Y-101052380D01*
X162663047Y-101100000D01*
X162710666Y-101147619D01*
X162758285Y-101242857D01*
X162805904Y-101433333D01*
X162805904Y-101671428D01*
X162758285Y-101861904D01*
X162710666Y-101957142D01*
X162663047Y-102004761D01*
X162567809Y-102052380D01*
X162472571Y-102052380D01*
X162377333Y-102004761D01*
X162329714Y-101957142D01*
X162282095Y-101861904D01*
X162234476Y-101671428D01*
X162234476Y-101433333D01*
X162282095Y-101242857D01*
X162329714Y-101147619D01*
X162377333Y-101100000D01*
X162472571Y-101052380D01*
%TO.C,R51*%
X157218142Y-113482380D02*
X156884809Y-113006190D01*
X156646714Y-113482380D02*
X156646714Y-112482380D01*
X157027666Y-112482380D01*
X157122904Y-112530000D01*
X157170523Y-112577619D01*
X157218142Y-112672857D01*
X157218142Y-112815714D01*
X157170523Y-112910952D01*
X157122904Y-112958571D01*
X157027666Y-113006190D01*
X156646714Y-113006190D01*
X158122904Y-112482380D02*
X157646714Y-112482380D01*
X157599095Y-112958571D01*
X157646714Y-112910952D01*
X157741952Y-112863333D01*
X157980047Y-112863333D01*
X158075285Y-112910952D01*
X158122904Y-112958571D01*
X158170523Y-113053809D01*
X158170523Y-113291904D01*
X158122904Y-113387142D01*
X158075285Y-113434761D01*
X157980047Y-113482380D01*
X157741952Y-113482380D01*
X157646714Y-113434761D01*
X157599095Y-113387142D01*
X159122904Y-113482380D02*
X158551476Y-113482380D01*
X158837190Y-113482380D02*
X158837190Y-112482380D01*
X158741952Y-112625238D01*
X158646714Y-112720476D01*
X158551476Y-112768095D01*
%TO.C,R52*%
X160774142Y-111577380D02*
X160440809Y-111101190D01*
X160202714Y-111577380D02*
X160202714Y-110577380D01*
X160583666Y-110577380D01*
X160678904Y-110625000D01*
X160726523Y-110672619D01*
X160774142Y-110767857D01*
X160774142Y-110910714D01*
X160726523Y-111005952D01*
X160678904Y-111053571D01*
X160583666Y-111101190D01*
X160202714Y-111101190D01*
X161678904Y-110577380D02*
X161202714Y-110577380D01*
X161155095Y-111053571D01*
X161202714Y-111005952D01*
X161297952Y-110958333D01*
X161536047Y-110958333D01*
X161631285Y-111005952D01*
X161678904Y-111053571D01*
X161726523Y-111148809D01*
X161726523Y-111386904D01*
X161678904Y-111482142D01*
X161631285Y-111529761D01*
X161536047Y-111577380D01*
X161297952Y-111577380D01*
X161202714Y-111529761D01*
X161155095Y-111482142D01*
X162107476Y-110672619D02*
X162155095Y-110625000D01*
X162250333Y-110577380D01*
X162488428Y-110577380D01*
X162583666Y-110625000D01*
X162631285Y-110672619D01*
X162678904Y-110767857D01*
X162678904Y-110863095D01*
X162631285Y-111005952D01*
X162059857Y-111577380D01*
X162678904Y-111577380D01*
%TO.C,R53*%
X163822142Y-115006380D02*
X163488809Y-114530190D01*
X163250714Y-115006380D02*
X163250714Y-114006380D01*
X163631666Y-114006380D01*
X163726904Y-114054000D01*
X163774523Y-114101619D01*
X163822142Y-114196857D01*
X163822142Y-114339714D01*
X163774523Y-114434952D01*
X163726904Y-114482571D01*
X163631666Y-114530190D01*
X163250714Y-114530190D01*
X164726904Y-114006380D02*
X164250714Y-114006380D01*
X164203095Y-114482571D01*
X164250714Y-114434952D01*
X164345952Y-114387333D01*
X164584047Y-114387333D01*
X164679285Y-114434952D01*
X164726904Y-114482571D01*
X164774523Y-114577809D01*
X164774523Y-114815904D01*
X164726904Y-114911142D01*
X164679285Y-114958761D01*
X164584047Y-115006380D01*
X164345952Y-115006380D01*
X164250714Y-114958761D01*
X164203095Y-114911142D01*
X165107857Y-114006380D02*
X165726904Y-114006380D01*
X165393571Y-114387333D01*
X165536428Y-114387333D01*
X165631666Y-114434952D01*
X165679285Y-114482571D01*
X165726904Y-114577809D01*
X165726904Y-114815904D01*
X165679285Y-114911142D01*
X165631666Y-114958761D01*
X165536428Y-115006380D01*
X165250714Y-115006380D01*
X165155476Y-114958761D01*
X165107857Y-114911142D01*
%TO.C,U4*%
X170053095Y-103392380D02*
X170053095Y-104201904D01*
X170100714Y-104297142D01*
X170148333Y-104344761D01*
X170243571Y-104392380D01*
X170434047Y-104392380D01*
X170529285Y-104344761D01*
X170576904Y-104297142D01*
X170624523Y-104201904D01*
X170624523Y-103392380D01*
X171529285Y-103725714D02*
X171529285Y-104392380D01*
X171291190Y-103344761D02*
X171053095Y-104059047D01*
X171672142Y-104059047D01*
%TO.C,U5*%
X172974095Y-95372380D02*
X172974095Y-96181904D01*
X173021714Y-96277142D01*
X173069333Y-96324761D01*
X173164571Y-96372380D01*
X173355047Y-96372380D01*
X173450285Y-96324761D01*
X173497904Y-96277142D01*
X173545523Y-96181904D01*
X173545523Y-95372380D01*
X174497904Y-95372380D02*
X174021714Y-95372380D01*
X173974095Y-95848571D01*
X174021714Y-95800952D01*
X174116952Y-95753333D01*
X174355047Y-95753333D01*
X174450285Y-95800952D01*
X174497904Y-95848571D01*
X174545523Y-95943809D01*
X174545523Y-96181904D01*
X174497904Y-96277142D01*
X174450285Y-96324761D01*
X174355047Y-96372380D01*
X174116952Y-96372380D01*
X174021714Y-96324761D01*
X173974095Y-96277142D01*
%TO.C,U6*%
X167513095Y-121917380D02*
X167513095Y-122726904D01*
X167560714Y-122822142D01*
X167608333Y-122869761D01*
X167703571Y-122917380D01*
X167894047Y-122917380D01*
X167989285Y-122869761D01*
X168036904Y-122822142D01*
X168084523Y-122726904D01*
X168084523Y-121917380D01*
X168989285Y-121917380D02*
X168798809Y-121917380D01*
X168703571Y-121965000D01*
X168655952Y-122012619D01*
X168560714Y-122155476D01*
X168513095Y-122345952D01*
X168513095Y-122726904D01*
X168560714Y-122822142D01*
X168608333Y-122869761D01*
X168703571Y-122917380D01*
X168894047Y-122917380D01*
X168989285Y-122869761D01*
X169036904Y-122822142D01*
X169084523Y-122726904D01*
X169084523Y-122488809D01*
X169036904Y-122393571D01*
X168989285Y-122345952D01*
X168894047Y-122298333D01*
X168703571Y-122298333D01*
X168608333Y-122345952D01*
X168560714Y-122393571D01*
X168513095Y-122488809D01*
%TO.C,U7*%
X161208095Y-115967380D02*
X161208095Y-116776904D01*
X161255714Y-116872142D01*
X161303333Y-116919761D01*
X161398571Y-116967380D01*
X161589047Y-116967380D01*
X161684285Y-116919761D01*
X161731904Y-116872142D01*
X161779523Y-116776904D01*
X161779523Y-115967380D01*
X162160476Y-115967380D02*
X162827142Y-115967380D01*
X162398571Y-116967380D01*
%TO.C,C13*%
X167632142Y-115673142D02*
X167584523Y-115720761D01*
X167441666Y-115768380D01*
X167346428Y-115768380D01*
X167203571Y-115720761D01*
X167108333Y-115625523D01*
X167060714Y-115530285D01*
X167013095Y-115339809D01*
X167013095Y-115196952D01*
X167060714Y-115006476D01*
X167108333Y-114911238D01*
X167203571Y-114816000D01*
X167346428Y-114768380D01*
X167441666Y-114768380D01*
X167584523Y-114816000D01*
X167632142Y-114863619D01*
X168584523Y-115768380D02*
X168013095Y-115768380D01*
X168298809Y-115768380D02*
X168298809Y-114768380D01*
X168203571Y-114911238D01*
X168108333Y-115006476D01*
X168013095Y-115054095D01*
X168917857Y-114768380D02*
X169536904Y-114768380D01*
X169203571Y-115149333D01*
X169346428Y-115149333D01*
X169441666Y-115196952D01*
X169489285Y-115244571D01*
X169536904Y-115339809D01*
X169536904Y-115577904D01*
X169489285Y-115673142D01*
X169441666Y-115720761D01*
X169346428Y-115768380D01*
X169060714Y-115768380D01*
X168965476Y-115720761D01*
X168917857Y-115673142D01*
%TD*%
M02*
