%TF.GenerationSoftware,KiCad,Pcbnew,(5.1.6)-1*%
%TF.CreationDate,2020-08-17T15:42:06-04:00*%
%TF.ProjectId,FETtester,46455474-6573-4746-9572-2e6b69636164,rev?*%
%TF.SameCoordinates,Original*%
%TF.FileFunction,Soldermask,Bot*%
%TF.FilePolarity,Negative*%
%FSLAX46Y46*%
G04 Gerber Fmt 4.6, Leading zero omitted, Abs format (unit mm)*
G04 Created by KiCad (PCBNEW (5.1.6)-1) date 2020-08-17 15:42:06*
%MOMM*%
%LPD*%
G01*
G04 APERTURE LIST*
%ADD10O,1.800000X1.800000*%
%ADD11R,1.800000X1.800000*%
%ADD12C,3.300000*%
%ADD13O,1.700000X1.700000*%
%ADD14R,1.700000X1.700000*%
%ADD15C,3.402000*%
%ADD16C,1.878000*%
G04 APERTURE END LIST*
D10*
%TO.C,J1*%
X158115000Y-80645000D03*
X160655000Y-80645000D03*
X163195000Y-80645000D03*
X165735000Y-80645000D03*
X168275000Y-80645000D03*
X170815000Y-80645000D03*
X173355000Y-80645000D03*
D11*
X175895000Y-80645000D03*
%TD*%
D12*
%TO.C,A1*%
X180340000Y-119380000D03*
X180340000Y-91440000D03*
X129540000Y-76200000D03*
X128270000Y-124460000D03*
D13*
X175260000Y-76200000D03*
X177800000Y-76200000D03*
X138180000Y-76200000D03*
X177800000Y-124460000D03*
X140720000Y-76200000D03*
X175260000Y-124460000D03*
X143260000Y-76200000D03*
X172720000Y-124460000D03*
X145800000Y-76200000D03*
X170180000Y-124460000D03*
X148340000Y-76200000D03*
X167640000Y-124460000D03*
X150880000Y-76200000D03*
X165100000Y-124460000D03*
X153420000Y-76200000D03*
X160020000Y-124460000D03*
X155960000Y-76200000D03*
X157480000Y-124460000D03*
X160020000Y-76200000D03*
X154940000Y-124460000D03*
X162560000Y-76200000D03*
X152400000Y-124460000D03*
X165100000Y-76200000D03*
X149860000Y-124460000D03*
X167640000Y-76200000D03*
X147320000Y-124460000D03*
X170180000Y-76200000D03*
X144780000Y-124460000D03*
X172720000Y-76200000D03*
D14*
X142240000Y-124460000D03*
D13*
X135640000Y-76200000D03*
X133100000Y-76200000D03*
%TD*%
D15*
%TO.C,J3*%
X119811800Y-98018600D03*
D16*
X125298200Y-108127800D03*
X125298200Y-101422200D03*
X122809000Y-108127800D03*
X122809000Y-101422200D03*
D15*
X118999000Y-104775000D03*
X119811800Y-111531400D03*
%TD*%
D10*
%TO.C,J2*%
X180480000Y-101650000D03*
X177940000Y-101650000D03*
X180480000Y-99110000D03*
X177940000Y-99110000D03*
X180480000Y-96570000D03*
D11*
X177940000Y-96570000D03*
%TD*%
M02*
