%TF.GenerationSoftware,KiCad,Pcbnew,(5.1.6)-1*%
%TF.CreationDate,2020-08-17T15:42:06-04:00*%
%TF.ProjectId,FETtester,46455474-6573-4746-9572-2e6b69636164,rev?*%
%TF.SameCoordinates,Original*%
%TF.FileFunction,Copper,L2,Bot*%
%TF.FilePolarity,Positive*%
%FSLAX46Y46*%
G04 Gerber Fmt 4.6, Leading zero omitted, Abs format (unit mm)*
G04 Created by KiCad (PCBNEW (5.1.6)-1) date 2020-08-17 15:42:06*
%MOMM*%
%LPD*%
G01*
G04 APERTURE LIST*
%TA.AperFunction,ComponentPad*%
%ADD10O,1.700000X1.700000*%
%TD*%
%TA.AperFunction,ComponentPad*%
%ADD11R,1.700000X1.700000*%
%TD*%
%TA.AperFunction,ComponentPad*%
%ADD12O,1.600000X1.600000*%
%TD*%
%TA.AperFunction,ComponentPad*%
%ADD13R,1.600000X1.600000*%
%TD*%
%TA.AperFunction,ComponentPad*%
%ADD14C,3.302000*%
%TD*%
%TA.AperFunction,ComponentPad*%
%ADD15C,1.778000*%
%TD*%
%TA.AperFunction,ViaPad*%
%ADD16C,0.800000*%
%TD*%
%TA.AperFunction,Conductor*%
%ADD17C,0.250000*%
%TD*%
%TA.AperFunction,Conductor*%
%ADD18C,0.254000*%
%TD*%
G04 APERTURE END LIST*
D10*
%TO.P,J1,8*%
%TO.N,GND*%
X158115000Y-80645000D03*
%TO.P,J1,7*%
%TO.N,/VdSense*%
X160655000Y-80645000D03*
%TO.P,J1,6*%
%TO.N,/Vd*%
X163195000Y-80645000D03*
%TO.P,J1,5*%
%TO.N,/VsSense*%
X165735000Y-80645000D03*
%TO.P,J1,4*%
%TO.N,/Vs*%
X168275000Y-80645000D03*
%TO.P,J1,3*%
%TO.N,/VgSense*%
X170815000Y-80645000D03*
%TO.P,J1,2*%
%TO.N,/Vg*%
X173355000Y-80645000D03*
D11*
%TO.P,J1,1*%
%TO.N,GND*%
X175895000Y-80645000D03*
%TD*%
D12*
%TO.P,A1,16*%
%TO.N,Net-(A1-Pad16)*%
X175260000Y-76200000D03*
%TO.P,A1,15*%
%TO.N,Net-(A1-Pad15)*%
X177800000Y-76200000D03*
%TO.P,A1,30*%
%TO.N,/AREF*%
X138180000Y-76200000D03*
%TO.P,A1,14*%
%TO.N,Net-(A1-Pad14)*%
X177800000Y-124460000D03*
%TO.P,A1,29*%
%TO.N,GND*%
X140720000Y-76200000D03*
%TO.P,A1,13*%
%TO.N,Net-(A1-Pad13)*%
X175260000Y-124460000D03*
%TO.P,A1,28*%
%TO.N,Net-(A1-Pad28)*%
X143260000Y-76200000D03*
%TO.P,A1,12*%
%TO.N,/Vds*%
X172720000Y-124460000D03*
%TO.P,A1,27*%
%TO.N,Net-(A1-Pad27)*%
X145800000Y-76200000D03*
%TO.P,A1,11*%
%TO.N,/Id*%
X170180000Y-124460000D03*
%TO.P,A1,26*%
%TO.N,Net-(A1-Pad26)*%
X148340000Y-76200000D03*
%TO.P,A1,10*%
%TO.N,/Ig*%
X167640000Y-124460000D03*
%TO.P,A1,25*%
%TO.N,Net-(A1-Pad25)*%
X150880000Y-76200000D03*
%TO.P,A1,9*%
%TO.N,/Vgs*%
X165100000Y-124460000D03*
%TO.P,A1,24*%
%TO.N,Net-(A1-Pad24)*%
X153420000Y-76200000D03*
%TO.P,A1,8*%
%TO.N,VIN*%
X160020000Y-124460000D03*
%TO.P,A1,23*%
%TO.N,Net-(A1-Pad23)*%
X155960000Y-76200000D03*
%TO.P,A1,7*%
%TO.N,GND*%
X157480000Y-124460000D03*
%TO.P,A1,22*%
%TO.N,/LDAC\u002A*%
X160020000Y-76200000D03*
%TO.P,A1,6*%
%TO.N,GND*%
X154940000Y-124460000D03*
%TO.P,A1,21*%
%TO.N,/SYNC\u002A*%
X162560000Y-76200000D03*
%TO.P,A1,5*%
%TO.N,+5V*%
X152400000Y-124460000D03*
%TO.P,A1,20*%
%TO.N,/RESET\u002A*%
X165100000Y-76200000D03*
%TO.P,A1,4*%
%TO.N,+3V3*%
X149860000Y-124460000D03*
%TO.P,A1,19*%
%TO.N,Net-(A1-Pad19)*%
X167640000Y-76200000D03*
%TO.P,A1,3*%
%TO.N,Net-(A1-Pad3)*%
X147320000Y-124460000D03*
%TO.P,A1,18*%
%TO.N,Net-(A1-Pad18)*%
X170180000Y-76200000D03*
%TO.P,A1,2*%
%TO.N,Net-(A1-Pad2)*%
X144780000Y-124460000D03*
%TO.P,A1,17*%
%TO.N,Net-(A1-Pad17)*%
X172720000Y-76200000D03*
D13*
%TO.P,A1,1*%
%TO.N,Net-(A1-Pad1)*%
X142240000Y-124460000D03*
D12*
%TO.P,A1,31*%
%TO.N,Net-(A1-Pad31)*%
X135640000Y-76200000D03*
%TO.P,A1,32*%
%TO.N,Net-(A1-Pad32)*%
X133100000Y-76200000D03*
%TD*%
D14*
%TO.P,J3,5*%
%TO.N,N/C*%
X119811800Y-98018600D03*
D15*
%TO.P,J3,4*%
%TO.N,Net-(J3-Pad4)*%
X125298200Y-108127800D03*
%TO.P,J3,3*%
%TO.N,Net-(J3-Pad3)*%
X125298200Y-101422200D03*
%TO.P,J3,2*%
%TO.N,Net-(J3-Pad2)*%
X122809000Y-108127800D03*
%TO.P,J3,1*%
%TO.N,Net-(J3-Pad1)*%
X122809000Y-101422200D03*
D14*
%TO.P,J3,5*%
%TO.N,N/C*%
X118999000Y-104775000D03*
X119811800Y-111531400D03*
%TD*%
D10*
%TO.P,J2,6*%
%TO.N,GND*%
X180480000Y-101650000D03*
%TO.P,J2,5*%
%TO.N,/Reset*%
X177940000Y-101650000D03*
%TO.P,J2,4*%
%TO.N,/MOSI*%
X180480000Y-99110000D03*
%TO.P,J2,3*%
%TO.N,/SCK*%
X177940000Y-99110000D03*
%TO.P,J2,2*%
%TO.N,VCC*%
X180480000Y-96570000D03*
D11*
%TO.P,J2,1*%
%TO.N,/MISO*%
X177940000Y-96570000D03*
%TD*%
D16*
%TO.N,GND*%
X169296200Y-99045000D03*
X177952000Y-107315000D03*
X174142000Y-116840000D03*
X174142000Y-118745000D03*
X174142000Y-120650000D03*
X163678000Y-99695000D03*
X163678000Y-111125000D03*
X163678000Y-109220000D03*
X163678000Y-107315000D03*
X165252000Y-103505000D03*
X145567000Y-114935000D03*
X145567000Y-116840000D03*
X145567000Y-118745000D03*
X166954000Y-120015000D03*
X177952000Y-109220000D03*
X145567000Y-85090000D03*
X145567000Y-86995000D03*
X145567000Y-88900000D03*
X131293000Y-114935000D03*
X131293000Y-116840000D03*
X145567000Y-102870000D03*
X145567000Y-104775000D03*
X145567000Y-100965000D03*
X156032000Y-118516000D03*
X156032000Y-121514000D03*
X160122000Y-120015000D03*
X163576000Y-120015000D03*
X161798000Y-120015000D03*
X131293000Y-100965000D03*
X131293000Y-102870000D03*
X131293000Y-104775000D03*
X131293000Y-85090000D03*
X131293000Y-88900000D03*
X131293000Y-86995000D03*
X168275000Y-88290400D03*
X125298000Y-115697000D03*
X175031400Y-97078800D03*
X167005000Y-103505000D03*
X169545000Y-103505000D03*
X175895000Y-102870000D03*
X160020000Y-102235000D03*
X154305000Y-107950000D03*
X149225000Y-109220000D03*
X158115000Y-110490000D03*
X157480000Y-104775000D03*
X154940000Y-113792000D03*
X149860000Y-113792000D03*
X125730000Y-121920000D03*
X122555000Y-119380000D03*
X120650000Y-114935000D03*
X121920000Y-106045000D03*
X121920000Y-93345000D03*
X127000000Y-90805000D03*
X127000000Y-80010000D03*
X132715000Y-78740000D03*
X153670000Y-80010000D03*
X151130000Y-84455000D03*
X148590000Y-80010000D03*
X127000000Y-113665000D03*
X127000000Y-117475000D03*
X153797000Y-120015000D03*
X180975000Y-116205000D03*
X181610000Y-104140000D03*
X155575000Y-101600000D03*
X149860000Y-101600000D03*
X151765000Y-106045000D03*
X178435000Y-88265000D03*
X137160000Y-81280000D03*
X127000000Y-85725000D03*
X152400000Y-89535000D03*
X130810000Y-94615000D03*
X127635000Y-102870000D03*
X127635000Y-111125000D03*
X138430000Y-102870000D03*
X134620000Y-92710000D03*
X137795000Y-97155000D03*
X124079000Y-99568000D03*
X137795000Y-124460000D03*
X134620000Y-123190000D03*
X149987000Y-119507000D03*
X149225000Y-116586000D03*
X130810000Y-125730000D03*
X165735000Y-117475000D03*
X161925000Y-93980000D03*
X147320000Y-95885000D03*
X156845000Y-99060000D03*
X149860000Y-99060000D03*
X156845000Y-95885000D03*
X158750000Y-92075000D03*
X145415000Y-92710000D03*
X158115000Y-89535000D03*
X158750000Y-86995000D03*
X175260000Y-83820000D03*
X179070000Y-122555000D03*
X170815000Y-116840000D03*
X174625000Y-114554000D03*
X172339000Y-103251000D03*
X139065000Y-109220000D03*
X134620000Y-108585000D03*
X138430000Y-113030000D03*
X138049000Y-116586000D03*
X168275000Y-118110000D03*
X162687000Y-123444000D03*
X177546000Y-116205000D03*
X177546000Y-117475000D03*
X149860000Y-106045000D03*
%TO.N,/SYNC\u002A*%
X170510200Y-96012000D03*
%TO.N,+5V*%
X138454900Y-122098800D03*
X172568000Y-120650000D03*
X165252000Y-99695000D03*
X131293000Y-118745000D03*
X159995000Y-113030000D03*
X172568000Y-118745000D03*
X159994600Y-116103400D03*
%TO.N,/LDAC\u002A*%
X170534303Y-101015800D03*
%TO.N,+3V3*%
X177952000Y-111125000D03*
%TO.N,/Vg*%
X155305000Y-86360000D03*
%TO.N,Net-(R6-Pad1)*%
X162153600Y-104368600D03*
X166600100Y-107265000D03*
%TO.N,Net-(R16-Pad2)*%
X145567500Y-81280000D03*
X140937500Y-115537500D03*
%TO.N,Net-(R17-Pad1)*%
X145567500Y-97155000D03*
X145567500Y-113030000D03*
%TO.N,Net-(R27-Pad1)*%
X131292600Y-108585000D03*
X131292000Y-120650000D03*
%TO.N,Net-(R36-Pad2)*%
X130253600Y-105915100D03*
X132867500Y-114935000D03*
%TO.N,Net-(R46-Pad2)*%
X142417800Y-92710000D03*
X143992500Y-118745000D03*
%TO.N,Net-(R47-Pad1)*%
X147215600Y-117792500D03*
X145567500Y-108585000D03*
%TO.N,VIN*%
X171259303Y-97752097D03*
X160020000Y-121515000D03*
%TO.N,+10V*%
X132867000Y-86995000D03*
X132867000Y-102870000D03*
X157607000Y-118516000D03*
X165252000Y-109220000D03*
X136017000Y-116840000D03*
%TO.N,/RESET\u002A*%
X172475700Y-95719900D03*
%TO.N,-5V*%
X143993000Y-102870000D03*
X143993000Y-116840000D03*
X172568000Y-116840000D03*
X176378000Y-109220000D03*
X143993000Y-86995000D03*
%TD*%
D17*
%TO.N,/SYNC\u002A*%
X164559999Y-78199999D02*
X162560000Y-76200000D01*
X164559999Y-90061799D02*
X164559999Y-78199999D01*
X170510200Y-96012000D02*
X164559999Y-90061799D01*
%TO.N,+5V*%
X138454900Y-122098800D02*
X134646800Y-122098800D01*
X134646800Y-122098800D02*
X131293000Y-118745000D01*
X159995000Y-114739000D02*
X159995000Y-113030000D01*
X172568000Y-118745000D02*
X172568000Y-120650000D01*
X159995000Y-104952000D02*
X159995000Y-113030000D01*
X165252000Y-99695000D02*
X159995000Y-104952000D01*
X165086600Y-122833600D02*
X170384400Y-122833600D01*
X153525300Y-125585300D02*
X162334900Y-125585300D01*
X170384400Y-122833600D02*
X172568000Y-120650000D01*
X162334900Y-125585300D02*
X165086600Y-122833600D01*
X152400000Y-124460000D02*
X153525300Y-125585300D01*
X159994600Y-113030400D02*
X159995000Y-113030000D01*
X159994600Y-116103400D02*
X159994600Y-113030400D01*
%TO.N,/LDAC\u002A*%
X162019600Y-78199600D02*
X160020000Y-76200000D01*
X162019600Y-88594402D02*
X162019600Y-78199600D01*
X170534303Y-101015800D02*
X170534303Y-97109105D01*
X170534303Y-97109105D02*
X162019600Y-88594402D01*
%TO.N,+3V3*%
X178689000Y-111862000D02*
X177952000Y-111125000D01*
X178689000Y-117856000D02*
X178689000Y-111862000D01*
X167170500Y-123284000D02*
X173261000Y-123284000D01*
X151457500Y-126057500D02*
X165128800Y-126057500D01*
X173261000Y-123284000D02*
X178689000Y-117856000D01*
X149860000Y-124460000D02*
X151457500Y-126057500D01*
X165128800Y-126057500D02*
X166370000Y-124816300D01*
X166370000Y-124816300D02*
X166370000Y-124084500D01*
X166370000Y-124084500D02*
X167170500Y-123284000D01*
%TO.N,/Vg*%
X173355000Y-80391000D02*
X170349150Y-77385150D01*
X168910000Y-76538300D02*
X168910000Y-75806400D01*
X170349150Y-77385150D02*
X169756850Y-77385150D01*
X169756850Y-77385150D02*
X168910000Y-76538300D01*
X168910000Y-75806400D02*
X168157700Y-75054100D01*
X159500898Y-75054100D02*
X159768900Y-75054100D01*
X155305000Y-86360000D02*
X155305000Y-79249998D01*
X168157700Y-75054100D02*
X159768900Y-75054100D01*
X155305000Y-79249998D02*
X159500898Y-75054100D01*
X159768900Y-75054100D02*
X159534100Y-75054100D01*
%TO.N,Net-(R6-Pad1)*%
X163703700Y-104368600D02*
X166600100Y-107265000D01*
X162153600Y-104368600D02*
X163703700Y-104368600D01*
%TO.N,Net-(R16-Pad2)*%
X145567500Y-81280000D02*
X145542000Y-81280000D01*
X140937500Y-85910000D02*
X140937500Y-115537500D01*
X145567500Y-81280000D02*
X140937500Y-85910000D01*
%TO.N,Net-(R17-Pad1)*%
X147599900Y-99187400D02*
X147599900Y-99389400D01*
X145567500Y-97155000D02*
X147599900Y-99187400D01*
X147599900Y-103225100D02*
X147599900Y-99389400D01*
X144842499Y-112304999D02*
X145567500Y-113030000D01*
X144842499Y-108141501D02*
X144842499Y-112304999D01*
X147599900Y-105384100D02*
X144842499Y-108141501D01*
X147599900Y-104292900D02*
X147599900Y-105384100D01*
X147599900Y-103225100D02*
X147599900Y-104292900D01*
X147599900Y-104292900D02*
X147599900Y-105130100D01*
%TO.N,Net-(R27-Pad1)*%
X131292600Y-108585000D02*
X129413000Y-110464600D01*
X129413000Y-118771000D02*
X131292000Y-120650000D01*
X129413000Y-110464600D02*
X129413000Y-118771000D01*
%TO.N,Net-(R36-Pad2)*%
X132867500Y-108529000D02*
X132867500Y-114935000D01*
X130253600Y-105915100D02*
X132867500Y-108529000D01*
%TO.N,Net-(R46-Pad2)*%
X142417800Y-117170300D02*
X143992500Y-118745000D01*
X142417800Y-92710000D02*
X142417800Y-117170300D01*
%TO.N,Net-(R47-Pad1)*%
X145567500Y-108585000D02*
X145567500Y-111956998D01*
X147215600Y-113605098D02*
X147215600Y-117792500D01*
X145567500Y-111956998D02*
X147215600Y-113605098D01*
%TO.N,VIN*%
X171259303Y-109355197D02*
X171259303Y-97752097D01*
X160020000Y-124460000D02*
X162687000Y-121793000D01*
X162687000Y-117927500D02*
X171259303Y-109355197D01*
X162687000Y-121793000D02*
X162687000Y-117927500D01*
%TO.N,+10V*%
X132867000Y-86995000D02*
X132867000Y-102870000D01*
X132867000Y-102870000D02*
X133592501Y-103595501D01*
X136017000Y-106020000D02*
X136017000Y-116840000D01*
X132867000Y-102870000D02*
X136017000Y-106020000D01*
X157607000Y-118516000D02*
X160249000Y-118516000D01*
X160249000Y-118516000D02*
X165252000Y-113513000D01*
X165252000Y-113513000D02*
X165252000Y-109220000D01*
%TO.N,/RESET\u002A*%
X172475700Y-95716498D02*
X172475700Y-95719900D01*
X165100000Y-76200000D02*
X167099600Y-78199600D01*
X167099600Y-90340398D02*
X172475700Y-95716498D01*
X167099600Y-78199600D02*
X167099600Y-90340398D01*
%TO.N,-5V*%
X143993000Y-86995000D02*
X143993000Y-102870000D01*
X143993000Y-102870000D02*
X143993000Y-116840000D01*
X172568000Y-116840000D02*
X172568000Y-113030000D01*
X172568000Y-113030000D02*
X176378000Y-109220000D01*
%TD*%
D18*
%TO.N,GND*%
G36*
X128115271Y-74463962D02*
G01*
X127803962Y-74775271D01*
X127559369Y-75141331D01*
X127390890Y-75548075D01*
X127305000Y-75979872D01*
X127305000Y-76420128D01*
X127390890Y-76851925D01*
X127559369Y-77258669D01*
X127803962Y-77624729D01*
X128115271Y-77936038D01*
X128481331Y-78180631D01*
X128888075Y-78349110D01*
X129319872Y-78435000D01*
X129760128Y-78435000D01*
X130191925Y-78349110D01*
X130598669Y-78180631D01*
X130964729Y-77936038D01*
X131276038Y-77624729D01*
X131520631Y-77258669D01*
X131689110Y-76851925D01*
X131730537Y-76643658D01*
X131828320Y-76879727D01*
X131985363Y-77114759D01*
X132185241Y-77314637D01*
X132420273Y-77471680D01*
X132681426Y-77579853D01*
X132958665Y-77635000D01*
X133241335Y-77635000D01*
X133518574Y-77579853D01*
X133779727Y-77471680D01*
X134014759Y-77314637D01*
X134214637Y-77114759D01*
X134370000Y-76882241D01*
X134525363Y-77114759D01*
X134725241Y-77314637D01*
X134960273Y-77471680D01*
X135221426Y-77579853D01*
X135498665Y-77635000D01*
X135781335Y-77635000D01*
X136058574Y-77579853D01*
X136319727Y-77471680D01*
X136554759Y-77314637D01*
X136754637Y-77114759D01*
X136910000Y-76882241D01*
X137065363Y-77114759D01*
X137265241Y-77314637D01*
X137500273Y-77471680D01*
X137761426Y-77579853D01*
X138038665Y-77635000D01*
X138321335Y-77635000D01*
X138598574Y-77579853D01*
X138859727Y-77471680D01*
X139094759Y-77314637D01*
X139294637Y-77114759D01*
X139451680Y-76879727D01*
X139456067Y-76869135D01*
X139567615Y-77055131D01*
X139756586Y-77263519D01*
X139982580Y-77431037D01*
X140236913Y-77551246D01*
X140370961Y-77591904D01*
X140593000Y-77469915D01*
X140593000Y-76327000D01*
X140573000Y-76327000D01*
X140573000Y-76073000D01*
X140593000Y-76073000D01*
X140593000Y-74930085D01*
X140370961Y-74808096D01*
X140236913Y-74848754D01*
X139982580Y-74968963D01*
X139756586Y-75136481D01*
X139567615Y-75344869D01*
X139456067Y-75530865D01*
X139451680Y-75520273D01*
X139294637Y-75285241D01*
X139094759Y-75085363D01*
X138859727Y-74928320D01*
X138598574Y-74820147D01*
X138321335Y-74765000D01*
X138038665Y-74765000D01*
X137761426Y-74820147D01*
X137500273Y-74928320D01*
X137265241Y-75085363D01*
X137065363Y-75285241D01*
X136910000Y-75517759D01*
X136754637Y-75285241D01*
X136554759Y-75085363D01*
X136319727Y-74928320D01*
X136058574Y-74820147D01*
X135781335Y-74765000D01*
X135498665Y-74765000D01*
X135221426Y-74820147D01*
X134960273Y-74928320D01*
X134725241Y-75085363D01*
X134525363Y-75285241D01*
X134370000Y-75517759D01*
X134214637Y-75285241D01*
X134014759Y-75085363D01*
X133779727Y-74928320D01*
X133518574Y-74820147D01*
X133241335Y-74765000D01*
X132958665Y-74765000D01*
X132681426Y-74820147D01*
X132420273Y-74928320D01*
X132185241Y-75085363D01*
X131985363Y-75285241D01*
X131828320Y-75520273D01*
X131730537Y-75756342D01*
X131689110Y-75548075D01*
X131520631Y-75141331D01*
X131276038Y-74775271D01*
X130964729Y-74463962D01*
X130749274Y-74320000D01*
X159302783Y-74320000D01*
X159208651Y-74348554D01*
X159076622Y-74419126D01*
X158960897Y-74514099D01*
X158937099Y-74543097D01*
X157395000Y-76085196D01*
X157395000Y-76058665D01*
X157339853Y-75781426D01*
X157231680Y-75520273D01*
X157074637Y-75285241D01*
X156874759Y-75085363D01*
X156639727Y-74928320D01*
X156378574Y-74820147D01*
X156101335Y-74765000D01*
X155818665Y-74765000D01*
X155541426Y-74820147D01*
X155280273Y-74928320D01*
X155045241Y-75085363D01*
X154845363Y-75285241D01*
X154690000Y-75517759D01*
X154534637Y-75285241D01*
X154334759Y-75085363D01*
X154099727Y-74928320D01*
X153838574Y-74820147D01*
X153561335Y-74765000D01*
X153278665Y-74765000D01*
X153001426Y-74820147D01*
X152740273Y-74928320D01*
X152505241Y-75085363D01*
X152305363Y-75285241D01*
X152150000Y-75517759D01*
X151994637Y-75285241D01*
X151794759Y-75085363D01*
X151559727Y-74928320D01*
X151298574Y-74820147D01*
X151021335Y-74765000D01*
X150738665Y-74765000D01*
X150461426Y-74820147D01*
X150200273Y-74928320D01*
X149965241Y-75085363D01*
X149765363Y-75285241D01*
X149610000Y-75517759D01*
X149454637Y-75285241D01*
X149254759Y-75085363D01*
X149019727Y-74928320D01*
X148758574Y-74820147D01*
X148481335Y-74765000D01*
X148198665Y-74765000D01*
X147921426Y-74820147D01*
X147660273Y-74928320D01*
X147425241Y-75085363D01*
X147225363Y-75285241D01*
X147070000Y-75517759D01*
X146914637Y-75285241D01*
X146714759Y-75085363D01*
X146479727Y-74928320D01*
X146218574Y-74820147D01*
X145941335Y-74765000D01*
X145658665Y-74765000D01*
X145381426Y-74820147D01*
X145120273Y-74928320D01*
X144885241Y-75085363D01*
X144685363Y-75285241D01*
X144530000Y-75517759D01*
X144374637Y-75285241D01*
X144174759Y-75085363D01*
X143939727Y-74928320D01*
X143678574Y-74820147D01*
X143401335Y-74765000D01*
X143118665Y-74765000D01*
X142841426Y-74820147D01*
X142580273Y-74928320D01*
X142345241Y-75085363D01*
X142145363Y-75285241D01*
X141988320Y-75520273D01*
X141983933Y-75530865D01*
X141872385Y-75344869D01*
X141683414Y-75136481D01*
X141457420Y-74968963D01*
X141203087Y-74848754D01*
X141069039Y-74808096D01*
X140847000Y-74930085D01*
X140847000Y-76073000D01*
X140867000Y-76073000D01*
X140867000Y-76327000D01*
X140847000Y-76327000D01*
X140847000Y-77469915D01*
X141069039Y-77591904D01*
X141203087Y-77551246D01*
X141457420Y-77431037D01*
X141683414Y-77263519D01*
X141872385Y-77055131D01*
X141983933Y-76869135D01*
X141988320Y-76879727D01*
X142145363Y-77114759D01*
X142345241Y-77314637D01*
X142580273Y-77471680D01*
X142841426Y-77579853D01*
X143118665Y-77635000D01*
X143401335Y-77635000D01*
X143678574Y-77579853D01*
X143939727Y-77471680D01*
X144174759Y-77314637D01*
X144374637Y-77114759D01*
X144530000Y-76882241D01*
X144685363Y-77114759D01*
X144885241Y-77314637D01*
X145120273Y-77471680D01*
X145381426Y-77579853D01*
X145658665Y-77635000D01*
X145941335Y-77635000D01*
X146218574Y-77579853D01*
X146479727Y-77471680D01*
X146714759Y-77314637D01*
X146914637Y-77114759D01*
X147070000Y-76882241D01*
X147225363Y-77114759D01*
X147425241Y-77314637D01*
X147660273Y-77471680D01*
X147921426Y-77579853D01*
X148198665Y-77635000D01*
X148481335Y-77635000D01*
X148758574Y-77579853D01*
X149019727Y-77471680D01*
X149254759Y-77314637D01*
X149454637Y-77114759D01*
X149610000Y-76882241D01*
X149765363Y-77114759D01*
X149965241Y-77314637D01*
X150200273Y-77471680D01*
X150461426Y-77579853D01*
X150738665Y-77635000D01*
X151021335Y-77635000D01*
X151298574Y-77579853D01*
X151559727Y-77471680D01*
X151794759Y-77314637D01*
X151994637Y-77114759D01*
X152150000Y-76882241D01*
X152305363Y-77114759D01*
X152505241Y-77314637D01*
X152740273Y-77471680D01*
X153001426Y-77579853D01*
X153278665Y-77635000D01*
X153561335Y-77635000D01*
X153838574Y-77579853D01*
X154099727Y-77471680D01*
X154334759Y-77314637D01*
X154534637Y-77114759D01*
X154690000Y-76882241D01*
X154845363Y-77114759D01*
X155045241Y-77314637D01*
X155280273Y-77471680D01*
X155541426Y-77579853D01*
X155818665Y-77635000D01*
X155845197Y-77635000D01*
X154793998Y-78686199D01*
X154765000Y-78709997D01*
X154741202Y-78738995D01*
X154741201Y-78738996D01*
X154670026Y-78825722D01*
X154599454Y-78957752D01*
X154555998Y-79101013D01*
X154541324Y-79249998D01*
X154545001Y-79287330D01*
X154545000Y-85656289D01*
X154501063Y-85700226D01*
X154387795Y-85869744D01*
X154309774Y-86058102D01*
X154270000Y-86258061D01*
X154270000Y-86461939D01*
X154309774Y-86661898D01*
X154387795Y-86850256D01*
X154501063Y-87019774D01*
X154645226Y-87163937D01*
X154814744Y-87277205D01*
X155003102Y-87355226D01*
X155203061Y-87395000D01*
X155406939Y-87395000D01*
X155606898Y-87355226D01*
X155795256Y-87277205D01*
X155964774Y-87163937D01*
X156108937Y-87019774D01*
X156222205Y-86850256D01*
X156300226Y-86661898D01*
X156340000Y-86461939D01*
X156340000Y-86258061D01*
X156300226Y-86058102D01*
X156222205Y-85869744D01*
X156108937Y-85700226D01*
X156065000Y-85656289D01*
X156065000Y-81001891D01*
X156673519Y-81001891D01*
X156770843Y-81276252D01*
X156919822Y-81526355D01*
X157114731Y-81742588D01*
X157348080Y-81916641D01*
X157610901Y-82041825D01*
X157758110Y-82086476D01*
X157988000Y-81965155D01*
X157988000Y-80772000D01*
X156794186Y-80772000D01*
X156673519Y-81001891D01*
X156065000Y-81001891D01*
X156065000Y-80288109D01*
X156673519Y-80288109D01*
X156794186Y-80518000D01*
X157988000Y-80518000D01*
X157988000Y-79324845D01*
X157758110Y-79203524D01*
X157610901Y-79248175D01*
X157348080Y-79373359D01*
X157114731Y-79547412D01*
X156919822Y-79763645D01*
X156770843Y-80013748D01*
X156673519Y-80288109D01*
X156065000Y-80288109D01*
X156065000Y-79564799D01*
X158749022Y-76880778D01*
X158905363Y-77114759D01*
X159105241Y-77314637D01*
X159340273Y-77471680D01*
X159601426Y-77579853D01*
X159878665Y-77635000D01*
X160161335Y-77635000D01*
X160343886Y-77598688D01*
X161259601Y-78514404D01*
X161259601Y-79288082D01*
X161088158Y-79217068D01*
X160801260Y-79160000D01*
X160508740Y-79160000D01*
X160221842Y-79217068D01*
X159951589Y-79329010D01*
X159708368Y-79491525D01*
X159501525Y-79698368D01*
X159379805Y-79880534D01*
X159310178Y-79763645D01*
X159115269Y-79547412D01*
X158881920Y-79373359D01*
X158619099Y-79248175D01*
X158471890Y-79203524D01*
X158242000Y-79324845D01*
X158242000Y-80518000D01*
X158262000Y-80518000D01*
X158262000Y-80772000D01*
X158242000Y-80772000D01*
X158242000Y-81965155D01*
X158471890Y-82086476D01*
X158619099Y-82041825D01*
X158881920Y-81916641D01*
X159115269Y-81742588D01*
X159310178Y-81526355D01*
X159379805Y-81409466D01*
X159501525Y-81591632D01*
X159708368Y-81798475D01*
X159951589Y-81960990D01*
X160221842Y-82072932D01*
X160508740Y-82130000D01*
X160801260Y-82130000D01*
X161088158Y-82072932D01*
X161259601Y-82001918D01*
X161259600Y-88557080D01*
X161255924Y-88594402D01*
X161259600Y-88631724D01*
X161259600Y-88631734D01*
X161270597Y-88743387D01*
X161314054Y-88886648D01*
X161384626Y-89018678D01*
X161424471Y-89067228D01*
X161479599Y-89134403D01*
X161508603Y-89158206D01*
X169774304Y-97423909D01*
X169774303Y-100312089D01*
X169730366Y-100356026D01*
X169617098Y-100525544D01*
X169539077Y-100713902D01*
X169499303Y-100913861D01*
X169499303Y-101117739D01*
X169539077Y-101317698D01*
X169617098Y-101506056D01*
X169730366Y-101675574D01*
X169874529Y-101819737D01*
X170044047Y-101933005D01*
X170232405Y-102011026D01*
X170432364Y-102050800D01*
X170499304Y-102050800D01*
X170499303Y-109040395D01*
X166014472Y-113525227D01*
X166015676Y-113513001D01*
X166012000Y-113475678D01*
X166012000Y-109923711D01*
X166055937Y-109879774D01*
X166169205Y-109710256D01*
X166247226Y-109521898D01*
X166287000Y-109321939D01*
X166287000Y-109118061D01*
X166247226Y-108918102D01*
X166169205Y-108729744D01*
X166055937Y-108560226D01*
X165911774Y-108416063D01*
X165742256Y-108302795D01*
X165553898Y-108224774D01*
X165353939Y-108185000D01*
X165150061Y-108185000D01*
X164950102Y-108224774D01*
X164761744Y-108302795D01*
X164592226Y-108416063D01*
X164448063Y-108560226D01*
X164334795Y-108729744D01*
X164256774Y-108918102D01*
X164217000Y-109118061D01*
X164217000Y-109321939D01*
X164256774Y-109521898D01*
X164334795Y-109710256D01*
X164448063Y-109879774D01*
X164492001Y-109923712D01*
X164492000Y-113198197D01*
X159934199Y-117756000D01*
X158310711Y-117756000D01*
X158266774Y-117712063D01*
X158097256Y-117598795D01*
X157908898Y-117520774D01*
X157708939Y-117481000D01*
X157505061Y-117481000D01*
X157305102Y-117520774D01*
X157116744Y-117598795D01*
X156947226Y-117712063D01*
X156803063Y-117856226D01*
X156689795Y-118025744D01*
X156611774Y-118214102D01*
X156572000Y-118414061D01*
X156572000Y-118617939D01*
X156611774Y-118817898D01*
X156689795Y-119006256D01*
X156803063Y-119175774D01*
X156947226Y-119319937D01*
X157116744Y-119433205D01*
X157305102Y-119511226D01*
X157505061Y-119551000D01*
X157708939Y-119551000D01*
X157908898Y-119511226D01*
X158097256Y-119433205D01*
X158266774Y-119319937D01*
X158310711Y-119276000D01*
X160211678Y-119276000D01*
X160249000Y-119279676D01*
X160286322Y-119276000D01*
X160286333Y-119276000D01*
X160397986Y-119265003D01*
X160541247Y-119221546D01*
X160673276Y-119150974D01*
X160789001Y-119056001D01*
X160812804Y-119026997D01*
X161924528Y-117915273D01*
X161923324Y-117927500D01*
X161927001Y-117964832D01*
X161927000Y-121478198D01*
X160343886Y-123061312D01*
X160161335Y-123025000D01*
X159878665Y-123025000D01*
X159601426Y-123080147D01*
X159340273Y-123188320D01*
X159105241Y-123345363D01*
X158905363Y-123545241D01*
X158748320Y-123780273D01*
X158743933Y-123790865D01*
X158632385Y-123604869D01*
X158443414Y-123396481D01*
X158217420Y-123228963D01*
X157963087Y-123108754D01*
X157829039Y-123068096D01*
X157607000Y-123190085D01*
X157607000Y-124333000D01*
X157627000Y-124333000D01*
X157627000Y-124587000D01*
X157607000Y-124587000D01*
X157607000Y-124607000D01*
X157353000Y-124607000D01*
X157353000Y-124587000D01*
X155067000Y-124587000D01*
X155067000Y-124607000D01*
X154813000Y-124607000D01*
X154813000Y-124587000D01*
X154793000Y-124587000D01*
X154793000Y-124333000D01*
X154813000Y-124333000D01*
X154813000Y-123190085D01*
X155067000Y-123190085D01*
X155067000Y-124333000D01*
X157353000Y-124333000D01*
X157353000Y-123190085D01*
X157130961Y-123068096D01*
X156996913Y-123108754D01*
X156742580Y-123228963D01*
X156516586Y-123396481D01*
X156327615Y-123604869D01*
X156210000Y-123800982D01*
X156092385Y-123604869D01*
X155903414Y-123396481D01*
X155677420Y-123228963D01*
X155423087Y-123108754D01*
X155289039Y-123068096D01*
X155067000Y-123190085D01*
X154813000Y-123190085D01*
X154590961Y-123068096D01*
X154456913Y-123108754D01*
X154202580Y-123228963D01*
X153976586Y-123396481D01*
X153787615Y-123604869D01*
X153676067Y-123790865D01*
X153671680Y-123780273D01*
X153514637Y-123545241D01*
X153314759Y-123345363D01*
X153079727Y-123188320D01*
X152818574Y-123080147D01*
X152541335Y-123025000D01*
X152258665Y-123025000D01*
X151981426Y-123080147D01*
X151720273Y-123188320D01*
X151485241Y-123345363D01*
X151285363Y-123545241D01*
X151130000Y-123777759D01*
X150974637Y-123545241D01*
X150774759Y-123345363D01*
X150539727Y-123188320D01*
X150278574Y-123080147D01*
X150001335Y-123025000D01*
X149718665Y-123025000D01*
X149441426Y-123080147D01*
X149180273Y-123188320D01*
X148945241Y-123345363D01*
X148745363Y-123545241D01*
X148590000Y-123777759D01*
X148434637Y-123545241D01*
X148234759Y-123345363D01*
X147999727Y-123188320D01*
X147738574Y-123080147D01*
X147461335Y-123025000D01*
X147178665Y-123025000D01*
X146901426Y-123080147D01*
X146640273Y-123188320D01*
X146405241Y-123345363D01*
X146205363Y-123545241D01*
X146050000Y-123777759D01*
X145894637Y-123545241D01*
X145694759Y-123345363D01*
X145459727Y-123188320D01*
X145198574Y-123080147D01*
X144921335Y-123025000D01*
X144638665Y-123025000D01*
X144361426Y-123080147D01*
X144100273Y-123188320D01*
X143865241Y-123345363D01*
X143666643Y-123543961D01*
X143665812Y-123535518D01*
X143629502Y-123415820D01*
X143570537Y-123305506D01*
X143491185Y-123208815D01*
X143394494Y-123129463D01*
X143284180Y-123070498D01*
X143164482Y-123034188D01*
X143040000Y-123021928D01*
X141440000Y-123021928D01*
X141315518Y-123034188D01*
X141195820Y-123070498D01*
X141085506Y-123129463D01*
X140988815Y-123208815D01*
X140909463Y-123305506D01*
X140850498Y-123415820D01*
X140814188Y-123535518D01*
X140801928Y-123660000D01*
X140801928Y-125260000D01*
X140814188Y-125384482D01*
X140850498Y-125504180D01*
X140909463Y-125614494D01*
X140988815Y-125711185D01*
X141085506Y-125790537D01*
X141195820Y-125849502D01*
X141315518Y-125885812D01*
X141440000Y-125898072D01*
X143040000Y-125898072D01*
X143164482Y-125885812D01*
X143284180Y-125849502D01*
X143394494Y-125790537D01*
X143491185Y-125711185D01*
X143570537Y-125614494D01*
X143629502Y-125504180D01*
X143665812Y-125384482D01*
X143666643Y-125376039D01*
X143865241Y-125574637D01*
X144100273Y-125731680D01*
X144361426Y-125839853D01*
X144638665Y-125895000D01*
X144921335Y-125895000D01*
X145198574Y-125839853D01*
X145459727Y-125731680D01*
X145694759Y-125574637D01*
X145894637Y-125374759D01*
X146050000Y-125142241D01*
X146205363Y-125374759D01*
X146405241Y-125574637D01*
X146640273Y-125731680D01*
X146901426Y-125839853D01*
X147178665Y-125895000D01*
X147461335Y-125895000D01*
X147738574Y-125839853D01*
X147999727Y-125731680D01*
X148234759Y-125574637D01*
X148434637Y-125374759D01*
X148590000Y-125142241D01*
X148745363Y-125374759D01*
X148945241Y-125574637D01*
X149180273Y-125731680D01*
X149441426Y-125839853D01*
X149718665Y-125895000D01*
X150001335Y-125895000D01*
X150183886Y-125858688D01*
X150665198Y-126340000D01*
X129479274Y-126340000D01*
X129694729Y-126196038D01*
X130006038Y-125884729D01*
X130250631Y-125518669D01*
X130419110Y-125111925D01*
X130505000Y-124680128D01*
X130505000Y-124239872D01*
X130419110Y-123808075D01*
X130250631Y-123401331D01*
X130006038Y-123035271D01*
X129694729Y-122723962D01*
X129328669Y-122479369D01*
X128921925Y-122310890D01*
X128490128Y-122225000D01*
X128049872Y-122225000D01*
X127618075Y-122310890D01*
X127211331Y-122479369D01*
X126845271Y-122723962D01*
X126533962Y-123035271D01*
X126289369Y-123401331D01*
X126120890Y-123808075D01*
X126035000Y-124239872D01*
X126035000Y-124680128D01*
X126120890Y-125111925D01*
X126289369Y-125518669D01*
X126533962Y-125884729D01*
X126845271Y-126196038D01*
X127060726Y-126340000D01*
X114960000Y-126340000D01*
X114960000Y-111306249D01*
X117525800Y-111306249D01*
X117525800Y-111756551D01*
X117613650Y-112198202D01*
X117785973Y-112614227D01*
X118036148Y-112988640D01*
X118354560Y-113307052D01*
X118728973Y-113557227D01*
X119144998Y-113729550D01*
X119586649Y-113817400D01*
X120036951Y-113817400D01*
X120478602Y-113729550D01*
X120894627Y-113557227D01*
X121269040Y-113307052D01*
X121587452Y-112988640D01*
X121837627Y-112614227D01*
X122009950Y-112198202D01*
X122097800Y-111756551D01*
X122097800Y-111306249D01*
X122009950Y-110864598D01*
X121844266Y-110464600D01*
X128649324Y-110464600D01*
X128653000Y-110501922D01*
X128653001Y-118733668D01*
X128649324Y-118771000D01*
X128663998Y-118919985D01*
X128707454Y-119063246D01*
X128778026Y-119195276D01*
X128835250Y-119265003D01*
X128873000Y-119311001D01*
X128901998Y-119334799D01*
X130257000Y-120689802D01*
X130257000Y-120751939D01*
X130296774Y-120951898D01*
X130374795Y-121140256D01*
X130488063Y-121309774D01*
X130632226Y-121453937D01*
X130801744Y-121567205D01*
X130990102Y-121645226D01*
X131190061Y-121685000D01*
X131393939Y-121685000D01*
X131593898Y-121645226D01*
X131782256Y-121567205D01*
X131951774Y-121453937D01*
X132095937Y-121309774D01*
X132209205Y-121140256D01*
X132287226Y-120951898D01*
X132310100Y-120836902D01*
X134083005Y-122609808D01*
X134106799Y-122638801D01*
X134135792Y-122662595D01*
X134135796Y-122662599D01*
X134205985Y-122720201D01*
X134222524Y-122733774D01*
X134354553Y-122804346D01*
X134497814Y-122847803D01*
X134609467Y-122858800D01*
X134609476Y-122858800D01*
X134646799Y-122862476D01*
X134684122Y-122858800D01*
X137751189Y-122858800D01*
X137795126Y-122902737D01*
X137964644Y-123016005D01*
X138153002Y-123094026D01*
X138352961Y-123133800D01*
X138556839Y-123133800D01*
X138756798Y-123094026D01*
X138945156Y-123016005D01*
X139114674Y-122902737D01*
X139258837Y-122758574D01*
X139372105Y-122589056D01*
X139450126Y-122400698D01*
X139489900Y-122200739D01*
X139489900Y-121996861D01*
X139450126Y-121796902D01*
X139372105Y-121608544D01*
X139258837Y-121439026D01*
X139232872Y-121413061D01*
X158985000Y-121413061D01*
X158985000Y-121616939D01*
X159024774Y-121816898D01*
X159102795Y-122005256D01*
X159216063Y-122174774D01*
X159360226Y-122318937D01*
X159529744Y-122432205D01*
X159718102Y-122510226D01*
X159918061Y-122550000D01*
X160121939Y-122550000D01*
X160321898Y-122510226D01*
X160510256Y-122432205D01*
X160679774Y-122318937D01*
X160823937Y-122174774D01*
X160937205Y-122005256D01*
X161015226Y-121816898D01*
X161055000Y-121616939D01*
X161055000Y-121413061D01*
X161015226Y-121213102D01*
X160937205Y-121024744D01*
X160823937Y-120855226D01*
X160679774Y-120711063D01*
X160510256Y-120597795D01*
X160321898Y-120519774D01*
X160121939Y-120480000D01*
X159918061Y-120480000D01*
X159718102Y-120519774D01*
X159529744Y-120597795D01*
X159360226Y-120711063D01*
X159216063Y-120855226D01*
X159102795Y-121024744D01*
X159024774Y-121213102D01*
X158985000Y-121413061D01*
X139232872Y-121413061D01*
X139114674Y-121294863D01*
X138945156Y-121181595D01*
X138756798Y-121103574D01*
X138556839Y-121063800D01*
X138352961Y-121063800D01*
X138153002Y-121103574D01*
X137964644Y-121181595D01*
X137795126Y-121294863D01*
X137751189Y-121338800D01*
X134961603Y-121338800D01*
X132328000Y-118705199D01*
X132328000Y-118643061D01*
X132288226Y-118443102D01*
X132210205Y-118254744D01*
X132096937Y-118085226D01*
X131952774Y-117941063D01*
X131783256Y-117827795D01*
X131594898Y-117749774D01*
X131394939Y-117710000D01*
X131191061Y-117710000D01*
X130991102Y-117749774D01*
X130802744Y-117827795D01*
X130633226Y-117941063D01*
X130489063Y-118085226D01*
X130375795Y-118254744D01*
X130297774Y-118443102D01*
X130274900Y-118558099D01*
X130173000Y-118456199D01*
X130173000Y-110779401D01*
X131332402Y-109620000D01*
X131394539Y-109620000D01*
X131594498Y-109580226D01*
X131782856Y-109502205D01*
X131952374Y-109388937D01*
X132096537Y-109244774D01*
X132107500Y-109228366D01*
X132107501Y-114231288D01*
X132063563Y-114275226D01*
X131950295Y-114444744D01*
X131872274Y-114633102D01*
X131832500Y-114833061D01*
X131832500Y-115036939D01*
X131872274Y-115236898D01*
X131950295Y-115425256D01*
X132063563Y-115594774D01*
X132207726Y-115738937D01*
X132377244Y-115852205D01*
X132565602Y-115930226D01*
X132765561Y-115970000D01*
X132969439Y-115970000D01*
X133169398Y-115930226D01*
X133357756Y-115852205D01*
X133527274Y-115738937D01*
X133671437Y-115594774D01*
X133784705Y-115425256D01*
X133862726Y-115236898D01*
X133902500Y-115036939D01*
X133902500Y-114833061D01*
X133862726Y-114633102D01*
X133784705Y-114444744D01*
X133671437Y-114275226D01*
X133627500Y-114231289D01*
X133627500Y-108566323D01*
X133631176Y-108529000D01*
X133627500Y-108491677D01*
X133627500Y-108491667D01*
X133616503Y-108380014D01*
X133573046Y-108236753D01*
X133502474Y-108104724D01*
X133407501Y-107988999D01*
X133378504Y-107965202D01*
X131288600Y-105875299D01*
X131288600Y-105813161D01*
X131248826Y-105613202D01*
X131170805Y-105424844D01*
X131057537Y-105255326D01*
X130913374Y-105111163D01*
X130743856Y-104997895D01*
X130555498Y-104919874D01*
X130355539Y-104880100D01*
X130151661Y-104880100D01*
X129951702Y-104919874D01*
X129763344Y-104997895D01*
X129593826Y-105111163D01*
X129449663Y-105255326D01*
X129336395Y-105424844D01*
X129258374Y-105613202D01*
X129218600Y-105813161D01*
X129218600Y-106017039D01*
X129258374Y-106216998D01*
X129336395Y-106405356D01*
X129449663Y-106574874D01*
X129593826Y-106719037D01*
X129763344Y-106832305D01*
X129951702Y-106910326D01*
X130151661Y-106950100D01*
X130213799Y-106950100D01*
X130893666Y-107629968D01*
X130802344Y-107667795D01*
X130632826Y-107781063D01*
X130488663Y-107925226D01*
X130375395Y-108094744D01*
X130297374Y-108283102D01*
X130257600Y-108483061D01*
X130257600Y-108545198D01*
X128902003Y-109900796D01*
X128872999Y-109924599D01*
X128819186Y-109990171D01*
X128778026Y-110040324D01*
X128736040Y-110118874D01*
X128707454Y-110172354D01*
X128663997Y-110315615D01*
X128653000Y-110427268D01*
X128653000Y-110427278D01*
X128649324Y-110464600D01*
X121844266Y-110464600D01*
X121837627Y-110448573D01*
X121587452Y-110074160D01*
X121269040Y-109755748D01*
X120894627Y-109505573D01*
X120478602Y-109333250D01*
X120036951Y-109245400D01*
X119586649Y-109245400D01*
X119144998Y-109333250D01*
X118728973Y-109505573D01*
X118354560Y-109755748D01*
X118036148Y-110074160D01*
X117785973Y-110448573D01*
X117613650Y-110864598D01*
X117525800Y-111306249D01*
X114960000Y-111306249D01*
X114960000Y-107977699D01*
X121285000Y-107977699D01*
X121285000Y-108277901D01*
X121343566Y-108572334D01*
X121458449Y-108849685D01*
X121625232Y-109099293D01*
X121837507Y-109311568D01*
X122087115Y-109478351D01*
X122364466Y-109593234D01*
X122658899Y-109651800D01*
X122959101Y-109651800D01*
X123253534Y-109593234D01*
X123530885Y-109478351D01*
X123780493Y-109311568D01*
X123992768Y-109099293D01*
X124053600Y-109008252D01*
X124114432Y-109099293D01*
X124326707Y-109311568D01*
X124576315Y-109478351D01*
X124853666Y-109593234D01*
X125148099Y-109651800D01*
X125448301Y-109651800D01*
X125742734Y-109593234D01*
X126020085Y-109478351D01*
X126269693Y-109311568D01*
X126481968Y-109099293D01*
X126648751Y-108849685D01*
X126763634Y-108572334D01*
X126822200Y-108277901D01*
X126822200Y-107977699D01*
X126763634Y-107683266D01*
X126648751Y-107405915D01*
X126481968Y-107156307D01*
X126269693Y-106944032D01*
X126020085Y-106777249D01*
X125742734Y-106662366D01*
X125448301Y-106603800D01*
X125148099Y-106603800D01*
X124853666Y-106662366D01*
X124576315Y-106777249D01*
X124326707Y-106944032D01*
X124114432Y-107156307D01*
X124053600Y-107247348D01*
X123992768Y-107156307D01*
X123780493Y-106944032D01*
X123530885Y-106777249D01*
X123253534Y-106662366D01*
X122959101Y-106603800D01*
X122658899Y-106603800D01*
X122364466Y-106662366D01*
X122087115Y-106777249D01*
X121837507Y-106944032D01*
X121625232Y-107156307D01*
X121458449Y-107405915D01*
X121343566Y-107683266D01*
X121285000Y-107977699D01*
X114960000Y-107977699D01*
X114960000Y-104549849D01*
X116713000Y-104549849D01*
X116713000Y-105000151D01*
X116800850Y-105441802D01*
X116973173Y-105857827D01*
X117223348Y-106232240D01*
X117541760Y-106550652D01*
X117916173Y-106800827D01*
X118332198Y-106973150D01*
X118773849Y-107061000D01*
X119224151Y-107061000D01*
X119665802Y-106973150D01*
X120081827Y-106800827D01*
X120456240Y-106550652D01*
X120774652Y-106232240D01*
X121024827Y-105857827D01*
X121197150Y-105441802D01*
X121285000Y-105000151D01*
X121285000Y-104549849D01*
X121197150Y-104108198D01*
X121024827Y-103692173D01*
X120774652Y-103317760D01*
X120456240Y-102999348D01*
X120081827Y-102749173D01*
X119665802Y-102576850D01*
X119224151Y-102489000D01*
X118773849Y-102489000D01*
X118332198Y-102576850D01*
X117916173Y-102749173D01*
X117541760Y-102999348D01*
X117223348Y-103317760D01*
X116973173Y-103692173D01*
X116800850Y-104108198D01*
X116713000Y-104549849D01*
X114960000Y-104549849D01*
X114960000Y-101272099D01*
X121285000Y-101272099D01*
X121285000Y-101572301D01*
X121343566Y-101866734D01*
X121458449Y-102144085D01*
X121625232Y-102393693D01*
X121837507Y-102605968D01*
X122087115Y-102772751D01*
X122364466Y-102887634D01*
X122658899Y-102946200D01*
X122959101Y-102946200D01*
X123253534Y-102887634D01*
X123530885Y-102772751D01*
X123780493Y-102605968D01*
X123992768Y-102393693D01*
X124053600Y-102302652D01*
X124114432Y-102393693D01*
X124326707Y-102605968D01*
X124576315Y-102772751D01*
X124853666Y-102887634D01*
X125148099Y-102946200D01*
X125448301Y-102946200D01*
X125742734Y-102887634D01*
X126020085Y-102772751D01*
X126269693Y-102605968D01*
X126481968Y-102393693D01*
X126648751Y-102144085D01*
X126763634Y-101866734D01*
X126822200Y-101572301D01*
X126822200Y-101272099D01*
X126763634Y-100977666D01*
X126648751Y-100700315D01*
X126481968Y-100450707D01*
X126269693Y-100238432D01*
X126020085Y-100071649D01*
X125742734Y-99956766D01*
X125448301Y-99898200D01*
X125148099Y-99898200D01*
X124853666Y-99956766D01*
X124576315Y-100071649D01*
X124326707Y-100238432D01*
X124114432Y-100450707D01*
X124053600Y-100541748D01*
X123992768Y-100450707D01*
X123780493Y-100238432D01*
X123530885Y-100071649D01*
X123253534Y-99956766D01*
X122959101Y-99898200D01*
X122658899Y-99898200D01*
X122364466Y-99956766D01*
X122087115Y-100071649D01*
X121837507Y-100238432D01*
X121625232Y-100450707D01*
X121458449Y-100700315D01*
X121343566Y-100977666D01*
X121285000Y-101272099D01*
X114960000Y-101272099D01*
X114960000Y-97793449D01*
X117525800Y-97793449D01*
X117525800Y-98243751D01*
X117613650Y-98685402D01*
X117785973Y-99101427D01*
X118036148Y-99475840D01*
X118354560Y-99794252D01*
X118728973Y-100044427D01*
X119144998Y-100216750D01*
X119586649Y-100304600D01*
X120036951Y-100304600D01*
X120478602Y-100216750D01*
X120894627Y-100044427D01*
X121269040Y-99794252D01*
X121587452Y-99475840D01*
X121837627Y-99101427D01*
X122009950Y-98685402D01*
X122097800Y-98243751D01*
X122097800Y-97793449D01*
X122009950Y-97351798D01*
X121837627Y-96935773D01*
X121587452Y-96561360D01*
X121269040Y-96242948D01*
X120894627Y-95992773D01*
X120478602Y-95820450D01*
X120036951Y-95732600D01*
X119586649Y-95732600D01*
X119144998Y-95820450D01*
X118728973Y-95992773D01*
X118354560Y-96242948D01*
X118036148Y-96561360D01*
X117785973Y-96935773D01*
X117613650Y-97351798D01*
X117525800Y-97793449D01*
X114960000Y-97793449D01*
X114960000Y-86893061D01*
X131832000Y-86893061D01*
X131832000Y-87096939D01*
X131871774Y-87296898D01*
X131949795Y-87485256D01*
X132063063Y-87654774D01*
X132107000Y-87698711D01*
X132107001Y-102166288D01*
X132063063Y-102210226D01*
X131949795Y-102379744D01*
X131871774Y-102568102D01*
X131832000Y-102768061D01*
X131832000Y-102971939D01*
X131871774Y-103171898D01*
X131949795Y-103360256D01*
X132063063Y-103529774D01*
X132207226Y-103673937D01*
X132376744Y-103787205D01*
X132565102Y-103865226D01*
X132765061Y-103905000D01*
X132827198Y-103905000D01*
X133081498Y-104159300D01*
X133081502Y-104159303D01*
X135257000Y-106334802D01*
X135257001Y-116136288D01*
X135213063Y-116180226D01*
X135099795Y-116349744D01*
X135021774Y-116538102D01*
X134982000Y-116738061D01*
X134982000Y-116941939D01*
X135021774Y-117141898D01*
X135099795Y-117330256D01*
X135213063Y-117499774D01*
X135357226Y-117643937D01*
X135526744Y-117757205D01*
X135715102Y-117835226D01*
X135915061Y-117875000D01*
X136118939Y-117875000D01*
X136318898Y-117835226D01*
X136507256Y-117757205D01*
X136676774Y-117643937D01*
X136820937Y-117499774D01*
X136934205Y-117330256D01*
X137012226Y-117141898D01*
X137052000Y-116941939D01*
X137052000Y-116738061D01*
X137012226Y-116538102D01*
X136934205Y-116349744D01*
X136820937Y-116180226D01*
X136777000Y-116136289D01*
X136777000Y-115435561D01*
X139902500Y-115435561D01*
X139902500Y-115639439D01*
X139942274Y-115839398D01*
X140020295Y-116027756D01*
X140133563Y-116197274D01*
X140277726Y-116341437D01*
X140447244Y-116454705D01*
X140635602Y-116532726D01*
X140835561Y-116572500D01*
X141039439Y-116572500D01*
X141239398Y-116532726D01*
X141427756Y-116454705D01*
X141597274Y-116341437D01*
X141657801Y-116280910D01*
X141657801Y-117132967D01*
X141654124Y-117170300D01*
X141657801Y-117207633D01*
X141667120Y-117302244D01*
X141668798Y-117319285D01*
X141712254Y-117462546D01*
X141782826Y-117594576D01*
X141823357Y-117643962D01*
X141877800Y-117710301D01*
X141906798Y-117734099D01*
X142957500Y-118784802D01*
X142957500Y-118846939D01*
X142997274Y-119046898D01*
X143075295Y-119235256D01*
X143188563Y-119404774D01*
X143332726Y-119548937D01*
X143502244Y-119662205D01*
X143690602Y-119740226D01*
X143890561Y-119780000D01*
X144094439Y-119780000D01*
X144294398Y-119740226D01*
X144482756Y-119662205D01*
X144652274Y-119548937D01*
X144796437Y-119404774D01*
X144909705Y-119235256D01*
X144987726Y-119046898D01*
X145027500Y-118846939D01*
X145027500Y-118643061D01*
X144987726Y-118443102D01*
X144909705Y-118254744D01*
X144796437Y-118085226D01*
X144652274Y-117941063D01*
X144482756Y-117827795D01*
X144397797Y-117792604D01*
X144483256Y-117757205D01*
X144652774Y-117643937D01*
X144796937Y-117499774D01*
X144910205Y-117330256D01*
X144988226Y-117141898D01*
X145028000Y-116941939D01*
X145028000Y-116738061D01*
X144988226Y-116538102D01*
X144910205Y-116349744D01*
X144796937Y-116180226D01*
X144753000Y-116136289D01*
X144753000Y-113673965D01*
X144763563Y-113689774D01*
X144907726Y-113833937D01*
X145077244Y-113947205D01*
X145265602Y-114025226D01*
X145465561Y-114065000D01*
X145669439Y-114065000D01*
X145869398Y-114025226D01*
X146057756Y-113947205D01*
X146227274Y-113833937D01*
X146298456Y-113762755D01*
X146455600Y-113919900D01*
X146455601Y-117088788D01*
X146411663Y-117132726D01*
X146298395Y-117302244D01*
X146220374Y-117490602D01*
X146180600Y-117690561D01*
X146180600Y-117894439D01*
X146220374Y-118094398D01*
X146298395Y-118282756D01*
X146411663Y-118452274D01*
X146555826Y-118596437D01*
X146725344Y-118709705D01*
X146913702Y-118787726D01*
X147113661Y-118827500D01*
X147317539Y-118827500D01*
X147517498Y-118787726D01*
X147705856Y-118709705D01*
X147875374Y-118596437D01*
X148019537Y-118452274D01*
X148132805Y-118282756D01*
X148210826Y-118094398D01*
X148250600Y-117894439D01*
X148250600Y-117690561D01*
X148210826Y-117490602D01*
X148132805Y-117302244D01*
X148019537Y-117132726D01*
X147975600Y-117088789D01*
X147975600Y-116001461D01*
X158959600Y-116001461D01*
X158959600Y-116205339D01*
X158999374Y-116405298D01*
X159077395Y-116593656D01*
X159190663Y-116763174D01*
X159334826Y-116907337D01*
X159504344Y-117020605D01*
X159692702Y-117098626D01*
X159892661Y-117138400D01*
X160096539Y-117138400D01*
X160296498Y-117098626D01*
X160484856Y-117020605D01*
X160654374Y-116907337D01*
X160798537Y-116763174D01*
X160911805Y-116593656D01*
X160989826Y-116405298D01*
X161029600Y-116205339D01*
X161029600Y-116001461D01*
X160989826Y-115801502D01*
X160911805Y-115613144D01*
X160798537Y-115443626D01*
X160754600Y-115399689D01*
X160754600Y-114780394D01*
X160755000Y-114776333D01*
X160755000Y-113733711D01*
X160798937Y-113689774D01*
X160912205Y-113520256D01*
X160990226Y-113331898D01*
X161030000Y-113131939D01*
X161030000Y-112928061D01*
X160990226Y-112728102D01*
X160912205Y-112539744D01*
X160798937Y-112370226D01*
X160755000Y-112326289D01*
X160755000Y-105266801D01*
X161214882Y-104806919D01*
X161236395Y-104858856D01*
X161349663Y-105028374D01*
X161493826Y-105172537D01*
X161663344Y-105285805D01*
X161851702Y-105363826D01*
X162051661Y-105403600D01*
X162255539Y-105403600D01*
X162455498Y-105363826D01*
X162643856Y-105285805D01*
X162813374Y-105172537D01*
X162857311Y-105128600D01*
X163388899Y-105128600D01*
X165565100Y-107304802D01*
X165565100Y-107366939D01*
X165604874Y-107566898D01*
X165682895Y-107755256D01*
X165796163Y-107924774D01*
X165940326Y-108068937D01*
X166109844Y-108182205D01*
X166298202Y-108260226D01*
X166498161Y-108300000D01*
X166702039Y-108300000D01*
X166901998Y-108260226D01*
X167090356Y-108182205D01*
X167259874Y-108068937D01*
X167404037Y-107924774D01*
X167517305Y-107755256D01*
X167595326Y-107566898D01*
X167635100Y-107366939D01*
X167635100Y-107163061D01*
X167595326Y-106963102D01*
X167517305Y-106774744D01*
X167404037Y-106605226D01*
X167259874Y-106461063D01*
X167090356Y-106347795D01*
X166901998Y-106269774D01*
X166702039Y-106230000D01*
X166639902Y-106230000D01*
X164267504Y-103857603D01*
X164243701Y-103828599D01*
X164127976Y-103733626D01*
X163995947Y-103663054D01*
X163852686Y-103619597D01*
X163741033Y-103608600D01*
X163741022Y-103608600D01*
X163703700Y-103604924D01*
X163666378Y-103608600D01*
X162857311Y-103608600D01*
X162813374Y-103564663D01*
X162643856Y-103451395D01*
X162591919Y-103429882D01*
X165291802Y-100730000D01*
X165353939Y-100730000D01*
X165553898Y-100690226D01*
X165742256Y-100612205D01*
X165911774Y-100498937D01*
X166055937Y-100354774D01*
X166169205Y-100185256D01*
X166247226Y-99996898D01*
X166287000Y-99796939D01*
X166287000Y-99593061D01*
X166247226Y-99393102D01*
X166169205Y-99204744D01*
X166055937Y-99035226D01*
X165911774Y-98891063D01*
X165742256Y-98777795D01*
X165553898Y-98699774D01*
X165353939Y-98660000D01*
X165150061Y-98660000D01*
X164950102Y-98699774D01*
X164761744Y-98777795D01*
X164592226Y-98891063D01*
X164448063Y-99035226D01*
X164334795Y-99204744D01*
X164256774Y-99393102D01*
X164217000Y-99593061D01*
X164217000Y-99655198D01*
X159484003Y-104388196D01*
X159454999Y-104411999D01*
X159430472Y-104441886D01*
X159360026Y-104527724D01*
X159302633Y-104635098D01*
X159289454Y-104659754D01*
X159245997Y-104803015D01*
X159235000Y-104914668D01*
X159235000Y-104914678D01*
X159231324Y-104952000D01*
X159235000Y-104989322D01*
X159235001Y-112326288D01*
X159191063Y-112370226D01*
X159077795Y-112539744D01*
X158999774Y-112728102D01*
X158960000Y-112928061D01*
X158960000Y-113131939D01*
X158999774Y-113331898D01*
X159077795Y-113520256D01*
X159191063Y-113689774D01*
X159234601Y-113733312D01*
X159234600Y-115399689D01*
X159190663Y-115443626D01*
X159077395Y-115613144D01*
X158999374Y-115801502D01*
X158959600Y-116001461D01*
X147975600Y-116001461D01*
X147975600Y-113642420D01*
X147979276Y-113605097D01*
X147975600Y-113567774D01*
X147975600Y-113567765D01*
X147964603Y-113456112D01*
X147921146Y-113312851D01*
X147850574Y-113180822D01*
X147755601Y-113065097D01*
X147726604Y-113041300D01*
X146327500Y-111642197D01*
X146327500Y-109288711D01*
X146371437Y-109244774D01*
X146484705Y-109075256D01*
X146562726Y-108886898D01*
X146602500Y-108686939D01*
X146602500Y-108483061D01*
X146562726Y-108283102D01*
X146484705Y-108094744D01*
X146371437Y-107925226D01*
X146252506Y-107806295D01*
X148110903Y-105947899D01*
X148139901Y-105924101D01*
X148183468Y-105871015D01*
X148234874Y-105808377D01*
X148305446Y-105676347D01*
X148311149Y-105657546D01*
X148348903Y-105533086D01*
X148359900Y-105421433D01*
X148359900Y-105421423D01*
X148363576Y-105384100D01*
X148359900Y-105346777D01*
X148359900Y-99224725D01*
X148363576Y-99187400D01*
X148359900Y-99150075D01*
X148359900Y-99150067D01*
X148348903Y-99038414D01*
X148305446Y-98895153D01*
X148234874Y-98763124D01*
X148139901Y-98647399D01*
X148110904Y-98623602D01*
X146602500Y-97115199D01*
X146602500Y-97053061D01*
X146562726Y-96853102D01*
X146484705Y-96664744D01*
X146371437Y-96495226D01*
X146227274Y-96351063D01*
X146057756Y-96237795D01*
X145869398Y-96159774D01*
X145669439Y-96120000D01*
X145465561Y-96120000D01*
X145265602Y-96159774D01*
X145077244Y-96237795D01*
X144907726Y-96351063D01*
X144763563Y-96495226D01*
X144753000Y-96511035D01*
X144753000Y-87698711D01*
X144796937Y-87654774D01*
X144910205Y-87485256D01*
X144988226Y-87296898D01*
X145028000Y-87096939D01*
X145028000Y-86893061D01*
X144988226Y-86693102D01*
X144910205Y-86504744D01*
X144796937Y-86335226D01*
X144652774Y-86191063D01*
X144483256Y-86077795D01*
X144294898Y-85999774D01*
X144094939Y-85960000D01*
X143891061Y-85960000D01*
X143691102Y-85999774D01*
X143502744Y-86077795D01*
X143333226Y-86191063D01*
X143189063Y-86335226D01*
X143075795Y-86504744D01*
X142997774Y-86693102D01*
X142958000Y-86893061D01*
X142958000Y-87096939D01*
X142997774Y-87296898D01*
X143075795Y-87485256D01*
X143189063Y-87654774D01*
X143233000Y-87698711D01*
X143233000Y-92067083D01*
X143221737Y-92050226D01*
X143077574Y-91906063D01*
X142908056Y-91792795D01*
X142719698Y-91714774D01*
X142519739Y-91675000D01*
X142315861Y-91675000D01*
X142115902Y-91714774D01*
X141927544Y-91792795D01*
X141758026Y-91906063D01*
X141697500Y-91966589D01*
X141697500Y-86224801D01*
X145607302Y-82315000D01*
X145669439Y-82315000D01*
X145869398Y-82275226D01*
X146057756Y-82197205D01*
X146227274Y-82083937D01*
X146371437Y-81939774D01*
X146484705Y-81770256D01*
X146562726Y-81581898D01*
X146602500Y-81381939D01*
X146602500Y-81178061D01*
X146562726Y-80978102D01*
X146484705Y-80789744D01*
X146371437Y-80620226D01*
X146227274Y-80476063D01*
X146057756Y-80362795D01*
X145869398Y-80284774D01*
X145669439Y-80245000D01*
X145465561Y-80245000D01*
X145265602Y-80284774D01*
X145077244Y-80362795D01*
X144907726Y-80476063D01*
X144763563Y-80620226D01*
X144650295Y-80789744D01*
X144572274Y-80978102D01*
X144532500Y-81178061D01*
X144532500Y-81240198D01*
X140426503Y-85346196D01*
X140397499Y-85369999D01*
X140342371Y-85437174D01*
X140302526Y-85485724D01*
X140264929Y-85556063D01*
X140231954Y-85617754D01*
X140188497Y-85761015D01*
X140177500Y-85872668D01*
X140177500Y-85872678D01*
X140173824Y-85910000D01*
X140177500Y-85947322D01*
X140177501Y-114833788D01*
X140133563Y-114877726D01*
X140020295Y-115047244D01*
X139942274Y-115235602D01*
X139902500Y-115435561D01*
X136777000Y-115435561D01*
X136777000Y-106057325D01*
X136780676Y-106020000D01*
X136777000Y-105982675D01*
X136777000Y-105982667D01*
X136766003Y-105871014D01*
X136722546Y-105727753D01*
X136651974Y-105595724D01*
X136557001Y-105479999D01*
X136528004Y-105456202D01*
X134156303Y-103084502D01*
X134156300Y-103084498D01*
X133902000Y-102830198D01*
X133902000Y-102768061D01*
X133862226Y-102568102D01*
X133784205Y-102379744D01*
X133670937Y-102210226D01*
X133627000Y-102166289D01*
X133627000Y-87698711D01*
X133670937Y-87654774D01*
X133784205Y-87485256D01*
X133862226Y-87296898D01*
X133902000Y-87096939D01*
X133902000Y-86893061D01*
X133862226Y-86693102D01*
X133784205Y-86504744D01*
X133670937Y-86335226D01*
X133526774Y-86191063D01*
X133357256Y-86077795D01*
X133168898Y-85999774D01*
X132968939Y-85960000D01*
X132765061Y-85960000D01*
X132565102Y-85999774D01*
X132376744Y-86077795D01*
X132207226Y-86191063D01*
X132063063Y-86335226D01*
X131949795Y-86504744D01*
X131871774Y-86693102D01*
X131832000Y-86893061D01*
X114960000Y-86893061D01*
X114960000Y-74320000D01*
X128330726Y-74320000D01*
X128115271Y-74463962D01*
G37*
X128115271Y-74463962D02*
X127803962Y-74775271D01*
X127559369Y-75141331D01*
X127390890Y-75548075D01*
X127305000Y-75979872D01*
X127305000Y-76420128D01*
X127390890Y-76851925D01*
X127559369Y-77258669D01*
X127803962Y-77624729D01*
X128115271Y-77936038D01*
X128481331Y-78180631D01*
X128888075Y-78349110D01*
X129319872Y-78435000D01*
X129760128Y-78435000D01*
X130191925Y-78349110D01*
X130598669Y-78180631D01*
X130964729Y-77936038D01*
X131276038Y-77624729D01*
X131520631Y-77258669D01*
X131689110Y-76851925D01*
X131730537Y-76643658D01*
X131828320Y-76879727D01*
X131985363Y-77114759D01*
X132185241Y-77314637D01*
X132420273Y-77471680D01*
X132681426Y-77579853D01*
X132958665Y-77635000D01*
X133241335Y-77635000D01*
X133518574Y-77579853D01*
X133779727Y-77471680D01*
X134014759Y-77314637D01*
X134214637Y-77114759D01*
X134370000Y-76882241D01*
X134525363Y-77114759D01*
X134725241Y-77314637D01*
X134960273Y-77471680D01*
X135221426Y-77579853D01*
X135498665Y-77635000D01*
X135781335Y-77635000D01*
X136058574Y-77579853D01*
X136319727Y-77471680D01*
X136554759Y-77314637D01*
X136754637Y-77114759D01*
X136910000Y-76882241D01*
X137065363Y-77114759D01*
X137265241Y-77314637D01*
X137500273Y-77471680D01*
X137761426Y-77579853D01*
X138038665Y-77635000D01*
X138321335Y-77635000D01*
X138598574Y-77579853D01*
X138859727Y-77471680D01*
X139094759Y-77314637D01*
X139294637Y-77114759D01*
X139451680Y-76879727D01*
X139456067Y-76869135D01*
X139567615Y-77055131D01*
X139756586Y-77263519D01*
X139982580Y-77431037D01*
X140236913Y-77551246D01*
X140370961Y-77591904D01*
X140593000Y-77469915D01*
X140593000Y-76327000D01*
X140573000Y-76327000D01*
X140573000Y-76073000D01*
X140593000Y-76073000D01*
X140593000Y-74930085D01*
X140370961Y-74808096D01*
X140236913Y-74848754D01*
X139982580Y-74968963D01*
X139756586Y-75136481D01*
X139567615Y-75344869D01*
X139456067Y-75530865D01*
X139451680Y-75520273D01*
X139294637Y-75285241D01*
X139094759Y-75085363D01*
X138859727Y-74928320D01*
X138598574Y-74820147D01*
X138321335Y-74765000D01*
X138038665Y-74765000D01*
X137761426Y-74820147D01*
X137500273Y-74928320D01*
X137265241Y-75085363D01*
X137065363Y-75285241D01*
X136910000Y-75517759D01*
X136754637Y-75285241D01*
X136554759Y-75085363D01*
X136319727Y-74928320D01*
X136058574Y-74820147D01*
X135781335Y-74765000D01*
X135498665Y-74765000D01*
X135221426Y-74820147D01*
X134960273Y-74928320D01*
X134725241Y-75085363D01*
X134525363Y-75285241D01*
X134370000Y-75517759D01*
X134214637Y-75285241D01*
X134014759Y-75085363D01*
X133779727Y-74928320D01*
X133518574Y-74820147D01*
X133241335Y-74765000D01*
X132958665Y-74765000D01*
X132681426Y-74820147D01*
X132420273Y-74928320D01*
X132185241Y-75085363D01*
X131985363Y-75285241D01*
X131828320Y-75520273D01*
X131730537Y-75756342D01*
X131689110Y-75548075D01*
X131520631Y-75141331D01*
X131276038Y-74775271D01*
X130964729Y-74463962D01*
X130749274Y-74320000D01*
X159302783Y-74320000D01*
X159208651Y-74348554D01*
X159076622Y-74419126D01*
X158960897Y-74514099D01*
X158937099Y-74543097D01*
X157395000Y-76085196D01*
X157395000Y-76058665D01*
X157339853Y-75781426D01*
X157231680Y-75520273D01*
X157074637Y-75285241D01*
X156874759Y-75085363D01*
X156639727Y-74928320D01*
X156378574Y-74820147D01*
X156101335Y-74765000D01*
X155818665Y-74765000D01*
X155541426Y-74820147D01*
X155280273Y-74928320D01*
X155045241Y-75085363D01*
X154845363Y-75285241D01*
X154690000Y-75517759D01*
X154534637Y-75285241D01*
X154334759Y-75085363D01*
X154099727Y-74928320D01*
X153838574Y-74820147D01*
X153561335Y-74765000D01*
X153278665Y-74765000D01*
X153001426Y-74820147D01*
X152740273Y-74928320D01*
X152505241Y-75085363D01*
X152305363Y-75285241D01*
X152150000Y-75517759D01*
X151994637Y-75285241D01*
X151794759Y-75085363D01*
X151559727Y-74928320D01*
X151298574Y-74820147D01*
X151021335Y-74765000D01*
X150738665Y-74765000D01*
X150461426Y-74820147D01*
X150200273Y-74928320D01*
X149965241Y-75085363D01*
X149765363Y-75285241D01*
X149610000Y-75517759D01*
X149454637Y-75285241D01*
X149254759Y-75085363D01*
X149019727Y-74928320D01*
X148758574Y-74820147D01*
X148481335Y-74765000D01*
X148198665Y-74765000D01*
X147921426Y-74820147D01*
X147660273Y-74928320D01*
X147425241Y-75085363D01*
X147225363Y-75285241D01*
X147070000Y-75517759D01*
X146914637Y-75285241D01*
X146714759Y-75085363D01*
X146479727Y-74928320D01*
X146218574Y-74820147D01*
X145941335Y-74765000D01*
X145658665Y-74765000D01*
X145381426Y-74820147D01*
X145120273Y-74928320D01*
X144885241Y-75085363D01*
X144685363Y-75285241D01*
X144530000Y-75517759D01*
X144374637Y-75285241D01*
X144174759Y-75085363D01*
X143939727Y-74928320D01*
X143678574Y-74820147D01*
X143401335Y-74765000D01*
X143118665Y-74765000D01*
X142841426Y-74820147D01*
X142580273Y-74928320D01*
X142345241Y-75085363D01*
X142145363Y-75285241D01*
X141988320Y-75520273D01*
X141983933Y-75530865D01*
X141872385Y-75344869D01*
X141683414Y-75136481D01*
X141457420Y-74968963D01*
X141203087Y-74848754D01*
X141069039Y-74808096D01*
X140847000Y-74930085D01*
X140847000Y-76073000D01*
X140867000Y-76073000D01*
X140867000Y-76327000D01*
X140847000Y-76327000D01*
X140847000Y-77469915D01*
X141069039Y-77591904D01*
X141203087Y-77551246D01*
X141457420Y-77431037D01*
X141683414Y-77263519D01*
X141872385Y-77055131D01*
X141983933Y-76869135D01*
X141988320Y-76879727D01*
X142145363Y-77114759D01*
X142345241Y-77314637D01*
X142580273Y-77471680D01*
X142841426Y-77579853D01*
X143118665Y-77635000D01*
X143401335Y-77635000D01*
X143678574Y-77579853D01*
X143939727Y-77471680D01*
X144174759Y-77314637D01*
X144374637Y-77114759D01*
X144530000Y-76882241D01*
X144685363Y-77114759D01*
X144885241Y-77314637D01*
X145120273Y-77471680D01*
X145381426Y-77579853D01*
X145658665Y-77635000D01*
X145941335Y-77635000D01*
X146218574Y-77579853D01*
X146479727Y-77471680D01*
X146714759Y-77314637D01*
X146914637Y-77114759D01*
X147070000Y-76882241D01*
X147225363Y-77114759D01*
X147425241Y-77314637D01*
X147660273Y-77471680D01*
X147921426Y-77579853D01*
X148198665Y-77635000D01*
X148481335Y-77635000D01*
X148758574Y-77579853D01*
X149019727Y-77471680D01*
X149254759Y-77314637D01*
X149454637Y-77114759D01*
X149610000Y-76882241D01*
X149765363Y-77114759D01*
X149965241Y-77314637D01*
X150200273Y-77471680D01*
X150461426Y-77579853D01*
X150738665Y-77635000D01*
X151021335Y-77635000D01*
X151298574Y-77579853D01*
X151559727Y-77471680D01*
X151794759Y-77314637D01*
X151994637Y-77114759D01*
X152150000Y-76882241D01*
X152305363Y-77114759D01*
X152505241Y-77314637D01*
X152740273Y-77471680D01*
X153001426Y-77579853D01*
X153278665Y-77635000D01*
X153561335Y-77635000D01*
X153838574Y-77579853D01*
X154099727Y-77471680D01*
X154334759Y-77314637D01*
X154534637Y-77114759D01*
X154690000Y-76882241D01*
X154845363Y-77114759D01*
X155045241Y-77314637D01*
X155280273Y-77471680D01*
X155541426Y-77579853D01*
X155818665Y-77635000D01*
X155845197Y-77635000D01*
X154793998Y-78686199D01*
X154765000Y-78709997D01*
X154741202Y-78738995D01*
X154741201Y-78738996D01*
X154670026Y-78825722D01*
X154599454Y-78957752D01*
X154555998Y-79101013D01*
X154541324Y-79249998D01*
X154545001Y-79287330D01*
X154545000Y-85656289D01*
X154501063Y-85700226D01*
X154387795Y-85869744D01*
X154309774Y-86058102D01*
X154270000Y-86258061D01*
X154270000Y-86461939D01*
X154309774Y-86661898D01*
X154387795Y-86850256D01*
X154501063Y-87019774D01*
X154645226Y-87163937D01*
X154814744Y-87277205D01*
X155003102Y-87355226D01*
X155203061Y-87395000D01*
X155406939Y-87395000D01*
X155606898Y-87355226D01*
X155795256Y-87277205D01*
X155964774Y-87163937D01*
X156108937Y-87019774D01*
X156222205Y-86850256D01*
X156300226Y-86661898D01*
X156340000Y-86461939D01*
X156340000Y-86258061D01*
X156300226Y-86058102D01*
X156222205Y-85869744D01*
X156108937Y-85700226D01*
X156065000Y-85656289D01*
X156065000Y-81001891D01*
X156673519Y-81001891D01*
X156770843Y-81276252D01*
X156919822Y-81526355D01*
X157114731Y-81742588D01*
X157348080Y-81916641D01*
X157610901Y-82041825D01*
X157758110Y-82086476D01*
X157988000Y-81965155D01*
X157988000Y-80772000D01*
X156794186Y-80772000D01*
X156673519Y-81001891D01*
X156065000Y-81001891D01*
X156065000Y-80288109D01*
X156673519Y-80288109D01*
X156794186Y-80518000D01*
X157988000Y-80518000D01*
X157988000Y-79324845D01*
X157758110Y-79203524D01*
X157610901Y-79248175D01*
X157348080Y-79373359D01*
X157114731Y-79547412D01*
X156919822Y-79763645D01*
X156770843Y-80013748D01*
X156673519Y-80288109D01*
X156065000Y-80288109D01*
X156065000Y-79564799D01*
X158749022Y-76880778D01*
X158905363Y-77114759D01*
X159105241Y-77314637D01*
X159340273Y-77471680D01*
X159601426Y-77579853D01*
X159878665Y-77635000D01*
X160161335Y-77635000D01*
X160343886Y-77598688D01*
X161259601Y-78514404D01*
X161259601Y-79288082D01*
X161088158Y-79217068D01*
X160801260Y-79160000D01*
X160508740Y-79160000D01*
X160221842Y-79217068D01*
X159951589Y-79329010D01*
X159708368Y-79491525D01*
X159501525Y-79698368D01*
X159379805Y-79880534D01*
X159310178Y-79763645D01*
X159115269Y-79547412D01*
X158881920Y-79373359D01*
X158619099Y-79248175D01*
X158471890Y-79203524D01*
X158242000Y-79324845D01*
X158242000Y-80518000D01*
X158262000Y-80518000D01*
X158262000Y-80772000D01*
X158242000Y-80772000D01*
X158242000Y-81965155D01*
X158471890Y-82086476D01*
X158619099Y-82041825D01*
X158881920Y-81916641D01*
X159115269Y-81742588D01*
X159310178Y-81526355D01*
X159379805Y-81409466D01*
X159501525Y-81591632D01*
X159708368Y-81798475D01*
X159951589Y-81960990D01*
X160221842Y-82072932D01*
X160508740Y-82130000D01*
X160801260Y-82130000D01*
X161088158Y-82072932D01*
X161259601Y-82001918D01*
X161259600Y-88557080D01*
X161255924Y-88594402D01*
X161259600Y-88631724D01*
X161259600Y-88631734D01*
X161270597Y-88743387D01*
X161314054Y-88886648D01*
X161384626Y-89018678D01*
X161424471Y-89067228D01*
X161479599Y-89134403D01*
X161508603Y-89158206D01*
X169774304Y-97423909D01*
X169774303Y-100312089D01*
X169730366Y-100356026D01*
X169617098Y-100525544D01*
X169539077Y-100713902D01*
X169499303Y-100913861D01*
X169499303Y-101117739D01*
X169539077Y-101317698D01*
X169617098Y-101506056D01*
X169730366Y-101675574D01*
X169874529Y-101819737D01*
X170044047Y-101933005D01*
X170232405Y-102011026D01*
X170432364Y-102050800D01*
X170499304Y-102050800D01*
X170499303Y-109040395D01*
X166014472Y-113525227D01*
X166015676Y-113513001D01*
X166012000Y-113475678D01*
X166012000Y-109923711D01*
X166055937Y-109879774D01*
X166169205Y-109710256D01*
X166247226Y-109521898D01*
X166287000Y-109321939D01*
X166287000Y-109118061D01*
X166247226Y-108918102D01*
X166169205Y-108729744D01*
X166055937Y-108560226D01*
X165911774Y-108416063D01*
X165742256Y-108302795D01*
X165553898Y-108224774D01*
X165353939Y-108185000D01*
X165150061Y-108185000D01*
X164950102Y-108224774D01*
X164761744Y-108302795D01*
X164592226Y-108416063D01*
X164448063Y-108560226D01*
X164334795Y-108729744D01*
X164256774Y-108918102D01*
X164217000Y-109118061D01*
X164217000Y-109321939D01*
X164256774Y-109521898D01*
X164334795Y-109710256D01*
X164448063Y-109879774D01*
X164492001Y-109923712D01*
X164492000Y-113198197D01*
X159934199Y-117756000D01*
X158310711Y-117756000D01*
X158266774Y-117712063D01*
X158097256Y-117598795D01*
X157908898Y-117520774D01*
X157708939Y-117481000D01*
X157505061Y-117481000D01*
X157305102Y-117520774D01*
X157116744Y-117598795D01*
X156947226Y-117712063D01*
X156803063Y-117856226D01*
X156689795Y-118025744D01*
X156611774Y-118214102D01*
X156572000Y-118414061D01*
X156572000Y-118617939D01*
X156611774Y-118817898D01*
X156689795Y-119006256D01*
X156803063Y-119175774D01*
X156947226Y-119319937D01*
X157116744Y-119433205D01*
X157305102Y-119511226D01*
X157505061Y-119551000D01*
X157708939Y-119551000D01*
X157908898Y-119511226D01*
X158097256Y-119433205D01*
X158266774Y-119319937D01*
X158310711Y-119276000D01*
X160211678Y-119276000D01*
X160249000Y-119279676D01*
X160286322Y-119276000D01*
X160286333Y-119276000D01*
X160397986Y-119265003D01*
X160541247Y-119221546D01*
X160673276Y-119150974D01*
X160789001Y-119056001D01*
X160812804Y-119026997D01*
X161924528Y-117915273D01*
X161923324Y-117927500D01*
X161927001Y-117964832D01*
X161927000Y-121478198D01*
X160343886Y-123061312D01*
X160161335Y-123025000D01*
X159878665Y-123025000D01*
X159601426Y-123080147D01*
X159340273Y-123188320D01*
X159105241Y-123345363D01*
X158905363Y-123545241D01*
X158748320Y-123780273D01*
X158743933Y-123790865D01*
X158632385Y-123604869D01*
X158443414Y-123396481D01*
X158217420Y-123228963D01*
X157963087Y-123108754D01*
X157829039Y-123068096D01*
X157607000Y-123190085D01*
X157607000Y-124333000D01*
X157627000Y-124333000D01*
X157627000Y-124587000D01*
X157607000Y-124587000D01*
X157607000Y-124607000D01*
X157353000Y-124607000D01*
X157353000Y-124587000D01*
X155067000Y-124587000D01*
X155067000Y-124607000D01*
X154813000Y-124607000D01*
X154813000Y-124587000D01*
X154793000Y-124587000D01*
X154793000Y-124333000D01*
X154813000Y-124333000D01*
X154813000Y-123190085D01*
X155067000Y-123190085D01*
X155067000Y-124333000D01*
X157353000Y-124333000D01*
X157353000Y-123190085D01*
X157130961Y-123068096D01*
X156996913Y-123108754D01*
X156742580Y-123228963D01*
X156516586Y-123396481D01*
X156327615Y-123604869D01*
X156210000Y-123800982D01*
X156092385Y-123604869D01*
X155903414Y-123396481D01*
X155677420Y-123228963D01*
X155423087Y-123108754D01*
X155289039Y-123068096D01*
X155067000Y-123190085D01*
X154813000Y-123190085D01*
X154590961Y-123068096D01*
X154456913Y-123108754D01*
X154202580Y-123228963D01*
X153976586Y-123396481D01*
X153787615Y-123604869D01*
X153676067Y-123790865D01*
X153671680Y-123780273D01*
X153514637Y-123545241D01*
X153314759Y-123345363D01*
X153079727Y-123188320D01*
X152818574Y-123080147D01*
X152541335Y-123025000D01*
X152258665Y-123025000D01*
X151981426Y-123080147D01*
X151720273Y-123188320D01*
X151485241Y-123345363D01*
X151285363Y-123545241D01*
X151130000Y-123777759D01*
X150974637Y-123545241D01*
X150774759Y-123345363D01*
X150539727Y-123188320D01*
X150278574Y-123080147D01*
X150001335Y-123025000D01*
X149718665Y-123025000D01*
X149441426Y-123080147D01*
X149180273Y-123188320D01*
X148945241Y-123345363D01*
X148745363Y-123545241D01*
X148590000Y-123777759D01*
X148434637Y-123545241D01*
X148234759Y-123345363D01*
X147999727Y-123188320D01*
X147738574Y-123080147D01*
X147461335Y-123025000D01*
X147178665Y-123025000D01*
X146901426Y-123080147D01*
X146640273Y-123188320D01*
X146405241Y-123345363D01*
X146205363Y-123545241D01*
X146050000Y-123777759D01*
X145894637Y-123545241D01*
X145694759Y-123345363D01*
X145459727Y-123188320D01*
X145198574Y-123080147D01*
X144921335Y-123025000D01*
X144638665Y-123025000D01*
X144361426Y-123080147D01*
X144100273Y-123188320D01*
X143865241Y-123345363D01*
X143666643Y-123543961D01*
X143665812Y-123535518D01*
X143629502Y-123415820D01*
X143570537Y-123305506D01*
X143491185Y-123208815D01*
X143394494Y-123129463D01*
X143284180Y-123070498D01*
X143164482Y-123034188D01*
X143040000Y-123021928D01*
X141440000Y-123021928D01*
X141315518Y-123034188D01*
X141195820Y-123070498D01*
X141085506Y-123129463D01*
X140988815Y-123208815D01*
X140909463Y-123305506D01*
X140850498Y-123415820D01*
X140814188Y-123535518D01*
X140801928Y-123660000D01*
X140801928Y-125260000D01*
X140814188Y-125384482D01*
X140850498Y-125504180D01*
X140909463Y-125614494D01*
X140988815Y-125711185D01*
X141085506Y-125790537D01*
X141195820Y-125849502D01*
X141315518Y-125885812D01*
X141440000Y-125898072D01*
X143040000Y-125898072D01*
X143164482Y-125885812D01*
X143284180Y-125849502D01*
X143394494Y-125790537D01*
X143491185Y-125711185D01*
X143570537Y-125614494D01*
X143629502Y-125504180D01*
X143665812Y-125384482D01*
X143666643Y-125376039D01*
X143865241Y-125574637D01*
X144100273Y-125731680D01*
X144361426Y-125839853D01*
X144638665Y-125895000D01*
X144921335Y-125895000D01*
X145198574Y-125839853D01*
X145459727Y-125731680D01*
X145694759Y-125574637D01*
X145894637Y-125374759D01*
X146050000Y-125142241D01*
X146205363Y-125374759D01*
X146405241Y-125574637D01*
X146640273Y-125731680D01*
X146901426Y-125839853D01*
X147178665Y-125895000D01*
X147461335Y-125895000D01*
X147738574Y-125839853D01*
X147999727Y-125731680D01*
X148234759Y-125574637D01*
X148434637Y-125374759D01*
X148590000Y-125142241D01*
X148745363Y-125374759D01*
X148945241Y-125574637D01*
X149180273Y-125731680D01*
X149441426Y-125839853D01*
X149718665Y-125895000D01*
X150001335Y-125895000D01*
X150183886Y-125858688D01*
X150665198Y-126340000D01*
X129479274Y-126340000D01*
X129694729Y-126196038D01*
X130006038Y-125884729D01*
X130250631Y-125518669D01*
X130419110Y-125111925D01*
X130505000Y-124680128D01*
X130505000Y-124239872D01*
X130419110Y-123808075D01*
X130250631Y-123401331D01*
X130006038Y-123035271D01*
X129694729Y-122723962D01*
X129328669Y-122479369D01*
X128921925Y-122310890D01*
X128490128Y-122225000D01*
X128049872Y-122225000D01*
X127618075Y-122310890D01*
X127211331Y-122479369D01*
X126845271Y-122723962D01*
X126533962Y-123035271D01*
X126289369Y-123401331D01*
X126120890Y-123808075D01*
X126035000Y-124239872D01*
X126035000Y-124680128D01*
X126120890Y-125111925D01*
X126289369Y-125518669D01*
X126533962Y-125884729D01*
X126845271Y-126196038D01*
X127060726Y-126340000D01*
X114960000Y-126340000D01*
X114960000Y-111306249D01*
X117525800Y-111306249D01*
X117525800Y-111756551D01*
X117613650Y-112198202D01*
X117785973Y-112614227D01*
X118036148Y-112988640D01*
X118354560Y-113307052D01*
X118728973Y-113557227D01*
X119144998Y-113729550D01*
X119586649Y-113817400D01*
X120036951Y-113817400D01*
X120478602Y-113729550D01*
X120894627Y-113557227D01*
X121269040Y-113307052D01*
X121587452Y-112988640D01*
X121837627Y-112614227D01*
X122009950Y-112198202D01*
X122097800Y-111756551D01*
X122097800Y-111306249D01*
X122009950Y-110864598D01*
X121844266Y-110464600D01*
X128649324Y-110464600D01*
X128653000Y-110501922D01*
X128653001Y-118733668D01*
X128649324Y-118771000D01*
X128663998Y-118919985D01*
X128707454Y-119063246D01*
X128778026Y-119195276D01*
X128835250Y-119265003D01*
X128873000Y-119311001D01*
X128901998Y-119334799D01*
X130257000Y-120689802D01*
X130257000Y-120751939D01*
X130296774Y-120951898D01*
X130374795Y-121140256D01*
X130488063Y-121309774D01*
X130632226Y-121453937D01*
X130801744Y-121567205D01*
X130990102Y-121645226D01*
X131190061Y-121685000D01*
X131393939Y-121685000D01*
X131593898Y-121645226D01*
X131782256Y-121567205D01*
X131951774Y-121453937D01*
X132095937Y-121309774D01*
X132209205Y-121140256D01*
X132287226Y-120951898D01*
X132310100Y-120836902D01*
X134083005Y-122609808D01*
X134106799Y-122638801D01*
X134135792Y-122662595D01*
X134135796Y-122662599D01*
X134205985Y-122720201D01*
X134222524Y-122733774D01*
X134354553Y-122804346D01*
X134497814Y-122847803D01*
X134609467Y-122858800D01*
X134609476Y-122858800D01*
X134646799Y-122862476D01*
X134684122Y-122858800D01*
X137751189Y-122858800D01*
X137795126Y-122902737D01*
X137964644Y-123016005D01*
X138153002Y-123094026D01*
X138352961Y-123133800D01*
X138556839Y-123133800D01*
X138756798Y-123094026D01*
X138945156Y-123016005D01*
X139114674Y-122902737D01*
X139258837Y-122758574D01*
X139372105Y-122589056D01*
X139450126Y-122400698D01*
X139489900Y-122200739D01*
X139489900Y-121996861D01*
X139450126Y-121796902D01*
X139372105Y-121608544D01*
X139258837Y-121439026D01*
X139232872Y-121413061D01*
X158985000Y-121413061D01*
X158985000Y-121616939D01*
X159024774Y-121816898D01*
X159102795Y-122005256D01*
X159216063Y-122174774D01*
X159360226Y-122318937D01*
X159529744Y-122432205D01*
X159718102Y-122510226D01*
X159918061Y-122550000D01*
X160121939Y-122550000D01*
X160321898Y-122510226D01*
X160510256Y-122432205D01*
X160679774Y-122318937D01*
X160823937Y-122174774D01*
X160937205Y-122005256D01*
X161015226Y-121816898D01*
X161055000Y-121616939D01*
X161055000Y-121413061D01*
X161015226Y-121213102D01*
X160937205Y-121024744D01*
X160823937Y-120855226D01*
X160679774Y-120711063D01*
X160510256Y-120597795D01*
X160321898Y-120519774D01*
X160121939Y-120480000D01*
X159918061Y-120480000D01*
X159718102Y-120519774D01*
X159529744Y-120597795D01*
X159360226Y-120711063D01*
X159216063Y-120855226D01*
X159102795Y-121024744D01*
X159024774Y-121213102D01*
X158985000Y-121413061D01*
X139232872Y-121413061D01*
X139114674Y-121294863D01*
X138945156Y-121181595D01*
X138756798Y-121103574D01*
X138556839Y-121063800D01*
X138352961Y-121063800D01*
X138153002Y-121103574D01*
X137964644Y-121181595D01*
X137795126Y-121294863D01*
X137751189Y-121338800D01*
X134961603Y-121338800D01*
X132328000Y-118705199D01*
X132328000Y-118643061D01*
X132288226Y-118443102D01*
X132210205Y-118254744D01*
X132096937Y-118085226D01*
X131952774Y-117941063D01*
X131783256Y-117827795D01*
X131594898Y-117749774D01*
X131394939Y-117710000D01*
X131191061Y-117710000D01*
X130991102Y-117749774D01*
X130802744Y-117827795D01*
X130633226Y-117941063D01*
X130489063Y-118085226D01*
X130375795Y-118254744D01*
X130297774Y-118443102D01*
X130274900Y-118558099D01*
X130173000Y-118456199D01*
X130173000Y-110779401D01*
X131332402Y-109620000D01*
X131394539Y-109620000D01*
X131594498Y-109580226D01*
X131782856Y-109502205D01*
X131952374Y-109388937D01*
X132096537Y-109244774D01*
X132107500Y-109228366D01*
X132107501Y-114231288D01*
X132063563Y-114275226D01*
X131950295Y-114444744D01*
X131872274Y-114633102D01*
X131832500Y-114833061D01*
X131832500Y-115036939D01*
X131872274Y-115236898D01*
X131950295Y-115425256D01*
X132063563Y-115594774D01*
X132207726Y-115738937D01*
X132377244Y-115852205D01*
X132565602Y-115930226D01*
X132765561Y-115970000D01*
X132969439Y-115970000D01*
X133169398Y-115930226D01*
X133357756Y-115852205D01*
X133527274Y-115738937D01*
X133671437Y-115594774D01*
X133784705Y-115425256D01*
X133862726Y-115236898D01*
X133902500Y-115036939D01*
X133902500Y-114833061D01*
X133862726Y-114633102D01*
X133784705Y-114444744D01*
X133671437Y-114275226D01*
X133627500Y-114231289D01*
X133627500Y-108566323D01*
X133631176Y-108529000D01*
X133627500Y-108491677D01*
X133627500Y-108491667D01*
X133616503Y-108380014D01*
X133573046Y-108236753D01*
X133502474Y-108104724D01*
X133407501Y-107988999D01*
X133378504Y-107965202D01*
X131288600Y-105875299D01*
X131288600Y-105813161D01*
X131248826Y-105613202D01*
X131170805Y-105424844D01*
X131057537Y-105255326D01*
X130913374Y-105111163D01*
X130743856Y-104997895D01*
X130555498Y-104919874D01*
X130355539Y-104880100D01*
X130151661Y-104880100D01*
X129951702Y-104919874D01*
X129763344Y-104997895D01*
X129593826Y-105111163D01*
X129449663Y-105255326D01*
X129336395Y-105424844D01*
X129258374Y-105613202D01*
X129218600Y-105813161D01*
X129218600Y-106017039D01*
X129258374Y-106216998D01*
X129336395Y-106405356D01*
X129449663Y-106574874D01*
X129593826Y-106719037D01*
X129763344Y-106832305D01*
X129951702Y-106910326D01*
X130151661Y-106950100D01*
X130213799Y-106950100D01*
X130893666Y-107629968D01*
X130802344Y-107667795D01*
X130632826Y-107781063D01*
X130488663Y-107925226D01*
X130375395Y-108094744D01*
X130297374Y-108283102D01*
X130257600Y-108483061D01*
X130257600Y-108545198D01*
X128902003Y-109900796D01*
X128872999Y-109924599D01*
X128819186Y-109990171D01*
X128778026Y-110040324D01*
X128736040Y-110118874D01*
X128707454Y-110172354D01*
X128663997Y-110315615D01*
X128653000Y-110427268D01*
X128653000Y-110427278D01*
X128649324Y-110464600D01*
X121844266Y-110464600D01*
X121837627Y-110448573D01*
X121587452Y-110074160D01*
X121269040Y-109755748D01*
X120894627Y-109505573D01*
X120478602Y-109333250D01*
X120036951Y-109245400D01*
X119586649Y-109245400D01*
X119144998Y-109333250D01*
X118728973Y-109505573D01*
X118354560Y-109755748D01*
X118036148Y-110074160D01*
X117785973Y-110448573D01*
X117613650Y-110864598D01*
X117525800Y-111306249D01*
X114960000Y-111306249D01*
X114960000Y-107977699D01*
X121285000Y-107977699D01*
X121285000Y-108277901D01*
X121343566Y-108572334D01*
X121458449Y-108849685D01*
X121625232Y-109099293D01*
X121837507Y-109311568D01*
X122087115Y-109478351D01*
X122364466Y-109593234D01*
X122658899Y-109651800D01*
X122959101Y-109651800D01*
X123253534Y-109593234D01*
X123530885Y-109478351D01*
X123780493Y-109311568D01*
X123992768Y-109099293D01*
X124053600Y-109008252D01*
X124114432Y-109099293D01*
X124326707Y-109311568D01*
X124576315Y-109478351D01*
X124853666Y-109593234D01*
X125148099Y-109651800D01*
X125448301Y-109651800D01*
X125742734Y-109593234D01*
X126020085Y-109478351D01*
X126269693Y-109311568D01*
X126481968Y-109099293D01*
X126648751Y-108849685D01*
X126763634Y-108572334D01*
X126822200Y-108277901D01*
X126822200Y-107977699D01*
X126763634Y-107683266D01*
X126648751Y-107405915D01*
X126481968Y-107156307D01*
X126269693Y-106944032D01*
X126020085Y-106777249D01*
X125742734Y-106662366D01*
X125448301Y-106603800D01*
X125148099Y-106603800D01*
X124853666Y-106662366D01*
X124576315Y-106777249D01*
X124326707Y-106944032D01*
X124114432Y-107156307D01*
X124053600Y-107247348D01*
X123992768Y-107156307D01*
X123780493Y-106944032D01*
X123530885Y-106777249D01*
X123253534Y-106662366D01*
X122959101Y-106603800D01*
X122658899Y-106603800D01*
X122364466Y-106662366D01*
X122087115Y-106777249D01*
X121837507Y-106944032D01*
X121625232Y-107156307D01*
X121458449Y-107405915D01*
X121343566Y-107683266D01*
X121285000Y-107977699D01*
X114960000Y-107977699D01*
X114960000Y-104549849D01*
X116713000Y-104549849D01*
X116713000Y-105000151D01*
X116800850Y-105441802D01*
X116973173Y-105857827D01*
X117223348Y-106232240D01*
X117541760Y-106550652D01*
X117916173Y-106800827D01*
X118332198Y-106973150D01*
X118773849Y-107061000D01*
X119224151Y-107061000D01*
X119665802Y-106973150D01*
X120081827Y-106800827D01*
X120456240Y-106550652D01*
X120774652Y-106232240D01*
X121024827Y-105857827D01*
X121197150Y-105441802D01*
X121285000Y-105000151D01*
X121285000Y-104549849D01*
X121197150Y-104108198D01*
X121024827Y-103692173D01*
X120774652Y-103317760D01*
X120456240Y-102999348D01*
X120081827Y-102749173D01*
X119665802Y-102576850D01*
X119224151Y-102489000D01*
X118773849Y-102489000D01*
X118332198Y-102576850D01*
X117916173Y-102749173D01*
X117541760Y-102999348D01*
X117223348Y-103317760D01*
X116973173Y-103692173D01*
X116800850Y-104108198D01*
X116713000Y-104549849D01*
X114960000Y-104549849D01*
X114960000Y-101272099D01*
X121285000Y-101272099D01*
X121285000Y-101572301D01*
X121343566Y-101866734D01*
X121458449Y-102144085D01*
X121625232Y-102393693D01*
X121837507Y-102605968D01*
X122087115Y-102772751D01*
X122364466Y-102887634D01*
X122658899Y-102946200D01*
X122959101Y-102946200D01*
X123253534Y-102887634D01*
X123530885Y-102772751D01*
X123780493Y-102605968D01*
X123992768Y-102393693D01*
X124053600Y-102302652D01*
X124114432Y-102393693D01*
X124326707Y-102605968D01*
X124576315Y-102772751D01*
X124853666Y-102887634D01*
X125148099Y-102946200D01*
X125448301Y-102946200D01*
X125742734Y-102887634D01*
X126020085Y-102772751D01*
X126269693Y-102605968D01*
X126481968Y-102393693D01*
X126648751Y-102144085D01*
X126763634Y-101866734D01*
X126822200Y-101572301D01*
X126822200Y-101272099D01*
X126763634Y-100977666D01*
X126648751Y-100700315D01*
X126481968Y-100450707D01*
X126269693Y-100238432D01*
X126020085Y-100071649D01*
X125742734Y-99956766D01*
X125448301Y-99898200D01*
X125148099Y-99898200D01*
X124853666Y-99956766D01*
X124576315Y-100071649D01*
X124326707Y-100238432D01*
X124114432Y-100450707D01*
X124053600Y-100541748D01*
X123992768Y-100450707D01*
X123780493Y-100238432D01*
X123530885Y-100071649D01*
X123253534Y-99956766D01*
X122959101Y-99898200D01*
X122658899Y-99898200D01*
X122364466Y-99956766D01*
X122087115Y-100071649D01*
X121837507Y-100238432D01*
X121625232Y-100450707D01*
X121458449Y-100700315D01*
X121343566Y-100977666D01*
X121285000Y-101272099D01*
X114960000Y-101272099D01*
X114960000Y-97793449D01*
X117525800Y-97793449D01*
X117525800Y-98243751D01*
X117613650Y-98685402D01*
X117785973Y-99101427D01*
X118036148Y-99475840D01*
X118354560Y-99794252D01*
X118728973Y-100044427D01*
X119144998Y-100216750D01*
X119586649Y-100304600D01*
X120036951Y-100304600D01*
X120478602Y-100216750D01*
X120894627Y-100044427D01*
X121269040Y-99794252D01*
X121587452Y-99475840D01*
X121837627Y-99101427D01*
X122009950Y-98685402D01*
X122097800Y-98243751D01*
X122097800Y-97793449D01*
X122009950Y-97351798D01*
X121837627Y-96935773D01*
X121587452Y-96561360D01*
X121269040Y-96242948D01*
X120894627Y-95992773D01*
X120478602Y-95820450D01*
X120036951Y-95732600D01*
X119586649Y-95732600D01*
X119144998Y-95820450D01*
X118728973Y-95992773D01*
X118354560Y-96242948D01*
X118036148Y-96561360D01*
X117785973Y-96935773D01*
X117613650Y-97351798D01*
X117525800Y-97793449D01*
X114960000Y-97793449D01*
X114960000Y-86893061D01*
X131832000Y-86893061D01*
X131832000Y-87096939D01*
X131871774Y-87296898D01*
X131949795Y-87485256D01*
X132063063Y-87654774D01*
X132107000Y-87698711D01*
X132107001Y-102166288D01*
X132063063Y-102210226D01*
X131949795Y-102379744D01*
X131871774Y-102568102D01*
X131832000Y-102768061D01*
X131832000Y-102971939D01*
X131871774Y-103171898D01*
X131949795Y-103360256D01*
X132063063Y-103529774D01*
X132207226Y-103673937D01*
X132376744Y-103787205D01*
X132565102Y-103865226D01*
X132765061Y-103905000D01*
X132827198Y-103905000D01*
X133081498Y-104159300D01*
X133081502Y-104159303D01*
X135257000Y-106334802D01*
X135257001Y-116136288D01*
X135213063Y-116180226D01*
X135099795Y-116349744D01*
X135021774Y-116538102D01*
X134982000Y-116738061D01*
X134982000Y-116941939D01*
X135021774Y-117141898D01*
X135099795Y-117330256D01*
X135213063Y-117499774D01*
X135357226Y-117643937D01*
X135526744Y-117757205D01*
X135715102Y-117835226D01*
X135915061Y-117875000D01*
X136118939Y-117875000D01*
X136318898Y-117835226D01*
X136507256Y-117757205D01*
X136676774Y-117643937D01*
X136820937Y-117499774D01*
X136934205Y-117330256D01*
X137012226Y-117141898D01*
X137052000Y-116941939D01*
X137052000Y-116738061D01*
X137012226Y-116538102D01*
X136934205Y-116349744D01*
X136820937Y-116180226D01*
X136777000Y-116136289D01*
X136777000Y-115435561D01*
X139902500Y-115435561D01*
X139902500Y-115639439D01*
X139942274Y-115839398D01*
X140020295Y-116027756D01*
X140133563Y-116197274D01*
X140277726Y-116341437D01*
X140447244Y-116454705D01*
X140635602Y-116532726D01*
X140835561Y-116572500D01*
X141039439Y-116572500D01*
X141239398Y-116532726D01*
X141427756Y-116454705D01*
X141597274Y-116341437D01*
X141657801Y-116280910D01*
X141657801Y-117132967D01*
X141654124Y-117170300D01*
X141657801Y-117207633D01*
X141667120Y-117302244D01*
X141668798Y-117319285D01*
X141712254Y-117462546D01*
X141782826Y-117594576D01*
X141823357Y-117643962D01*
X141877800Y-117710301D01*
X141906798Y-117734099D01*
X142957500Y-118784802D01*
X142957500Y-118846939D01*
X142997274Y-119046898D01*
X143075295Y-119235256D01*
X143188563Y-119404774D01*
X143332726Y-119548937D01*
X143502244Y-119662205D01*
X143690602Y-119740226D01*
X143890561Y-119780000D01*
X144094439Y-119780000D01*
X144294398Y-119740226D01*
X144482756Y-119662205D01*
X144652274Y-119548937D01*
X144796437Y-119404774D01*
X144909705Y-119235256D01*
X144987726Y-119046898D01*
X145027500Y-118846939D01*
X145027500Y-118643061D01*
X144987726Y-118443102D01*
X144909705Y-118254744D01*
X144796437Y-118085226D01*
X144652274Y-117941063D01*
X144482756Y-117827795D01*
X144397797Y-117792604D01*
X144483256Y-117757205D01*
X144652774Y-117643937D01*
X144796937Y-117499774D01*
X144910205Y-117330256D01*
X144988226Y-117141898D01*
X145028000Y-116941939D01*
X145028000Y-116738061D01*
X144988226Y-116538102D01*
X144910205Y-116349744D01*
X144796937Y-116180226D01*
X144753000Y-116136289D01*
X144753000Y-113673965D01*
X144763563Y-113689774D01*
X144907726Y-113833937D01*
X145077244Y-113947205D01*
X145265602Y-114025226D01*
X145465561Y-114065000D01*
X145669439Y-114065000D01*
X145869398Y-114025226D01*
X146057756Y-113947205D01*
X146227274Y-113833937D01*
X146298456Y-113762755D01*
X146455600Y-113919900D01*
X146455601Y-117088788D01*
X146411663Y-117132726D01*
X146298395Y-117302244D01*
X146220374Y-117490602D01*
X146180600Y-117690561D01*
X146180600Y-117894439D01*
X146220374Y-118094398D01*
X146298395Y-118282756D01*
X146411663Y-118452274D01*
X146555826Y-118596437D01*
X146725344Y-118709705D01*
X146913702Y-118787726D01*
X147113661Y-118827500D01*
X147317539Y-118827500D01*
X147517498Y-118787726D01*
X147705856Y-118709705D01*
X147875374Y-118596437D01*
X148019537Y-118452274D01*
X148132805Y-118282756D01*
X148210826Y-118094398D01*
X148250600Y-117894439D01*
X148250600Y-117690561D01*
X148210826Y-117490602D01*
X148132805Y-117302244D01*
X148019537Y-117132726D01*
X147975600Y-117088789D01*
X147975600Y-116001461D01*
X158959600Y-116001461D01*
X158959600Y-116205339D01*
X158999374Y-116405298D01*
X159077395Y-116593656D01*
X159190663Y-116763174D01*
X159334826Y-116907337D01*
X159504344Y-117020605D01*
X159692702Y-117098626D01*
X159892661Y-117138400D01*
X160096539Y-117138400D01*
X160296498Y-117098626D01*
X160484856Y-117020605D01*
X160654374Y-116907337D01*
X160798537Y-116763174D01*
X160911805Y-116593656D01*
X160989826Y-116405298D01*
X161029600Y-116205339D01*
X161029600Y-116001461D01*
X160989826Y-115801502D01*
X160911805Y-115613144D01*
X160798537Y-115443626D01*
X160754600Y-115399689D01*
X160754600Y-114780394D01*
X160755000Y-114776333D01*
X160755000Y-113733711D01*
X160798937Y-113689774D01*
X160912205Y-113520256D01*
X160990226Y-113331898D01*
X161030000Y-113131939D01*
X161030000Y-112928061D01*
X160990226Y-112728102D01*
X160912205Y-112539744D01*
X160798937Y-112370226D01*
X160755000Y-112326289D01*
X160755000Y-105266801D01*
X161214882Y-104806919D01*
X161236395Y-104858856D01*
X161349663Y-105028374D01*
X161493826Y-105172537D01*
X161663344Y-105285805D01*
X161851702Y-105363826D01*
X162051661Y-105403600D01*
X162255539Y-105403600D01*
X162455498Y-105363826D01*
X162643856Y-105285805D01*
X162813374Y-105172537D01*
X162857311Y-105128600D01*
X163388899Y-105128600D01*
X165565100Y-107304802D01*
X165565100Y-107366939D01*
X165604874Y-107566898D01*
X165682895Y-107755256D01*
X165796163Y-107924774D01*
X165940326Y-108068937D01*
X166109844Y-108182205D01*
X166298202Y-108260226D01*
X166498161Y-108300000D01*
X166702039Y-108300000D01*
X166901998Y-108260226D01*
X167090356Y-108182205D01*
X167259874Y-108068937D01*
X167404037Y-107924774D01*
X167517305Y-107755256D01*
X167595326Y-107566898D01*
X167635100Y-107366939D01*
X167635100Y-107163061D01*
X167595326Y-106963102D01*
X167517305Y-106774744D01*
X167404037Y-106605226D01*
X167259874Y-106461063D01*
X167090356Y-106347795D01*
X166901998Y-106269774D01*
X166702039Y-106230000D01*
X166639902Y-106230000D01*
X164267504Y-103857603D01*
X164243701Y-103828599D01*
X164127976Y-103733626D01*
X163995947Y-103663054D01*
X163852686Y-103619597D01*
X163741033Y-103608600D01*
X163741022Y-103608600D01*
X163703700Y-103604924D01*
X163666378Y-103608600D01*
X162857311Y-103608600D01*
X162813374Y-103564663D01*
X162643856Y-103451395D01*
X162591919Y-103429882D01*
X165291802Y-100730000D01*
X165353939Y-100730000D01*
X165553898Y-100690226D01*
X165742256Y-100612205D01*
X165911774Y-100498937D01*
X166055937Y-100354774D01*
X166169205Y-100185256D01*
X166247226Y-99996898D01*
X166287000Y-99796939D01*
X166287000Y-99593061D01*
X166247226Y-99393102D01*
X166169205Y-99204744D01*
X166055937Y-99035226D01*
X165911774Y-98891063D01*
X165742256Y-98777795D01*
X165553898Y-98699774D01*
X165353939Y-98660000D01*
X165150061Y-98660000D01*
X164950102Y-98699774D01*
X164761744Y-98777795D01*
X164592226Y-98891063D01*
X164448063Y-99035226D01*
X164334795Y-99204744D01*
X164256774Y-99393102D01*
X164217000Y-99593061D01*
X164217000Y-99655198D01*
X159484003Y-104388196D01*
X159454999Y-104411999D01*
X159430472Y-104441886D01*
X159360026Y-104527724D01*
X159302633Y-104635098D01*
X159289454Y-104659754D01*
X159245997Y-104803015D01*
X159235000Y-104914668D01*
X159235000Y-104914678D01*
X159231324Y-104952000D01*
X159235000Y-104989322D01*
X159235001Y-112326288D01*
X159191063Y-112370226D01*
X159077795Y-112539744D01*
X158999774Y-112728102D01*
X158960000Y-112928061D01*
X158960000Y-113131939D01*
X158999774Y-113331898D01*
X159077795Y-113520256D01*
X159191063Y-113689774D01*
X159234601Y-113733312D01*
X159234600Y-115399689D01*
X159190663Y-115443626D01*
X159077395Y-115613144D01*
X158999374Y-115801502D01*
X158959600Y-116001461D01*
X147975600Y-116001461D01*
X147975600Y-113642420D01*
X147979276Y-113605097D01*
X147975600Y-113567774D01*
X147975600Y-113567765D01*
X147964603Y-113456112D01*
X147921146Y-113312851D01*
X147850574Y-113180822D01*
X147755601Y-113065097D01*
X147726604Y-113041300D01*
X146327500Y-111642197D01*
X146327500Y-109288711D01*
X146371437Y-109244774D01*
X146484705Y-109075256D01*
X146562726Y-108886898D01*
X146602500Y-108686939D01*
X146602500Y-108483061D01*
X146562726Y-108283102D01*
X146484705Y-108094744D01*
X146371437Y-107925226D01*
X146252506Y-107806295D01*
X148110903Y-105947899D01*
X148139901Y-105924101D01*
X148183468Y-105871015D01*
X148234874Y-105808377D01*
X148305446Y-105676347D01*
X148311149Y-105657546D01*
X148348903Y-105533086D01*
X148359900Y-105421433D01*
X148359900Y-105421423D01*
X148363576Y-105384100D01*
X148359900Y-105346777D01*
X148359900Y-99224725D01*
X148363576Y-99187400D01*
X148359900Y-99150075D01*
X148359900Y-99150067D01*
X148348903Y-99038414D01*
X148305446Y-98895153D01*
X148234874Y-98763124D01*
X148139901Y-98647399D01*
X148110904Y-98623602D01*
X146602500Y-97115199D01*
X146602500Y-97053061D01*
X146562726Y-96853102D01*
X146484705Y-96664744D01*
X146371437Y-96495226D01*
X146227274Y-96351063D01*
X146057756Y-96237795D01*
X145869398Y-96159774D01*
X145669439Y-96120000D01*
X145465561Y-96120000D01*
X145265602Y-96159774D01*
X145077244Y-96237795D01*
X144907726Y-96351063D01*
X144763563Y-96495226D01*
X144753000Y-96511035D01*
X144753000Y-87698711D01*
X144796937Y-87654774D01*
X144910205Y-87485256D01*
X144988226Y-87296898D01*
X145028000Y-87096939D01*
X145028000Y-86893061D01*
X144988226Y-86693102D01*
X144910205Y-86504744D01*
X144796937Y-86335226D01*
X144652774Y-86191063D01*
X144483256Y-86077795D01*
X144294898Y-85999774D01*
X144094939Y-85960000D01*
X143891061Y-85960000D01*
X143691102Y-85999774D01*
X143502744Y-86077795D01*
X143333226Y-86191063D01*
X143189063Y-86335226D01*
X143075795Y-86504744D01*
X142997774Y-86693102D01*
X142958000Y-86893061D01*
X142958000Y-87096939D01*
X142997774Y-87296898D01*
X143075795Y-87485256D01*
X143189063Y-87654774D01*
X143233000Y-87698711D01*
X143233000Y-92067083D01*
X143221737Y-92050226D01*
X143077574Y-91906063D01*
X142908056Y-91792795D01*
X142719698Y-91714774D01*
X142519739Y-91675000D01*
X142315861Y-91675000D01*
X142115902Y-91714774D01*
X141927544Y-91792795D01*
X141758026Y-91906063D01*
X141697500Y-91966589D01*
X141697500Y-86224801D01*
X145607302Y-82315000D01*
X145669439Y-82315000D01*
X145869398Y-82275226D01*
X146057756Y-82197205D01*
X146227274Y-82083937D01*
X146371437Y-81939774D01*
X146484705Y-81770256D01*
X146562726Y-81581898D01*
X146602500Y-81381939D01*
X146602500Y-81178061D01*
X146562726Y-80978102D01*
X146484705Y-80789744D01*
X146371437Y-80620226D01*
X146227274Y-80476063D01*
X146057756Y-80362795D01*
X145869398Y-80284774D01*
X145669439Y-80245000D01*
X145465561Y-80245000D01*
X145265602Y-80284774D01*
X145077244Y-80362795D01*
X144907726Y-80476063D01*
X144763563Y-80620226D01*
X144650295Y-80789744D01*
X144572274Y-80978102D01*
X144532500Y-81178061D01*
X144532500Y-81240198D01*
X140426503Y-85346196D01*
X140397499Y-85369999D01*
X140342371Y-85437174D01*
X140302526Y-85485724D01*
X140264929Y-85556063D01*
X140231954Y-85617754D01*
X140188497Y-85761015D01*
X140177500Y-85872668D01*
X140177500Y-85872678D01*
X140173824Y-85910000D01*
X140177500Y-85947322D01*
X140177501Y-114833788D01*
X140133563Y-114877726D01*
X140020295Y-115047244D01*
X139942274Y-115235602D01*
X139902500Y-115435561D01*
X136777000Y-115435561D01*
X136777000Y-106057325D01*
X136780676Y-106020000D01*
X136777000Y-105982675D01*
X136777000Y-105982667D01*
X136766003Y-105871014D01*
X136722546Y-105727753D01*
X136651974Y-105595724D01*
X136557001Y-105479999D01*
X136528004Y-105456202D01*
X134156303Y-103084502D01*
X134156300Y-103084498D01*
X133902000Y-102830198D01*
X133902000Y-102768061D01*
X133862226Y-102568102D01*
X133784205Y-102379744D01*
X133670937Y-102210226D01*
X133627000Y-102166289D01*
X133627000Y-87698711D01*
X133670937Y-87654774D01*
X133784205Y-87485256D01*
X133862226Y-87296898D01*
X133902000Y-87096939D01*
X133902000Y-86893061D01*
X133862226Y-86693102D01*
X133784205Y-86504744D01*
X133670937Y-86335226D01*
X133526774Y-86191063D01*
X133357256Y-86077795D01*
X133168898Y-85999774D01*
X132968939Y-85960000D01*
X132765061Y-85960000D01*
X132565102Y-85999774D01*
X132376744Y-86077795D01*
X132207226Y-86191063D01*
X132063063Y-86335226D01*
X131949795Y-86504744D01*
X131871774Y-86693102D01*
X131832000Y-86893061D01*
X114960000Y-86893061D01*
X114960000Y-74320000D01*
X128330726Y-74320000D01*
X128115271Y-74463962D01*
G36*
X144763563Y-97814774D02*
G01*
X144907726Y-97958937D01*
X145077244Y-98072205D01*
X145265602Y-98150226D01*
X145465561Y-98190000D01*
X145527699Y-98190000D01*
X146839901Y-99502203D01*
X146839900Y-103187767D01*
X146839900Y-103187768D01*
X146839901Y-104255559D01*
X146839900Y-104255568D01*
X146839900Y-105069298D01*
X144753000Y-107156199D01*
X144753000Y-103573711D01*
X144796937Y-103529774D01*
X144910205Y-103360256D01*
X144988226Y-103171898D01*
X145028000Y-102971939D01*
X145028000Y-102768061D01*
X144988226Y-102568102D01*
X144910205Y-102379744D01*
X144796937Y-102210226D01*
X144753000Y-102166289D01*
X144753000Y-97798965D01*
X144763563Y-97814774D01*
G37*
X144763563Y-97814774D02*
X144907726Y-97958937D01*
X145077244Y-98072205D01*
X145265602Y-98150226D01*
X145465561Y-98190000D01*
X145527699Y-98190000D01*
X146839901Y-99502203D01*
X146839900Y-103187767D01*
X146839900Y-103187768D01*
X146839901Y-104255559D01*
X146839900Y-104255568D01*
X146839900Y-105069298D01*
X144753000Y-107156199D01*
X144753000Y-103573711D01*
X144796937Y-103529774D01*
X144910205Y-103360256D01*
X144988226Y-103171898D01*
X145028000Y-102971939D01*
X145028000Y-102768061D01*
X144988226Y-102568102D01*
X144910205Y-102379744D01*
X144796937Y-102210226D01*
X144753000Y-102166289D01*
X144753000Y-97798965D01*
X144763563Y-97814774D01*
G36*
X178105000Y-119600128D02*
G01*
X178190890Y-120031925D01*
X178359369Y-120438669D01*
X178603962Y-120804729D01*
X178915271Y-121116038D01*
X179281331Y-121360631D01*
X179688075Y-121529110D01*
X180119872Y-121615000D01*
X180560128Y-121615000D01*
X180991925Y-121529110D01*
X181398669Y-121360631D01*
X181764729Y-121116038D01*
X182076038Y-120804729D01*
X182220001Y-120589273D01*
X182220001Y-121646618D01*
X179896236Y-123970384D01*
X179871052Y-123991052D01*
X179850386Y-124016234D01*
X179788575Y-124091550D01*
X179734109Y-124193450D01*
X179727290Y-124206208D01*
X179689550Y-124330618D01*
X179680000Y-124427582D01*
X179680000Y-124427591D01*
X179676808Y-124460000D01*
X179680000Y-124492409D01*
X179680001Y-126340000D01*
X165921101Y-126340000D01*
X166705853Y-125555249D01*
X166725241Y-125574637D01*
X166960273Y-125731680D01*
X167221426Y-125839853D01*
X167498665Y-125895000D01*
X167781335Y-125895000D01*
X168058574Y-125839853D01*
X168319727Y-125731680D01*
X168554759Y-125574637D01*
X168754637Y-125374759D01*
X168910000Y-125142241D01*
X169065363Y-125374759D01*
X169265241Y-125574637D01*
X169500273Y-125731680D01*
X169761426Y-125839853D01*
X170038665Y-125895000D01*
X170321335Y-125895000D01*
X170598574Y-125839853D01*
X170859727Y-125731680D01*
X171094759Y-125574637D01*
X171294637Y-125374759D01*
X171450000Y-125142241D01*
X171605363Y-125374759D01*
X171805241Y-125574637D01*
X172040273Y-125731680D01*
X172301426Y-125839853D01*
X172578665Y-125895000D01*
X172861335Y-125895000D01*
X173138574Y-125839853D01*
X173399727Y-125731680D01*
X173634759Y-125574637D01*
X173834637Y-125374759D01*
X173990000Y-125142241D01*
X174145363Y-125374759D01*
X174345241Y-125574637D01*
X174580273Y-125731680D01*
X174841426Y-125839853D01*
X175118665Y-125895000D01*
X175401335Y-125895000D01*
X175678574Y-125839853D01*
X175939727Y-125731680D01*
X176174759Y-125574637D01*
X176374637Y-125374759D01*
X176530000Y-125142241D01*
X176685363Y-125374759D01*
X176885241Y-125574637D01*
X177120273Y-125731680D01*
X177381426Y-125839853D01*
X177658665Y-125895000D01*
X177941335Y-125895000D01*
X178218574Y-125839853D01*
X178479727Y-125731680D01*
X178714759Y-125574637D01*
X178914637Y-125374759D01*
X179071680Y-125139727D01*
X179179853Y-124878574D01*
X179235000Y-124601335D01*
X179235000Y-124318665D01*
X179179853Y-124041426D01*
X179071680Y-123780273D01*
X178914637Y-123545241D01*
X178714759Y-123345363D01*
X178479727Y-123188320D01*
X178218574Y-123080147D01*
X177941335Y-123025000D01*
X177658665Y-123025000D01*
X177381426Y-123080147D01*
X177120273Y-123188320D01*
X176885241Y-123345363D01*
X176685363Y-123545241D01*
X176530000Y-123777759D01*
X176374637Y-123545241D01*
X176174759Y-123345363D01*
X175939727Y-123188320D01*
X175678574Y-123080147D01*
X175401335Y-123025000D01*
X175118665Y-123025000D01*
X174841426Y-123080147D01*
X174580273Y-123188320D01*
X174345241Y-123345363D01*
X174145363Y-123545241D01*
X173990000Y-123777759D01*
X173930737Y-123689064D01*
X178105000Y-119514802D01*
X178105000Y-119600128D01*
G37*
X178105000Y-119600128D02*
X178190890Y-120031925D01*
X178359369Y-120438669D01*
X178603962Y-120804729D01*
X178915271Y-121116038D01*
X179281331Y-121360631D01*
X179688075Y-121529110D01*
X180119872Y-121615000D01*
X180560128Y-121615000D01*
X180991925Y-121529110D01*
X181398669Y-121360631D01*
X181764729Y-121116038D01*
X182076038Y-120804729D01*
X182220001Y-120589273D01*
X182220001Y-121646618D01*
X179896236Y-123970384D01*
X179871052Y-123991052D01*
X179850386Y-124016234D01*
X179788575Y-124091550D01*
X179734109Y-124193450D01*
X179727290Y-124206208D01*
X179689550Y-124330618D01*
X179680000Y-124427582D01*
X179680000Y-124427591D01*
X179676808Y-124460000D01*
X179680000Y-124492409D01*
X179680001Y-126340000D01*
X165921101Y-126340000D01*
X166705853Y-125555249D01*
X166725241Y-125574637D01*
X166960273Y-125731680D01*
X167221426Y-125839853D01*
X167498665Y-125895000D01*
X167781335Y-125895000D01*
X168058574Y-125839853D01*
X168319727Y-125731680D01*
X168554759Y-125574637D01*
X168754637Y-125374759D01*
X168910000Y-125142241D01*
X169065363Y-125374759D01*
X169265241Y-125574637D01*
X169500273Y-125731680D01*
X169761426Y-125839853D01*
X170038665Y-125895000D01*
X170321335Y-125895000D01*
X170598574Y-125839853D01*
X170859727Y-125731680D01*
X171094759Y-125574637D01*
X171294637Y-125374759D01*
X171450000Y-125142241D01*
X171605363Y-125374759D01*
X171805241Y-125574637D01*
X172040273Y-125731680D01*
X172301426Y-125839853D01*
X172578665Y-125895000D01*
X172861335Y-125895000D01*
X173138574Y-125839853D01*
X173399727Y-125731680D01*
X173634759Y-125574637D01*
X173834637Y-125374759D01*
X173990000Y-125142241D01*
X174145363Y-125374759D01*
X174345241Y-125574637D01*
X174580273Y-125731680D01*
X174841426Y-125839853D01*
X175118665Y-125895000D01*
X175401335Y-125895000D01*
X175678574Y-125839853D01*
X175939727Y-125731680D01*
X176174759Y-125574637D01*
X176374637Y-125374759D01*
X176530000Y-125142241D01*
X176685363Y-125374759D01*
X176885241Y-125574637D01*
X177120273Y-125731680D01*
X177381426Y-125839853D01*
X177658665Y-125895000D01*
X177941335Y-125895000D01*
X178218574Y-125839853D01*
X178479727Y-125731680D01*
X178714759Y-125574637D01*
X178914637Y-125374759D01*
X179071680Y-125139727D01*
X179179853Y-124878574D01*
X179235000Y-124601335D01*
X179235000Y-124318665D01*
X179179853Y-124041426D01*
X179071680Y-123780273D01*
X178914637Y-123545241D01*
X178714759Y-123345363D01*
X178479727Y-123188320D01*
X178218574Y-123080147D01*
X177941335Y-123025000D01*
X177658665Y-123025000D01*
X177381426Y-123080147D01*
X177120273Y-123188320D01*
X176885241Y-123345363D01*
X176685363Y-123545241D01*
X176530000Y-123777759D01*
X176374637Y-123545241D01*
X176174759Y-123345363D01*
X175939727Y-123188320D01*
X175678574Y-123080147D01*
X175401335Y-123025000D01*
X175118665Y-123025000D01*
X174841426Y-123080147D01*
X174580273Y-123188320D01*
X174345241Y-123345363D01*
X174145363Y-123545241D01*
X173990000Y-123777759D01*
X173930737Y-123689064D01*
X178105000Y-119514802D01*
X178105000Y-119600128D01*
G36*
X179680000Y-75457381D02*
G01*
X179680001Y-86581581D01*
X179676808Y-86614000D01*
X179689551Y-86743382D01*
X179727290Y-86867792D01*
X179788575Y-86982450D01*
X179850386Y-87057766D01*
X179850389Y-87057769D01*
X179871053Y-87082948D01*
X179896232Y-87103612D01*
X182220000Y-89427381D01*
X182220000Y-90230726D01*
X182076038Y-90015271D01*
X181764729Y-89703962D01*
X181398669Y-89459369D01*
X180991925Y-89290890D01*
X180560128Y-89205000D01*
X180119872Y-89205000D01*
X179688075Y-89290890D01*
X179281331Y-89459369D01*
X178915271Y-89703962D01*
X178603962Y-90015271D01*
X178359369Y-90381331D01*
X178190890Y-90788075D01*
X178105000Y-91219872D01*
X178105000Y-91660128D01*
X178190890Y-92091925D01*
X178359369Y-92498669D01*
X178603962Y-92864729D01*
X178915271Y-93176038D01*
X179281331Y-93420631D01*
X179688075Y-93589110D01*
X180119872Y-93675000D01*
X180560128Y-93675000D01*
X180991925Y-93589110D01*
X181398669Y-93420631D01*
X181764729Y-93176038D01*
X182076038Y-92864729D01*
X182220000Y-92649274D01*
X182220001Y-118170727D01*
X182076038Y-117955271D01*
X181764729Y-117643962D01*
X181398669Y-117399369D01*
X180991925Y-117230890D01*
X180560128Y-117145000D01*
X180119872Y-117145000D01*
X179688075Y-117230890D01*
X179449000Y-117329918D01*
X179449000Y-111899322D01*
X179452676Y-111861999D01*
X179449000Y-111824676D01*
X179449000Y-111824667D01*
X179438003Y-111713014D01*
X179394546Y-111569753D01*
X179323974Y-111437724D01*
X179306964Y-111416997D01*
X179252799Y-111350996D01*
X179252795Y-111350992D01*
X179229001Y-111321999D01*
X179200008Y-111298205D01*
X178987000Y-111085198D01*
X178987000Y-111023061D01*
X178947226Y-110823102D01*
X178869205Y-110634744D01*
X178755937Y-110465226D01*
X178611774Y-110321063D01*
X178442256Y-110207795D01*
X178253898Y-110129774D01*
X178053939Y-110090000D01*
X177850061Y-110090000D01*
X177650102Y-110129774D01*
X177461744Y-110207795D01*
X177292226Y-110321063D01*
X177148063Y-110465226D01*
X177034795Y-110634744D01*
X176956774Y-110823102D01*
X176917000Y-111023061D01*
X176917000Y-111226939D01*
X176956774Y-111426898D01*
X177034795Y-111615256D01*
X177148063Y-111784774D01*
X177292226Y-111928937D01*
X177461744Y-112042205D01*
X177650102Y-112120226D01*
X177850061Y-112160000D01*
X177912198Y-112160000D01*
X177929001Y-112176803D01*
X177929000Y-117541198D01*
X172946199Y-122524000D01*
X171768801Y-122524000D01*
X172607802Y-121685000D01*
X172669939Y-121685000D01*
X172869898Y-121645226D01*
X173058256Y-121567205D01*
X173227774Y-121453937D01*
X173371937Y-121309774D01*
X173485205Y-121140256D01*
X173563226Y-120951898D01*
X173603000Y-120751939D01*
X173603000Y-120548061D01*
X173563226Y-120348102D01*
X173485205Y-120159744D01*
X173371937Y-119990226D01*
X173328000Y-119946289D01*
X173328000Y-119448711D01*
X173371937Y-119404774D01*
X173485205Y-119235256D01*
X173563226Y-119046898D01*
X173603000Y-118846939D01*
X173603000Y-118643061D01*
X173563226Y-118443102D01*
X173485205Y-118254744D01*
X173371937Y-118085226D01*
X173227774Y-117941063D01*
X173058256Y-117827795D01*
X172973047Y-117792500D01*
X173058256Y-117757205D01*
X173227774Y-117643937D01*
X173371937Y-117499774D01*
X173485205Y-117330256D01*
X173563226Y-117141898D01*
X173603000Y-116941939D01*
X173603000Y-116738061D01*
X173563226Y-116538102D01*
X173485205Y-116349744D01*
X173371937Y-116180226D01*
X173328000Y-116136289D01*
X173328000Y-113344801D01*
X176417802Y-110255000D01*
X176479939Y-110255000D01*
X176679898Y-110215226D01*
X176868256Y-110137205D01*
X177037774Y-110023937D01*
X177181937Y-109879774D01*
X177295205Y-109710256D01*
X177373226Y-109521898D01*
X177413000Y-109321939D01*
X177413000Y-109118061D01*
X177373226Y-108918102D01*
X177295205Y-108729744D01*
X177181937Y-108560226D01*
X177037774Y-108416063D01*
X176868256Y-108302795D01*
X176679898Y-108224774D01*
X176479939Y-108185000D01*
X176276061Y-108185000D01*
X176076102Y-108224774D01*
X175887744Y-108302795D01*
X175718226Y-108416063D01*
X175574063Y-108560226D01*
X175460795Y-108729744D01*
X175382774Y-108918102D01*
X175343000Y-109118061D01*
X175343000Y-109180198D01*
X172056998Y-112466201D01*
X172028000Y-112489999D01*
X172004202Y-112518997D01*
X172004201Y-112518998D01*
X171933026Y-112605724D01*
X171862454Y-112737754D01*
X171841311Y-112807455D01*
X171818999Y-112881013D01*
X171818998Y-112881015D01*
X171804324Y-113030000D01*
X171808001Y-113067332D01*
X171808000Y-116136289D01*
X171764063Y-116180226D01*
X171650795Y-116349744D01*
X171572774Y-116538102D01*
X171533000Y-116738061D01*
X171533000Y-116941939D01*
X171572774Y-117141898D01*
X171650795Y-117330256D01*
X171764063Y-117499774D01*
X171908226Y-117643937D01*
X172077744Y-117757205D01*
X172162953Y-117792500D01*
X172077744Y-117827795D01*
X171908226Y-117941063D01*
X171764063Y-118085226D01*
X171650795Y-118254744D01*
X171572774Y-118443102D01*
X171533000Y-118643061D01*
X171533000Y-118846939D01*
X171572774Y-119046898D01*
X171650795Y-119235256D01*
X171764063Y-119404774D01*
X171808000Y-119448711D01*
X171808001Y-119946288D01*
X171764063Y-119990226D01*
X171650795Y-120159744D01*
X171572774Y-120348102D01*
X171533000Y-120548061D01*
X171533000Y-120610198D01*
X170069599Y-122073600D01*
X165123922Y-122073600D01*
X165086599Y-122069924D01*
X165049276Y-122073600D01*
X165049267Y-122073600D01*
X164937614Y-122084597D01*
X164794353Y-122128054D01*
X164662324Y-122198626D01*
X164662322Y-122198627D01*
X164662323Y-122198627D01*
X164575596Y-122269801D01*
X164575592Y-122269805D01*
X164546599Y-122293599D01*
X164522805Y-122322592D01*
X162020099Y-124825300D01*
X161410450Y-124825300D01*
X161455000Y-124601335D01*
X161455000Y-124318665D01*
X161418688Y-124136114D01*
X163198004Y-122356798D01*
X163227001Y-122333001D01*
X163321974Y-122217276D01*
X163392546Y-122085247D01*
X163436003Y-121941986D01*
X163447000Y-121830333D01*
X163447000Y-121830332D01*
X163450677Y-121793000D01*
X163447000Y-121755667D01*
X163447000Y-118242301D01*
X171770307Y-109918995D01*
X171799304Y-109895198D01*
X171894277Y-109779473D01*
X171964849Y-109647444D01*
X172008306Y-109504183D01*
X172019303Y-109392530D01*
X172019303Y-109392521D01*
X172022979Y-109355198D01*
X172019303Y-109317875D01*
X172019303Y-98455808D01*
X172063240Y-98411871D01*
X172176508Y-98242353D01*
X172254529Y-98053995D01*
X172294303Y-97854036D01*
X172294303Y-97650158D01*
X172254529Y-97450199D01*
X172176508Y-97261841D01*
X172063240Y-97092323D01*
X171919077Y-96948160D01*
X171749559Y-96834892D01*
X171561201Y-96756871D01*
X171361242Y-96717097D01*
X171268814Y-96717097D01*
X171314137Y-96671774D01*
X171427405Y-96502256D01*
X171505426Y-96313898D01*
X171536584Y-96157257D01*
X171558495Y-96210156D01*
X171671763Y-96379674D01*
X171815926Y-96523837D01*
X171985444Y-96637105D01*
X172173802Y-96715126D01*
X172373761Y-96754900D01*
X172577639Y-96754900D01*
X172777598Y-96715126D01*
X172965956Y-96637105D01*
X173135474Y-96523837D01*
X173279637Y-96379674D01*
X173392905Y-96210156D01*
X173470926Y-96021798D01*
X173510700Y-95821839D01*
X173510700Y-95720000D01*
X176451928Y-95720000D01*
X176451928Y-97420000D01*
X176464188Y-97544482D01*
X176500498Y-97664180D01*
X176559463Y-97774494D01*
X176638815Y-97871185D01*
X176735506Y-97950537D01*
X176845820Y-98009502D01*
X176918380Y-98031513D01*
X176786525Y-98163368D01*
X176624010Y-98406589D01*
X176512068Y-98676842D01*
X176455000Y-98963740D01*
X176455000Y-99256260D01*
X176512068Y-99543158D01*
X176624010Y-99813411D01*
X176786525Y-100056632D01*
X176993368Y-100263475D01*
X177167760Y-100380000D01*
X176993368Y-100496525D01*
X176786525Y-100703368D01*
X176624010Y-100946589D01*
X176512068Y-101216842D01*
X176455000Y-101503740D01*
X176455000Y-101796260D01*
X176512068Y-102083158D01*
X176624010Y-102353411D01*
X176786525Y-102596632D01*
X176993368Y-102803475D01*
X177236589Y-102965990D01*
X177506842Y-103077932D01*
X177793740Y-103135000D01*
X178086260Y-103135000D01*
X178373158Y-103077932D01*
X178643411Y-102965990D01*
X178886632Y-102803475D01*
X179093475Y-102596632D01*
X179211100Y-102420594D01*
X179382412Y-102650269D01*
X179598645Y-102845178D01*
X179848748Y-102994157D01*
X180123109Y-103091481D01*
X180353000Y-102970814D01*
X180353000Y-101777000D01*
X180607000Y-101777000D01*
X180607000Y-102970814D01*
X180836891Y-103091481D01*
X181111252Y-102994157D01*
X181361355Y-102845178D01*
X181577588Y-102650269D01*
X181751641Y-102416920D01*
X181876825Y-102154099D01*
X181921476Y-102006890D01*
X181800155Y-101777000D01*
X180607000Y-101777000D01*
X180353000Y-101777000D01*
X180333000Y-101777000D01*
X180333000Y-101523000D01*
X180353000Y-101523000D01*
X180353000Y-101503000D01*
X180607000Y-101503000D01*
X180607000Y-101523000D01*
X181800155Y-101523000D01*
X181921476Y-101293110D01*
X181876825Y-101145901D01*
X181751641Y-100883080D01*
X181577588Y-100649731D01*
X181361355Y-100454822D01*
X181244466Y-100385195D01*
X181426632Y-100263475D01*
X181633475Y-100056632D01*
X181795990Y-99813411D01*
X181907932Y-99543158D01*
X181965000Y-99256260D01*
X181965000Y-98963740D01*
X181907932Y-98676842D01*
X181795990Y-98406589D01*
X181633475Y-98163368D01*
X181426632Y-97956525D01*
X181252240Y-97840000D01*
X181426632Y-97723475D01*
X181633475Y-97516632D01*
X181795990Y-97273411D01*
X181907932Y-97003158D01*
X181965000Y-96716260D01*
X181965000Y-96423740D01*
X181907932Y-96136842D01*
X181795990Y-95866589D01*
X181633475Y-95623368D01*
X181426632Y-95416525D01*
X181183411Y-95254010D01*
X180913158Y-95142068D01*
X180626260Y-95085000D01*
X180333740Y-95085000D01*
X180046842Y-95142068D01*
X179776589Y-95254010D01*
X179533368Y-95416525D01*
X179401513Y-95548380D01*
X179379502Y-95475820D01*
X179320537Y-95365506D01*
X179241185Y-95268815D01*
X179144494Y-95189463D01*
X179034180Y-95130498D01*
X178914482Y-95094188D01*
X178790000Y-95081928D01*
X177090000Y-95081928D01*
X176965518Y-95094188D01*
X176845820Y-95130498D01*
X176735506Y-95189463D01*
X176638815Y-95268815D01*
X176559463Y-95365506D01*
X176500498Y-95475820D01*
X176464188Y-95595518D01*
X176451928Y-95720000D01*
X173510700Y-95720000D01*
X173510700Y-95617961D01*
X173470926Y-95418002D01*
X173392905Y-95229644D01*
X173279637Y-95060126D01*
X173135474Y-94915963D01*
X172965956Y-94802695D01*
X172777598Y-94724674D01*
X172577639Y-94684900D01*
X172518904Y-94684900D01*
X167859600Y-90025597D01*
X167859600Y-82076464D01*
X168128740Y-82130000D01*
X168421260Y-82130000D01*
X168708158Y-82072932D01*
X168978411Y-81960990D01*
X169221632Y-81798475D01*
X169428475Y-81591632D01*
X169545000Y-81417240D01*
X169661525Y-81591632D01*
X169868368Y-81798475D01*
X170111589Y-81960990D01*
X170381842Y-82072932D01*
X170668740Y-82130000D01*
X170961260Y-82130000D01*
X171248158Y-82072932D01*
X171518411Y-81960990D01*
X171761632Y-81798475D01*
X171968475Y-81591632D01*
X172085000Y-81417240D01*
X172201525Y-81591632D01*
X172408368Y-81798475D01*
X172651589Y-81960990D01*
X172921842Y-82072932D01*
X173208740Y-82130000D01*
X173501260Y-82130000D01*
X173788158Y-82072932D01*
X174058411Y-81960990D01*
X174301632Y-81798475D01*
X174433487Y-81666620D01*
X174455498Y-81739180D01*
X174514463Y-81849494D01*
X174593815Y-81946185D01*
X174690506Y-82025537D01*
X174800820Y-82084502D01*
X174920518Y-82120812D01*
X175045000Y-82133072D01*
X175609250Y-82130000D01*
X175768000Y-81971250D01*
X175768000Y-80772000D01*
X176022000Y-80772000D01*
X176022000Y-81971250D01*
X176180750Y-82130000D01*
X176745000Y-82133072D01*
X176869482Y-82120812D01*
X176989180Y-82084502D01*
X177099494Y-82025537D01*
X177196185Y-81946185D01*
X177275537Y-81849494D01*
X177334502Y-81739180D01*
X177370812Y-81619482D01*
X177383072Y-81495000D01*
X177380000Y-80930750D01*
X177221250Y-80772000D01*
X176022000Y-80772000D01*
X175768000Y-80772000D01*
X175748000Y-80772000D01*
X175748000Y-80518000D01*
X175768000Y-80518000D01*
X175768000Y-79318750D01*
X176022000Y-79318750D01*
X176022000Y-80518000D01*
X177221250Y-80518000D01*
X177380000Y-80359250D01*
X177383072Y-79795000D01*
X177370812Y-79670518D01*
X177334502Y-79550820D01*
X177275537Y-79440506D01*
X177196185Y-79343815D01*
X177099494Y-79264463D01*
X176989180Y-79205498D01*
X176869482Y-79169188D01*
X176745000Y-79156928D01*
X176180750Y-79160000D01*
X176022000Y-79318750D01*
X175768000Y-79318750D01*
X175609250Y-79160000D01*
X175045000Y-79156928D01*
X174920518Y-79169188D01*
X174800820Y-79205498D01*
X174690506Y-79264463D01*
X174593815Y-79343815D01*
X174514463Y-79440506D01*
X174455498Y-79550820D01*
X174433487Y-79623380D01*
X174301632Y-79491525D01*
X174058411Y-79329010D01*
X173788158Y-79217068D01*
X173501260Y-79160000D01*
X173208740Y-79160000D01*
X173200451Y-79161649D01*
X171224099Y-77185297D01*
X171294637Y-77114759D01*
X171450000Y-76882241D01*
X171605363Y-77114759D01*
X171805241Y-77314637D01*
X172040273Y-77471680D01*
X172301426Y-77579853D01*
X172578665Y-77635000D01*
X172861335Y-77635000D01*
X173138574Y-77579853D01*
X173399727Y-77471680D01*
X173634759Y-77314637D01*
X173834637Y-77114759D01*
X173990000Y-76882241D01*
X174145363Y-77114759D01*
X174345241Y-77314637D01*
X174580273Y-77471680D01*
X174841426Y-77579853D01*
X175118665Y-77635000D01*
X175401335Y-77635000D01*
X175678574Y-77579853D01*
X175939727Y-77471680D01*
X176174759Y-77314637D01*
X176374637Y-77114759D01*
X176530000Y-76882241D01*
X176685363Y-77114759D01*
X176885241Y-77314637D01*
X177120273Y-77471680D01*
X177381426Y-77579853D01*
X177658665Y-77635000D01*
X177941335Y-77635000D01*
X178218574Y-77579853D01*
X178479727Y-77471680D01*
X178714759Y-77314637D01*
X178914637Y-77114759D01*
X179071680Y-76879727D01*
X179179853Y-76618574D01*
X179235000Y-76341335D01*
X179235000Y-76058665D01*
X179179853Y-75781426D01*
X179071680Y-75520273D01*
X178914637Y-75285241D01*
X178714759Y-75085363D01*
X178479727Y-74928320D01*
X178218574Y-74820147D01*
X177941335Y-74765000D01*
X177658665Y-74765000D01*
X177381426Y-74820147D01*
X177120273Y-74928320D01*
X176885241Y-75085363D01*
X176685363Y-75285241D01*
X176530000Y-75517759D01*
X176374637Y-75285241D01*
X176174759Y-75085363D01*
X175939727Y-74928320D01*
X175678574Y-74820147D01*
X175401335Y-74765000D01*
X175118665Y-74765000D01*
X174841426Y-74820147D01*
X174580273Y-74928320D01*
X174345241Y-75085363D01*
X174145363Y-75285241D01*
X173990000Y-75517759D01*
X173834637Y-75285241D01*
X173634759Y-75085363D01*
X173399727Y-74928320D01*
X173138574Y-74820147D01*
X172861335Y-74765000D01*
X172578665Y-74765000D01*
X172301426Y-74820147D01*
X172040273Y-74928320D01*
X171805241Y-75085363D01*
X171605363Y-75285241D01*
X171450000Y-75517759D01*
X171294637Y-75285241D01*
X171094759Y-75085363D01*
X170859727Y-74928320D01*
X170598574Y-74820147D01*
X170321335Y-74765000D01*
X170038665Y-74765000D01*
X169761426Y-74820147D01*
X169500273Y-74928320D01*
X169265241Y-75085363D01*
X169264503Y-75086101D01*
X168721503Y-74543102D01*
X168697701Y-74514099D01*
X168581976Y-74419126D01*
X168449947Y-74348554D01*
X168355815Y-74320000D01*
X178542620Y-74320000D01*
X179680000Y-75457381D01*
G37*
X179680000Y-75457381D02*
X179680001Y-86581581D01*
X179676808Y-86614000D01*
X179689551Y-86743382D01*
X179727290Y-86867792D01*
X179788575Y-86982450D01*
X179850386Y-87057766D01*
X179850389Y-87057769D01*
X179871053Y-87082948D01*
X179896232Y-87103612D01*
X182220000Y-89427381D01*
X182220000Y-90230726D01*
X182076038Y-90015271D01*
X181764729Y-89703962D01*
X181398669Y-89459369D01*
X180991925Y-89290890D01*
X180560128Y-89205000D01*
X180119872Y-89205000D01*
X179688075Y-89290890D01*
X179281331Y-89459369D01*
X178915271Y-89703962D01*
X178603962Y-90015271D01*
X178359369Y-90381331D01*
X178190890Y-90788075D01*
X178105000Y-91219872D01*
X178105000Y-91660128D01*
X178190890Y-92091925D01*
X178359369Y-92498669D01*
X178603962Y-92864729D01*
X178915271Y-93176038D01*
X179281331Y-93420631D01*
X179688075Y-93589110D01*
X180119872Y-93675000D01*
X180560128Y-93675000D01*
X180991925Y-93589110D01*
X181398669Y-93420631D01*
X181764729Y-93176038D01*
X182076038Y-92864729D01*
X182220000Y-92649274D01*
X182220001Y-118170727D01*
X182076038Y-117955271D01*
X181764729Y-117643962D01*
X181398669Y-117399369D01*
X180991925Y-117230890D01*
X180560128Y-117145000D01*
X180119872Y-117145000D01*
X179688075Y-117230890D01*
X179449000Y-117329918D01*
X179449000Y-111899322D01*
X179452676Y-111861999D01*
X179449000Y-111824676D01*
X179449000Y-111824667D01*
X179438003Y-111713014D01*
X179394546Y-111569753D01*
X179323974Y-111437724D01*
X179306964Y-111416997D01*
X179252799Y-111350996D01*
X179252795Y-111350992D01*
X179229001Y-111321999D01*
X179200008Y-111298205D01*
X178987000Y-111085198D01*
X178987000Y-111023061D01*
X178947226Y-110823102D01*
X178869205Y-110634744D01*
X178755937Y-110465226D01*
X178611774Y-110321063D01*
X178442256Y-110207795D01*
X178253898Y-110129774D01*
X178053939Y-110090000D01*
X177850061Y-110090000D01*
X177650102Y-110129774D01*
X177461744Y-110207795D01*
X177292226Y-110321063D01*
X177148063Y-110465226D01*
X177034795Y-110634744D01*
X176956774Y-110823102D01*
X176917000Y-111023061D01*
X176917000Y-111226939D01*
X176956774Y-111426898D01*
X177034795Y-111615256D01*
X177148063Y-111784774D01*
X177292226Y-111928937D01*
X177461744Y-112042205D01*
X177650102Y-112120226D01*
X177850061Y-112160000D01*
X177912198Y-112160000D01*
X177929001Y-112176803D01*
X177929000Y-117541198D01*
X172946199Y-122524000D01*
X171768801Y-122524000D01*
X172607802Y-121685000D01*
X172669939Y-121685000D01*
X172869898Y-121645226D01*
X173058256Y-121567205D01*
X173227774Y-121453937D01*
X173371937Y-121309774D01*
X173485205Y-121140256D01*
X173563226Y-120951898D01*
X173603000Y-120751939D01*
X173603000Y-120548061D01*
X173563226Y-120348102D01*
X173485205Y-120159744D01*
X173371937Y-119990226D01*
X173328000Y-119946289D01*
X173328000Y-119448711D01*
X173371937Y-119404774D01*
X173485205Y-119235256D01*
X173563226Y-119046898D01*
X173603000Y-118846939D01*
X173603000Y-118643061D01*
X173563226Y-118443102D01*
X173485205Y-118254744D01*
X173371937Y-118085226D01*
X173227774Y-117941063D01*
X173058256Y-117827795D01*
X172973047Y-117792500D01*
X173058256Y-117757205D01*
X173227774Y-117643937D01*
X173371937Y-117499774D01*
X173485205Y-117330256D01*
X173563226Y-117141898D01*
X173603000Y-116941939D01*
X173603000Y-116738061D01*
X173563226Y-116538102D01*
X173485205Y-116349744D01*
X173371937Y-116180226D01*
X173328000Y-116136289D01*
X173328000Y-113344801D01*
X176417802Y-110255000D01*
X176479939Y-110255000D01*
X176679898Y-110215226D01*
X176868256Y-110137205D01*
X177037774Y-110023937D01*
X177181937Y-109879774D01*
X177295205Y-109710256D01*
X177373226Y-109521898D01*
X177413000Y-109321939D01*
X177413000Y-109118061D01*
X177373226Y-108918102D01*
X177295205Y-108729744D01*
X177181937Y-108560226D01*
X177037774Y-108416063D01*
X176868256Y-108302795D01*
X176679898Y-108224774D01*
X176479939Y-108185000D01*
X176276061Y-108185000D01*
X176076102Y-108224774D01*
X175887744Y-108302795D01*
X175718226Y-108416063D01*
X175574063Y-108560226D01*
X175460795Y-108729744D01*
X175382774Y-108918102D01*
X175343000Y-109118061D01*
X175343000Y-109180198D01*
X172056998Y-112466201D01*
X172028000Y-112489999D01*
X172004202Y-112518997D01*
X172004201Y-112518998D01*
X171933026Y-112605724D01*
X171862454Y-112737754D01*
X171841311Y-112807455D01*
X171818999Y-112881013D01*
X171818998Y-112881015D01*
X171804324Y-113030000D01*
X171808001Y-113067332D01*
X171808000Y-116136289D01*
X171764063Y-116180226D01*
X171650795Y-116349744D01*
X171572774Y-116538102D01*
X171533000Y-116738061D01*
X171533000Y-116941939D01*
X171572774Y-117141898D01*
X171650795Y-117330256D01*
X171764063Y-117499774D01*
X171908226Y-117643937D01*
X172077744Y-117757205D01*
X172162953Y-117792500D01*
X172077744Y-117827795D01*
X171908226Y-117941063D01*
X171764063Y-118085226D01*
X171650795Y-118254744D01*
X171572774Y-118443102D01*
X171533000Y-118643061D01*
X171533000Y-118846939D01*
X171572774Y-119046898D01*
X171650795Y-119235256D01*
X171764063Y-119404774D01*
X171808000Y-119448711D01*
X171808001Y-119946288D01*
X171764063Y-119990226D01*
X171650795Y-120159744D01*
X171572774Y-120348102D01*
X171533000Y-120548061D01*
X171533000Y-120610198D01*
X170069599Y-122073600D01*
X165123922Y-122073600D01*
X165086599Y-122069924D01*
X165049276Y-122073600D01*
X165049267Y-122073600D01*
X164937614Y-122084597D01*
X164794353Y-122128054D01*
X164662324Y-122198626D01*
X164662322Y-122198627D01*
X164662323Y-122198627D01*
X164575596Y-122269801D01*
X164575592Y-122269805D01*
X164546599Y-122293599D01*
X164522805Y-122322592D01*
X162020099Y-124825300D01*
X161410450Y-124825300D01*
X161455000Y-124601335D01*
X161455000Y-124318665D01*
X161418688Y-124136114D01*
X163198004Y-122356798D01*
X163227001Y-122333001D01*
X163321974Y-122217276D01*
X163392546Y-122085247D01*
X163436003Y-121941986D01*
X163447000Y-121830333D01*
X163447000Y-121830332D01*
X163450677Y-121793000D01*
X163447000Y-121755667D01*
X163447000Y-118242301D01*
X171770307Y-109918995D01*
X171799304Y-109895198D01*
X171894277Y-109779473D01*
X171964849Y-109647444D01*
X172008306Y-109504183D01*
X172019303Y-109392530D01*
X172019303Y-109392521D01*
X172022979Y-109355198D01*
X172019303Y-109317875D01*
X172019303Y-98455808D01*
X172063240Y-98411871D01*
X172176508Y-98242353D01*
X172254529Y-98053995D01*
X172294303Y-97854036D01*
X172294303Y-97650158D01*
X172254529Y-97450199D01*
X172176508Y-97261841D01*
X172063240Y-97092323D01*
X171919077Y-96948160D01*
X171749559Y-96834892D01*
X171561201Y-96756871D01*
X171361242Y-96717097D01*
X171268814Y-96717097D01*
X171314137Y-96671774D01*
X171427405Y-96502256D01*
X171505426Y-96313898D01*
X171536584Y-96157257D01*
X171558495Y-96210156D01*
X171671763Y-96379674D01*
X171815926Y-96523837D01*
X171985444Y-96637105D01*
X172173802Y-96715126D01*
X172373761Y-96754900D01*
X172577639Y-96754900D01*
X172777598Y-96715126D01*
X172965956Y-96637105D01*
X173135474Y-96523837D01*
X173279637Y-96379674D01*
X173392905Y-96210156D01*
X173470926Y-96021798D01*
X173510700Y-95821839D01*
X173510700Y-95720000D01*
X176451928Y-95720000D01*
X176451928Y-97420000D01*
X176464188Y-97544482D01*
X176500498Y-97664180D01*
X176559463Y-97774494D01*
X176638815Y-97871185D01*
X176735506Y-97950537D01*
X176845820Y-98009502D01*
X176918380Y-98031513D01*
X176786525Y-98163368D01*
X176624010Y-98406589D01*
X176512068Y-98676842D01*
X176455000Y-98963740D01*
X176455000Y-99256260D01*
X176512068Y-99543158D01*
X176624010Y-99813411D01*
X176786525Y-100056632D01*
X176993368Y-100263475D01*
X177167760Y-100380000D01*
X176993368Y-100496525D01*
X176786525Y-100703368D01*
X176624010Y-100946589D01*
X176512068Y-101216842D01*
X176455000Y-101503740D01*
X176455000Y-101796260D01*
X176512068Y-102083158D01*
X176624010Y-102353411D01*
X176786525Y-102596632D01*
X176993368Y-102803475D01*
X177236589Y-102965990D01*
X177506842Y-103077932D01*
X177793740Y-103135000D01*
X178086260Y-103135000D01*
X178373158Y-103077932D01*
X178643411Y-102965990D01*
X178886632Y-102803475D01*
X179093475Y-102596632D01*
X179211100Y-102420594D01*
X179382412Y-102650269D01*
X179598645Y-102845178D01*
X179848748Y-102994157D01*
X180123109Y-103091481D01*
X180353000Y-102970814D01*
X180353000Y-101777000D01*
X180607000Y-101777000D01*
X180607000Y-102970814D01*
X180836891Y-103091481D01*
X181111252Y-102994157D01*
X181361355Y-102845178D01*
X181577588Y-102650269D01*
X181751641Y-102416920D01*
X181876825Y-102154099D01*
X181921476Y-102006890D01*
X181800155Y-101777000D01*
X180607000Y-101777000D01*
X180353000Y-101777000D01*
X180333000Y-101777000D01*
X180333000Y-101523000D01*
X180353000Y-101523000D01*
X180353000Y-101503000D01*
X180607000Y-101503000D01*
X180607000Y-101523000D01*
X181800155Y-101523000D01*
X181921476Y-101293110D01*
X181876825Y-101145901D01*
X181751641Y-100883080D01*
X181577588Y-100649731D01*
X181361355Y-100454822D01*
X181244466Y-100385195D01*
X181426632Y-100263475D01*
X181633475Y-100056632D01*
X181795990Y-99813411D01*
X181907932Y-99543158D01*
X181965000Y-99256260D01*
X181965000Y-98963740D01*
X181907932Y-98676842D01*
X181795990Y-98406589D01*
X181633475Y-98163368D01*
X181426632Y-97956525D01*
X181252240Y-97840000D01*
X181426632Y-97723475D01*
X181633475Y-97516632D01*
X181795990Y-97273411D01*
X181907932Y-97003158D01*
X181965000Y-96716260D01*
X181965000Y-96423740D01*
X181907932Y-96136842D01*
X181795990Y-95866589D01*
X181633475Y-95623368D01*
X181426632Y-95416525D01*
X181183411Y-95254010D01*
X180913158Y-95142068D01*
X180626260Y-95085000D01*
X180333740Y-95085000D01*
X180046842Y-95142068D01*
X179776589Y-95254010D01*
X179533368Y-95416525D01*
X179401513Y-95548380D01*
X179379502Y-95475820D01*
X179320537Y-95365506D01*
X179241185Y-95268815D01*
X179144494Y-95189463D01*
X179034180Y-95130498D01*
X178914482Y-95094188D01*
X178790000Y-95081928D01*
X177090000Y-95081928D01*
X176965518Y-95094188D01*
X176845820Y-95130498D01*
X176735506Y-95189463D01*
X176638815Y-95268815D01*
X176559463Y-95365506D01*
X176500498Y-95475820D01*
X176464188Y-95595518D01*
X176451928Y-95720000D01*
X173510700Y-95720000D01*
X173510700Y-95617961D01*
X173470926Y-95418002D01*
X173392905Y-95229644D01*
X173279637Y-95060126D01*
X173135474Y-94915963D01*
X172965956Y-94802695D01*
X172777598Y-94724674D01*
X172577639Y-94684900D01*
X172518904Y-94684900D01*
X167859600Y-90025597D01*
X167859600Y-82076464D01*
X168128740Y-82130000D01*
X168421260Y-82130000D01*
X168708158Y-82072932D01*
X168978411Y-81960990D01*
X169221632Y-81798475D01*
X169428475Y-81591632D01*
X169545000Y-81417240D01*
X169661525Y-81591632D01*
X169868368Y-81798475D01*
X170111589Y-81960990D01*
X170381842Y-82072932D01*
X170668740Y-82130000D01*
X170961260Y-82130000D01*
X171248158Y-82072932D01*
X171518411Y-81960990D01*
X171761632Y-81798475D01*
X171968475Y-81591632D01*
X172085000Y-81417240D01*
X172201525Y-81591632D01*
X172408368Y-81798475D01*
X172651589Y-81960990D01*
X172921842Y-82072932D01*
X173208740Y-82130000D01*
X173501260Y-82130000D01*
X173788158Y-82072932D01*
X174058411Y-81960990D01*
X174301632Y-81798475D01*
X174433487Y-81666620D01*
X174455498Y-81739180D01*
X174514463Y-81849494D01*
X174593815Y-81946185D01*
X174690506Y-82025537D01*
X174800820Y-82084502D01*
X174920518Y-82120812D01*
X175045000Y-82133072D01*
X175609250Y-82130000D01*
X175768000Y-81971250D01*
X175768000Y-80772000D01*
X176022000Y-80772000D01*
X176022000Y-81971250D01*
X176180750Y-82130000D01*
X176745000Y-82133072D01*
X176869482Y-82120812D01*
X176989180Y-82084502D01*
X177099494Y-82025537D01*
X177196185Y-81946185D01*
X177275537Y-81849494D01*
X177334502Y-81739180D01*
X177370812Y-81619482D01*
X177383072Y-81495000D01*
X177380000Y-80930750D01*
X177221250Y-80772000D01*
X176022000Y-80772000D01*
X175768000Y-80772000D01*
X175748000Y-80772000D01*
X175748000Y-80518000D01*
X175768000Y-80518000D01*
X175768000Y-79318750D01*
X176022000Y-79318750D01*
X176022000Y-80518000D01*
X177221250Y-80518000D01*
X177380000Y-80359250D01*
X177383072Y-79795000D01*
X177370812Y-79670518D01*
X177334502Y-79550820D01*
X177275537Y-79440506D01*
X177196185Y-79343815D01*
X177099494Y-79264463D01*
X176989180Y-79205498D01*
X176869482Y-79169188D01*
X176745000Y-79156928D01*
X176180750Y-79160000D01*
X176022000Y-79318750D01*
X175768000Y-79318750D01*
X175609250Y-79160000D01*
X175045000Y-79156928D01*
X174920518Y-79169188D01*
X174800820Y-79205498D01*
X174690506Y-79264463D01*
X174593815Y-79343815D01*
X174514463Y-79440506D01*
X174455498Y-79550820D01*
X174433487Y-79623380D01*
X174301632Y-79491525D01*
X174058411Y-79329010D01*
X173788158Y-79217068D01*
X173501260Y-79160000D01*
X173208740Y-79160000D01*
X173200451Y-79161649D01*
X171224099Y-77185297D01*
X171294637Y-77114759D01*
X171450000Y-76882241D01*
X171605363Y-77114759D01*
X171805241Y-77314637D01*
X172040273Y-77471680D01*
X172301426Y-77579853D01*
X172578665Y-77635000D01*
X172861335Y-77635000D01*
X173138574Y-77579853D01*
X173399727Y-77471680D01*
X173634759Y-77314637D01*
X173834637Y-77114759D01*
X173990000Y-76882241D01*
X174145363Y-77114759D01*
X174345241Y-77314637D01*
X174580273Y-77471680D01*
X174841426Y-77579853D01*
X175118665Y-77635000D01*
X175401335Y-77635000D01*
X175678574Y-77579853D01*
X175939727Y-77471680D01*
X176174759Y-77314637D01*
X176374637Y-77114759D01*
X176530000Y-76882241D01*
X176685363Y-77114759D01*
X176885241Y-77314637D01*
X177120273Y-77471680D01*
X177381426Y-77579853D01*
X177658665Y-77635000D01*
X177941335Y-77635000D01*
X178218574Y-77579853D01*
X178479727Y-77471680D01*
X178714759Y-77314637D01*
X178914637Y-77114759D01*
X179071680Y-76879727D01*
X179179853Y-76618574D01*
X179235000Y-76341335D01*
X179235000Y-76058665D01*
X179179853Y-75781426D01*
X179071680Y-75520273D01*
X178914637Y-75285241D01*
X178714759Y-75085363D01*
X178479727Y-74928320D01*
X178218574Y-74820147D01*
X177941335Y-74765000D01*
X177658665Y-74765000D01*
X177381426Y-74820147D01*
X177120273Y-74928320D01*
X176885241Y-75085363D01*
X176685363Y-75285241D01*
X176530000Y-75517759D01*
X176374637Y-75285241D01*
X176174759Y-75085363D01*
X175939727Y-74928320D01*
X175678574Y-74820147D01*
X175401335Y-74765000D01*
X175118665Y-74765000D01*
X174841426Y-74820147D01*
X174580273Y-74928320D01*
X174345241Y-75085363D01*
X174145363Y-75285241D01*
X173990000Y-75517759D01*
X173834637Y-75285241D01*
X173634759Y-75085363D01*
X173399727Y-74928320D01*
X173138574Y-74820147D01*
X172861335Y-74765000D01*
X172578665Y-74765000D01*
X172301426Y-74820147D01*
X172040273Y-74928320D01*
X171805241Y-75085363D01*
X171605363Y-75285241D01*
X171450000Y-75517759D01*
X171294637Y-75285241D01*
X171094759Y-75085363D01*
X170859727Y-74928320D01*
X170598574Y-74820147D01*
X170321335Y-74765000D01*
X170038665Y-74765000D01*
X169761426Y-74820147D01*
X169500273Y-74928320D01*
X169265241Y-75085363D01*
X169264503Y-75086101D01*
X168721503Y-74543102D01*
X168697701Y-74514099D01*
X168581976Y-74419126D01*
X168449947Y-74348554D01*
X168355815Y-74320000D01*
X178542620Y-74320000D01*
X179680000Y-75457381D01*
%TD*%
M02*
